<svg width="363" height="74" viewBox="0 0 363 74" fill="none" xmlns="http://www.w3.org/2000/svg">
<g filter="url(#filter0_d_4_39)">
<path d="M57.06 36.435L65.9 10.5H78.965L59.27 58.665L44.58 31.235L29.955 58.665L10.26 10.5H23.26L32.23 36.435L44.58 8.225L57.06 36.435ZM84.2183 46.64C84.2183 47.42 84.4133 48.0917 84.8033 48.655C85.1933 49.175 85.7133 49.5867 86.3633 49.89C87.0133 50.15 87.7283 50.28 88.5083 50.28C89.635 50.28 90.675 50.0417 91.6283 49.565C92.5817 49.0883 93.3617 48.3733 93.9683 47.42C94.575 46.4667 94.8783 45.2967 94.8783 43.91L95.9183 47.81C95.9183 49.7167 95.3983 51.3417 94.3583 52.685C93.3183 53.985 91.975 54.9817 90.3283 55.675C88.6817 56.325 86.905 56.65 84.9983 56.65C83.0917 56.65 81.315 56.3033 79.6683 55.61C78.065 54.8733 76.765 53.79 75.7683 52.36C74.815 50.93 74.3383 49.1967 74.3383 47.16C74.3383 44.3 75.3567 42.0467 77.3933 40.4C79.43 38.71 82.3117 37.865 86.0383 37.865C87.8583 37.865 89.4833 38.0383 90.9133 38.385C92.3867 38.7317 93.6433 39.165 94.6833 39.685C95.7233 40.205 96.5033 40.7467 97.0233 41.31V45.665C95.9833 44.885 94.77 44.3 93.3833 43.91C92.04 43.4767 90.61 43.26 89.0933 43.26C87.9233 43.26 86.9917 43.39 86.2983 43.65C85.605 43.91 85.085 44.3 84.7383 44.82C84.3917 45.2967 84.2183 45.9033 84.2183 46.64ZM79.8633 35.265L76.5483 28.7C78.2383 27.8767 80.275 27.0967 82.6583 26.36C85.0417 25.6233 87.6417 25.255 90.4583 25.255C93.1017 25.255 95.4633 25.645 97.5433 26.425C99.6233 27.1617 101.27 28.245 102.483 29.675C103.697 31.105 104.303 32.86 104.303 34.94V56H94.8783V37.15C94.8783 36.4133 94.7483 35.785 94.4883 35.265C94.2717 34.7017 93.925 34.225 93.4483 33.835C92.9717 33.445 92.365 33.1633 91.6283 32.99C90.935 32.8167 90.1333 32.73 89.2233 32.73C87.88 32.73 86.5583 32.8817 85.2583 33.185C84.0017 33.4883 82.8967 33.8567 81.9433 34.29C80.99 34.68 80.2967 35.005 79.8633 35.265ZM108.142 26.1H128.162V34.225H108.142V26.1ZM113.407 15.7H122.832V56H113.407V15.7ZM147.556 56.65C144.089 56.65 141.077 56.0217 138.521 54.765C136.007 53.465 134.057 51.645 132.671 49.305C131.284 46.965 130.591 44.2133 130.591 41.05C130.591 37.8433 131.262 35.07 132.606 32.73C133.949 30.39 135.877 28.5917 138.391 27.335C140.947 26.0783 143.959 25.45 147.426 25.45C150.892 25.45 153.817 26.0567 156.201 27.27C158.584 28.44 160.404 30.1517 161.661 32.405C162.917 34.6583 163.546 37.3883 163.546 40.595C163.546 41.0717 163.546 41.5483 163.546 42.025C163.546 42.4583 163.502 42.8267 163.416 43.13H136.116V37.67H154.576L152.236 40.66C152.452 40.3567 152.626 39.9883 152.756 39.555C152.929 39.0783 153.016 38.6883 153.016 38.385C153.016 37.085 152.777 35.9583 152.301 35.005C151.824 34.0517 151.152 33.315 150.286 32.795C149.419 32.275 148.401 32.015 147.231 32.015C145.757 32.015 144.522 32.34 143.526 32.99C142.529 33.64 141.771 34.6367 141.251 35.98C140.774 37.28 140.514 38.9267 140.471 40.92C140.471 42.74 140.731 44.3 141.251 45.6C141.771 46.9 142.551 47.8967 143.591 48.59C144.631 49.24 145.909 49.565 147.426 49.565C149.159 49.565 150.632 49.24 151.846 48.59C153.102 47.94 154.099 46.965 154.836 45.665L163.611 47.81C162.051 50.7567 159.927 52.9667 157.241 54.44C154.597 55.9133 151.369 56.65 147.556 56.65ZM179.291 26.1V56H169.606V26.1H179.291ZM187.936 36.24C187.416 35.72 186.853 35.3083 186.246 35.005C185.683 34.7017 184.968 34.55 184.101 34.55C183.148 34.55 182.303 34.81 181.566 35.33C180.83 35.85 180.266 36.6083 179.876 37.605C179.486 38.6017 179.291 39.815 179.291 41.245L176.951 37.8C176.951 35.4167 177.406 33.2933 178.316 31.43C179.27 29.5667 180.505 28.0933 182.021 27.01C183.538 25.9267 185.12 25.385 186.766 25.385C187.85 25.385 188.89 25.6017 189.886 26.035C190.883 26.4683 191.641 27.075 192.161 27.855L187.936 36.24ZM190.787 20.315V10.5H226.797V20.315H214.252V56H203.267V20.315H190.787ZM235.278 26.1V56H225.593V26.1H235.278ZM243.923 36.24C243.403 35.72 242.839 35.3083 242.233 35.005C241.669 34.7017 240.954 34.55 240.088 34.55C239.134 34.55 238.289 34.81 237.553 35.33C236.816 35.85 236.253 36.6083 235.863 37.605C235.473 38.6017 235.278 39.815 235.278 41.245L232.938 37.8C232.938 35.4167 233.393 33.2933 234.303 31.43C235.256 29.5667 236.491 28.0933 238.008 27.01C239.524 25.9267 241.106 25.385 242.753 25.385C243.836 25.385 244.876 25.6017 245.873 26.035C246.869 26.4683 247.628 27.075 248.148 27.855L243.923 36.24ZM259.921 46.64C259.921 47.42 260.116 48.0917 260.506 48.655C260.896 49.175 261.416 49.5867 262.066 49.89C262.716 50.15 263.431 50.28 264.211 50.28C265.338 50.28 266.378 50.0417 267.331 49.565C268.285 49.0883 269.065 48.3733 269.671 47.42C270.278 46.4667 270.581 45.2967 270.581 43.91L271.621 47.81C271.621 49.7167 271.101 51.3417 270.061 52.685C269.021 53.985 267.678 54.9817 266.031 55.675C264.385 56.325 262.608 56.65 260.701 56.65C258.795 56.65 257.018 56.3033 255.371 55.61C253.768 54.8733 252.468 53.79 251.471 52.36C250.518 50.93 250.041 49.1967 250.041 47.16C250.041 44.3 251.06 42.0467 253.096 40.4C255.133 38.71 258.015 37.865 261.741 37.865C263.561 37.865 265.186 38.0383 266.616 38.385C268.09 38.7317 269.346 39.165 270.386 39.685C271.426 40.205 272.206 40.7467 272.726 41.31V45.665C271.686 44.885 270.473 44.3 269.086 43.91C267.743 43.4767 266.313 43.26 264.796 43.26C263.626 43.26 262.695 43.39 262.001 43.65C261.308 43.91 260.788 44.3 260.441 44.82C260.095 45.2967 259.921 45.9033 259.921 46.64ZM255.566 35.265L252.251 28.7C253.941 27.8767 255.978 27.0967 258.361 26.36C260.745 25.6233 263.345 25.255 266.161 25.255C268.805 25.255 271.166 25.645 273.246 26.425C275.326 27.1617 276.973 28.245 278.186 29.675C279.4 31.105 280.006 32.86 280.006 34.94V56H270.581V37.15C270.581 36.4133 270.451 35.785 270.191 35.265C269.975 34.7017 269.628 34.225 269.151 33.835C268.675 33.445 268.068 33.1633 267.331 32.99C266.638 32.8167 265.836 32.73 264.926 32.73C263.583 32.73 262.261 32.8817 260.961 33.185C259.705 33.4883 258.6 33.8567 257.646 34.29C256.693 34.68 256 35.005 255.566 35.265ZM295.611 41.05C295.611 42.6533 295.957 44.04 296.651 45.21C297.344 46.3367 298.297 47.225 299.511 47.875C300.767 48.525 302.111 48.85 303.541 48.85C304.754 48.85 305.902 48.6767 306.986 48.33C308.112 47.94 309.131 47.42 310.041 46.77C310.994 46.12 311.774 45.3183 312.381 44.365V53.92C311.341 54.7433 310.041 55.415 308.481 55.935C306.921 56.4117 305.014 56.65 302.761 56.65C299.467 56.65 296.499 56 293.856 54.7C291.256 53.4 289.197 51.58 287.681 49.24C286.207 46.9 285.471 44.17 285.471 41.05C285.471 37.8867 286.207 35.1567 287.681 32.86C289.197 30.52 291.256 28.7 293.856 27.4C296.499 26.1 299.467 25.45 302.761 25.45C305.014 25.45 306.921 25.71 308.481 26.23C310.041 26.7067 311.341 27.3133 312.381 28.05V37.67C311.774 36.7167 310.972 35.915 309.976 35.265C309.022 34.615 307.982 34.1167 306.856 33.77C305.729 33.4233 304.624 33.25 303.541 33.25C302.111 33.25 300.767 33.5967 299.511 34.29C298.297 34.9833 297.344 35.915 296.651 37.085C295.957 38.255 295.611 39.5767 295.611 41.05ZM319.41 5.3H328.835V56H319.41V5.3ZM339.69 26.1H351.455L338.65 38.45L352.755 56H341.185L326.885 38.45L339.69 26.1Z" fill="#007B7B"/>
</g>
<defs>
</defs>
</svg>
