<svg width="331" height="94" viewBox="0 0 331 94" fill="none" xmlns="http://www.w3.org/2000/svg">
<rect x="55" y="76" width="226" height="6" rx="3" fill="black" fill-opacity="0.23"/>
<rect x="166" y="76" width="100" height="6" rx="3" fill="url(#paint0_linear_40_159)"/>
<path d="M216.134 79.5C216.519 78.8333 217.481 78.8333 217.866 79.5L220.464 84C220.849 84.6667 220.368 85.5 219.598 85.5H214.402C213.632 85.5 213.151 84.6667 213.536 84L216.134 79.5Z" fill="black"/>
<path d="M16.1931 77.24C16.1931 77.624 16.2731 77.964 16.4331 78.26C16.6011 78.548 16.8251 78.776 17.1051 78.944C17.3931 79.112 17.7171 79.196 18.0771 79.196C18.4371 79.196 18.7571 79.112 19.0371 78.944C19.3251 78.776 19.5491 78.548 19.7091 78.26C19.8771 77.964 19.9611 77.624 19.9611 77.24C19.9611 76.856 19.8771 76.516 19.7091 76.22C19.5491 75.916 19.3251 75.68 19.0371 75.512C18.7571 75.344 18.4371 75.26 18.0771 75.26C17.7171 75.26 17.3931 75.344 17.1051 75.512C16.8251 75.68 16.6011 75.916 16.4331 76.22C16.2731 76.516 16.1931 76.856 16.1931 77.24ZM18.5811 71.6H19.8651L17.2371 75.068L17.1651 75.008C17.3251 74.808 17.5091 74.676 17.7171 74.612C17.9331 74.548 18.1771 74.516 18.4491 74.516C18.7931 74.516 19.1131 74.584 19.4091 74.72C19.7131 74.856 19.9771 75.048 20.2011 75.296C20.4331 75.544 20.6131 75.836 20.7411 76.172C20.8691 76.5 20.9331 76.856 20.9331 77.24C20.9331 77.816 20.8051 78.32 20.5491 78.752C20.3011 79.184 19.9611 79.52 19.5291 79.76C19.1051 80 18.6211 80.12 18.0771 80.12C17.5411 80.12 17.0571 80 16.6251 79.76C16.1931 79.52 15.8491 79.184 15.5931 78.752C15.3451 78.32 15.2211 77.816 15.2211 77.24C15.2211 76.896 15.2691 76.576 15.3651 76.28C15.4611 75.984 15.5891 75.724 15.7491 75.5L18.5811 71.6ZM21.7752 80L25.7472 75.764C25.9312 75.564 26.0872 75.368 26.2152 75.176C26.3512 74.976 26.4512 74.776 26.5152 74.576C26.5872 74.368 26.6232 74.152 26.6232 73.928C26.6232 73.744 26.5872 73.564 26.5152 73.388C26.4432 73.212 26.3352 73.052 26.1912 72.908C26.0552 72.764 25.8872 72.648 25.6872 72.56C25.4872 72.472 25.2592 72.428 25.0032 72.428C24.6432 72.428 24.3312 72.512 24.0672 72.68C23.8112 72.84 23.6152 73.076 23.4792 73.388C23.3432 73.692 23.2752 74.056 23.2752 74.48H22.2552C22.2552 73.88 22.3632 73.356 22.5792 72.908C22.7952 72.452 23.1072 72.1 23.5152 71.852C23.9312 71.596 24.4272 71.468 25.0032 71.468C25.4672 71.468 25.8672 71.548 26.2032 71.708C26.5392 71.86 26.8152 72.06 27.0312 72.308C27.2472 72.548 27.4072 72.808 27.5112 73.088C27.6152 73.368 27.6672 73.636 27.6672 73.892C27.6672 74.324 27.5632 74.752 27.3552 75.176C27.1472 75.6 26.8792 75.98 26.5512 76.316L23.8752 79.04H27.7032V80H21.7752ZM28.7872 73.4C28.7872 73.04 28.8632 72.716 29.0152 72.428C29.1752 72.14 29.3992 71.912 29.6872 71.744C29.9752 71.568 30.3072 71.48 30.6832 71.48C31.0672 71.48 31.3992 71.568 31.6792 71.744C31.9672 71.912 32.1872 72.14 32.3392 72.428C32.4992 72.716 32.5792 73.04 32.5792 73.4C32.5792 73.752 32.4992 74.076 32.3392 74.372C32.1872 74.66 31.9672 74.892 31.6792 75.068C31.3992 75.236 31.0672 75.32 30.6832 75.32C30.3072 75.32 29.9752 75.236 29.6872 75.068C29.3992 74.892 29.1752 74.66 29.0152 74.372C28.8632 74.076 28.7872 73.752 28.7872 73.4ZM29.6392 73.4C29.6392 73.6 29.6792 73.788 29.7592 73.964C29.8472 74.14 29.9672 74.28 30.1192 74.384C30.2792 74.488 30.4672 74.54 30.6832 74.54C30.9072 74.54 31.0952 74.488 31.2472 74.384C31.3992 74.28 31.5152 74.14 31.5952 73.964C31.6832 73.788 31.7272 73.6 31.7272 73.4C31.7272 73.192 31.6832 73.004 31.5952 72.836C31.5152 72.66 31.3992 72.52 31.2472 72.416C31.0952 72.312 30.9072 72.26 30.6832 72.26C30.4672 72.26 30.2792 72.312 30.1192 72.416C29.9672 72.52 29.8472 72.66 29.7592 72.836C29.6792 73.004 29.6392 73.192 29.6392 73.4ZM33.1672 78.2C33.1672 77.84 33.2432 77.516 33.3952 77.228C33.5552 76.94 33.7792 76.712 34.0672 76.544C34.3552 76.368 34.6872 76.28 35.0632 76.28C35.4472 76.28 35.7792 76.368 36.0592 76.544C36.3472 76.712 36.5672 76.94 36.7192 77.228C36.8792 77.516 36.9592 77.84 36.9592 78.2C36.9592 78.552 36.8792 78.876 36.7192 79.172C36.5672 79.46 36.3472 79.692 36.0592 79.868C35.7792 80.036 35.4472 80.12 35.0632 80.12C34.6872 80.12 34.3552 80.036 34.0672 79.868C33.7792 79.692 33.5552 79.46 33.3952 79.172C33.2432 78.876 33.1672 78.552 33.1672 78.2ZM34.0192 78.2C34.0192 78.4 34.0592 78.588 34.1392 78.764C34.2272 78.94 34.3472 79.08 34.4992 79.184C34.6592 79.288 34.8472 79.34 35.0632 79.34C35.2872 79.34 35.4752 79.288 35.6272 79.184C35.7792 79.08 35.8952 78.94 35.9752 78.764C36.0632 78.588 36.1072 78.4 36.1072 78.2C36.1072 77.992 36.0632 77.804 35.9752 77.636C35.8952 77.46 35.7792 77.32 35.6272 77.216C35.4752 77.112 35.2872 77.06 35.0632 77.06C34.8472 77.06 34.6592 77.112 34.4992 77.216C34.3472 77.32 34.2272 77.46 34.1392 77.636C34.0592 77.804 34.0192 77.992 34.0192 78.2ZM35.1232 71.6H36.0232L30.6232 80H29.7232L35.1232 71.6ZM0.300547 90.32L4.95655 83.6H5.37655V92H4.35655V89.888V89.756V85.868L1.98055 89.42H4.77655H4.98055H6.69655V90.32H0.300547ZM8.19664 91.52C8.19664 91.336 8.26064 91.18 8.38864 91.052C8.52464 90.924 8.68064 90.86 8.85664 90.86C9.04064 90.86 9.19664 90.924 9.32464 91.052C9.45264 91.18 9.51664 91.336 9.51664 91.52C9.51664 91.696 9.45264 91.852 9.32464 91.988C9.19664 92.116 9.04064 92.18 8.85664 92.18C8.68064 92.18 8.52464 92.116 8.38864 91.988C8.26064 91.852 8.19664 91.696 8.19664 91.52ZM8.19664 86.96C8.19664 86.776 8.26064 86.62 8.38864 86.492C8.52464 86.364 8.68064 86.3 8.85664 86.3C9.04064 86.3 9.19664 86.364 9.32464 86.492C9.45264 86.62 9.51664 86.776 9.51664 86.96C9.51664 87.136 9.45264 87.292 9.32464 87.428C9.19664 87.556 9.04064 87.62 8.85664 87.62C8.68064 87.62 8.52464 87.556 8.38864 87.428C8.26064 87.292 8.19664 87.136 8.19664 86.96ZM10.8943 92L14.8663 87.764C15.0503 87.564 15.2063 87.368 15.3343 87.176C15.4703 86.976 15.5703 86.776 15.6343 86.576C15.7063 86.368 15.7423 86.152 15.7423 85.928C15.7423 85.744 15.7063 85.564 15.6343 85.388C15.5623 85.212 15.4543 85.052 15.3103 84.908C15.1743 84.764 15.0063 84.648 14.8063 84.56C14.6063 84.472 14.3783 84.428 14.1223 84.428C13.7623 84.428 13.4503 84.512 13.1863 84.68C12.9303 84.84 12.7343 85.076 12.5983 85.388C12.4623 85.692 12.3943 86.056 12.3943 86.48H11.3743C11.3743 85.88 11.4823 85.356 11.6983 84.908C11.9143 84.452 12.2263 84.1 12.6343 83.852C13.0503 83.596 13.5463 83.468 14.1223 83.468C14.5863 83.468 14.9863 83.548 15.3223 83.708C15.6583 83.86 15.9343 84.06 16.1503 84.308C16.3663 84.548 16.5263 84.808 16.6303 85.088C16.7343 85.368 16.7863 85.636 16.7863 85.892C16.7863 86.324 16.6823 86.752 16.4743 87.176C16.2663 87.6 15.9983 87.98 15.6703 88.316L12.9943 91.04H16.8223V92H10.8943ZM18.9863 87.8C18.9863 88.288 19.0343 88.74 19.1303 89.156C19.2263 89.564 19.3663 89.92 19.5503 90.224C19.7343 90.52 19.9543 90.752 20.2103 90.92C20.4743 91.08 20.7663 91.16 21.0863 91.16C21.4143 91.16 21.7063 91.08 21.9623 90.92C22.2183 90.752 22.4383 90.52 22.6223 90.224C22.8063 89.92 22.9463 89.564 23.0423 89.156C23.1383 88.74 23.1863 88.288 23.1863 87.8C23.1863 87.312 23.1383 86.864 23.0423 86.456C22.9463 86.04 22.8063 85.684 22.6223 85.388C22.4383 85.084 22.2183 84.852 21.9623 84.692C21.7063 84.524 21.4143 84.44 21.0863 84.44C20.7663 84.44 20.4743 84.524 20.2103 84.692C19.9543 84.852 19.7343 85.084 19.5503 85.388C19.3663 85.684 19.2263 86.04 19.1303 86.456C19.0343 86.864 18.9863 87.312 18.9863 87.8ZM17.9663 87.8C17.9663 86.96 18.0983 86.216 18.3623 85.568C18.6263 84.92 18.9903 84.412 19.4543 84.044C19.9263 83.668 20.4703 83.48 21.0863 83.48C21.7023 83.48 22.2423 83.668 22.7063 84.044C23.1783 84.412 23.5463 84.92 23.8103 85.568C24.0743 86.216 24.2063 86.96 24.2063 87.8C24.2063 88.64 24.0743 89.384 23.8103 90.032C23.5463 90.68 23.1783 91.192 22.7063 91.568C22.2423 91.936 21.7023 92.12 21.0863 92.12C20.4703 92.12 19.9263 91.936 19.4543 91.568C18.9903 91.192 18.6263 90.68 18.3623 90.032C18.0983 89.384 17.9663 88.64 17.9663 87.8ZM25.0416 84.56V83.6H30.9216L26.9016 92H25.8336L29.3976 84.56H25.0416ZM32.1263 91.52C32.1263 91.336 32.1903 91.18 32.3183 91.052C32.4543 90.924 32.6103 90.86 32.7863 90.86C32.9703 90.86 33.1263 90.924 33.2543 91.052C33.3823 91.18 33.4463 91.336 33.4463 91.52C33.4463 91.696 33.3823 91.852 33.2543 91.988C33.1263 92.116 32.9703 92.18 32.7863 92.18C32.6103 92.18 32.4543 92.116 32.3183 91.988C32.1903 91.852 32.1263 91.696 32.1263 91.52ZM32.1263 86.96C32.1263 86.776 32.1903 86.62 32.3183 86.492C32.4543 86.364 32.6103 86.3 32.7863 86.3C32.9703 86.3 33.1263 86.364 33.2543 86.492C33.3823 86.62 33.4463 86.776 33.4463 86.96C33.4463 87.136 33.3823 87.292 33.2543 87.428C33.1263 87.556 32.9703 87.62 32.7863 87.62C32.6103 87.62 32.4543 87.556 32.3183 87.428C32.1903 87.292 32.1263 87.136 32.1263 86.96ZM37.62 87.86V87.2C37.892 87.2 38.132 87.164 38.34 87.092C38.548 87.012 38.724 86.908 38.868 86.78C39.012 86.644 39.12 86.488 39.192 86.312C39.272 86.136 39.312 85.948 39.312 85.748C39.312 85.484 39.264 85.252 39.168 85.052C39.072 84.844 38.928 84.684 38.736 84.572C38.552 84.46 38.32 84.404 38.04 84.404C37.648 84.404 37.316 84.528 37.044 84.776C36.772 85.016 36.636 85.32 36.636 85.688H35.664C35.664 85.248 35.764 84.864 35.964 84.536C36.172 84.208 36.452 83.952 36.804 83.768C37.164 83.576 37.572 83.48 38.028 83.48C38.508 83.48 38.92 83.584 39.264 83.792C39.616 84 39.884 84.272 40.068 84.608C40.26 84.944 40.356 85.312 40.356 85.712C40.356 86.104 40.24 86.464 40.008 86.792C39.776 87.12 39.456 87.38 39.048 87.572C38.64 87.764 38.164 87.86 37.62 87.86ZM37.98 92.12C37.572 92.12 37.204 92.06 36.876 91.94C36.548 91.82 36.268 91.656 36.036 91.448C35.804 91.232 35.624 90.984 35.496 90.704C35.368 90.416 35.304 90.108 35.304 89.78H36.336C36.336 90.044 36.404 90.28 36.54 90.488C36.684 90.696 36.88 90.86 37.128 90.98C37.376 91.1 37.66 91.16 37.98 91.16C38.3 91.16 38.576 91.1 38.808 90.98C39.048 90.852 39.232 90.676 39.36 90.452C39.488 90.228 39.552 89.964 39.552 89.66C39.552 89.404 39.5 89.18 39.396 88.988C39.3 88.788 39.164 88.624 38.988 88.496C38.812 88.36 38.608 88.26 38.376 88.196C38.144 88.132 37.892 88.1 37.62 88.1V87.44C38.028 87.44 38.408 87.484 38.76 87.572C39.12 87.66 39.436 87.8 39.708 87.992C39.988 88.176 40.204 88.416 40.356 88.712C40.516 89.008 40.596 89.364 40.596 89.78C40.596 90.252 40.48 90.664 40.248 91.016C40.024 91.368 39.716 91.64 39.324 91.832C38.932 92.024 38.484 92.12 37.98 92.12ZM42.0948 85.256V84.2L44.9748 83.48V92H43.9548V84.704L42.0948 85.256ZM47.4971 85.256V84.2L50.3771 83.48V92H49.3571V84.704L47.4971 85.256Z" fill="black"/>
<path d="M305.786 72.56V71.6H311.666L307.646 80H306.578L310.142 72.56H305.786ZM311.97 80L315.942 75.764C316.126 75.564 316.282 75.368 316.41 75.176C316.546 74.976 316.646 74.776 316.71 74.576C316.782 74.368 316.818 74.152 316.818 73.928C316.818 73.744 316.782 73.564 316.71 73.388C316.638 73.212 316.53 73.052 316.386 72.908C316.25 72.764 316.082 72.648 315.882 72.56C315.682 72.472 315.454 72.428 315.198 72.428C314.838 72.428 314.526 72.512 314.262 72.68C314.006 72.84 313.81 73.076 313.674 73.388C313.538 73.692 313.47 74.056 313.47 74.48H312.45C312.45 73.88 312.558 73.356 312.774 72.908C312.99 72.452 313.302 72.1 313.71 71.852C314.126 71.596 314.622 71.468 315.198 71.468C315.662 71.468 316.062 71.548 316.398 71.708C316.734 71.86 317.01 72.06 317.226 72.308C317.442 72.548 317.602 72.808 317.706 73.088C317.81 73.368 317.862 73.636 317.862 73.892C317.862 74.324 317.758 74.752 317.55 75.176C317.342 75.6 317.074 75.98 316.746 76.316L314.07 79.04H317.898V80H311.97ZM318.983 73.4C318.983 73.04 319.059 72.716 319.211 72.428C319.371 72.14 319.595 71.912 319.883 71.744C320.171 71.568 320.503 71.48 320.879 71.48C321.263 71.48 321.595 71.568 321.875 71.744C322.163 71.912 322.383 72.14 322.535 72.428C322.695 72.716 322.775 73.04 322.775 73.4C322.775 73.752 322.695 74.076 322.535 74.372C322.383 74.66 322.163 74.892 321.875 75.068C321.595 75.236 321.263 75.32 320.879 75.32C320.503 75.32 320.171 75.236 319.883 75.068C319.595 74.892 319.371 74.66 319.211 74.372C319.059 74.076 318.983 73.752 318.983 73.4ZM319.835 73.4C319.835 73.6 319.875 73.788 319.955 73.964C320.043 74.14 320.163 74.28 320.315 74.384C320.475 74.488 320.663 74.54 320.879 74.54C321.103 74.54 321.291 74.488 321.443 74.384C321.595 74.28 321.711 74.14 321.791 73.964C321.879 73.788 321.923 73.6 321.923 73.4C321.923 73.192 321.879 73.004 321.791 72.836C321.711 72.66 321.595 72.52 321.443 72.416C321.291 72.312 321.103 72.26 320.879 72.26C320.663 72.26 320.475 72.312 320.315 72.416C320.163 72.52 320.043 72.66 319.955 72.836C319.875 73.004 319.835 73.192 319.835 73.4ZM323.363 78.2C323.363 77.84 323.439 77.516 323.591 77.228C323.751 76.94 323.975 76.712 324.263 76.544C324.551 76.368 324.883 76.28 325.259 76.28C325.643 76.28 325.975 76.368 326.255 76.544C326.543 76.712 326.763 76.94 326.915 77.228C327.075 77.516 327.155 77.84 327.155 78.2C327.155 78.552 327.075 78.876 326.915 79.172C326.763 79.46 326.543 79.692 326.255 79.868C325.975 80.036 325.643 80.12 325.259 80.12C324.883 80.12 324.551 80.036 324.263 79.868C323.975 79.692 323.751 79.46 323.591 79.172C323.439 78.876 323.363 78.552 323.363 78.2ZM324.215 78.2C324.215 78.4 324.255 78.588 324.335 78.764C324.423 78.94 324.543 79.08 324.695 79.184C324.855 79.288 325.043 79.34 325.259 79.34C325.483 79.34 325.671 79.288 325.823 79.184C325.975 79.08 326.091 78.94 326.171 78.764C326.259 78.588 326.303 78.4 326.303 78.2C326.303 77.992 326.259 77.804 326.171 77.636C326.091 77.46 325.975 77.32 325.823 77.216C325.671 77.112 325.483 77.06 325.259 77.06C325.043 77.06 324.855 77.112 324.695 77.216C324.543 77.32 324.423 77.46 324.335 77.636C324.255 77.804 324.215 77.992 324.215 78.2ZM325.319 71.6H326.219L320.819 80H319.919L325.319 71.6ZM303.415 85.256V84.2L306.295 83.48V92H305.275V84.704L303.415 85.256ZM309.429 89.24C309.429 89.624 309.509 89.964 309.669 90.26C309.837 90.548 310.061 90.776 310.341 90.944C310.629 91.112 310.953 91.196 311.313 91.196C311.673 91.196 311.993 91.112 312.273 90.944C312.561 90.776 312.785 90.548 312.945 90.26C313.113 89.964 313.197 89.624 313.197 89.24C313.197 88.856 313.113 88.516 312.945 88.22C312.785 87.916 312.561 87.68 312.273 87.512C311.993 87.344 311.673 87.26 311.313 87.26C310.953 87.26 310.629 87.344 310.341 87.512C310.061 87.68 309.837 87.916 309.669 88.22C309.509 88.516 309.429 88.856 309.429 89.24ZM311.817 83.6H313.101L310.473 87.068L310.401 87.008C310.561 86.808 310.745 86.676 310.953 86.612C311.169 86.548 311.413 86.516 311.685 86.516C312.029 86.516 312.349 86.584 312.645 86.72C312.949 86.856 313.213 87.048 313.437 87.296C313.669 87.544 313.849 87.836 313.977 88.172C314.105 88.5 314.169 88.856 314.169 89.24C314.169 89.816 314.041 90.32 313.785 90.752C313.537 91.184 313.197 91.52 312.765 91.76C312.341 92 311.857 92.12 311.313 92.12C310.777 92.12 310.293 92 309.861 91.76C309.429 91.52 309.085 91.184 308.829 90.752C308.581 90.32 308.457 89.816 308.457 89.24C308.457 88.896 308.505 88.576 308.601 88.28C308.697 87.984 308.825 87.724 308.985 87.5L311.817 83.6ZM315.911 91.52C315.911 91.336 315.975 91.18 316.103 91.052C316.239 90.924 316.395 90.86 316.571 90.86C316.755 90.86 316.911 90.924 317.039 91.052C317.167 91.18 317.231 91.336 317.231 91.52C317.231 91.696 317.167 91.852 317.039 91.988C316.911 92.116 316.755 92.18 316.571 92.18C316.395 92.18 316.239 92.116 316.103 91.988C315.975 91.852 315.911 91.696 315.911 91.52ZM315.911 86.96C315.911 86.776 315.975 86.62 316.103 86.492C316.239 86.364 316.395 86.3 316.571 86.3C316.755 86.3 316.911 86.364 317.039 86.492C317.167 86.62 317.231 86.776 317.231 86.96C317.231 87.136 317.167 87.292 317.039 87.428C316.911 87.556 316.755 87.62 316.571 87.62C316.395 87.62 316.239 87.556 316.103 87.428C315.975 87.292 315.911 87.136 315.911 86.96ZM324.657 89.24C324.657 89.72 324.581 90.14 324.429 90.5C324.277 90.86 324.065 91.16 323.793 91.4C323.521 91.64 323.209 91.82 322.857 91.94C322.505 92.06 322.125 92.12 321.717 92.12C321.205 92.12 320.757 92.04 320.373 91.88C319.997 91.72 319.673 91.508 319.401 91.244C319.137 90.972 318.913 90.676 318.729 90.356L319.593 89.768C319.721 90.008 319.889 90.236 320.097 90.452C320.313 90.66 320.561 90.832 320.841 90.968C321.121 91.096 321.413 91.16 321.717 91.16C322.117 91.16 322.457 91.08 322.737 90.92C323.017 90.76 323.229 90.536 323.373 90.248C323.525 89.96 323.601 89.624 323.601 89.24C323.601 88.856 323.517 88.52 323.349 88.232C323.189 87.944 322.965 87.72 322.677 87.56C322.397 87.4 322.077 87.32 321.717 87.32C321.453 87.32 321.209 87.344 320.985 87.392C320.769 87.432 320.549 87.508 320.325 87.62C320.109 87.724 319.857 87.876 319.569 88.076L320.673 83.6H324.633V84.5H321.465L320.901 86.72C321.101 86.616 321.305 86.54 321.513 86.492C321.729 86.436 321.941 86.408 322.149 86.408C322.629 86.408 323.057 86.528 323.433 86.768C323.817 87.008 324.117 87.34 324.333 87.764C324.549 88.188 324.657 88.68 324.657 89.24ZM326.103 85.256V84.2L328.983 83.48V92H327.963V84.704L326.103 85.256Z" fill="black"/>
<path d="M26.8927 37.75C26.8927 37.3 26.9877 36.895 27.1777 36.535C27.3777 36.175 27.6577 35.89 28.0177 35.68C28.3777 35.46 28.7927 35.35 29.2627 35.35C29.7427 35.35 30.1577 35.46 30.5077 35.68C30.8677 35.89 31.1427 36.175 31.3327 36.535C31.5327 36.895 31.6327 37.3 31.6327 37.75C31.6327 38.19 31.5327 38.595 31.3327 38.965C31.1427 39.325 30.8677 39.615 30.5077 39.835C30.1577 40.045 29.7427 40.15 29.2627 40.15C28.7927 40.15 28.3777 40.045 28.0177 39.835C27.6577 39.615 27.3777 39.325 27.1777 38.965C26.9877 38.595 26.8927 38.19 26.8927 37.75ZM27.9577 37.75C27.9577 38 28.0077 38.235 28.1077 38.455C28.2177 38.675 28.3677 38.85 28.5577 38.98C28.7577 39.11 28.9927 39.175 29.2627 39.175C29.5427 39.175 29.7777 39.11 29.9677 38.98C30.1577 38.85 30.3027 38.675 30.4027 38.455C30.5127 38.235 30.5677 38 30.5677 37.75C30.5677 37.49 30.5127 37.255 30.4027 37.045C30.3027 36.825 30.1577 36.65 29.9677 36.52C29.7777 36.39 29.5427 36.325 29.2627 36.325C28.9927 36.325 28.7577 36.39 28.5577 36.52C28.3677 36.65 28.2177 36.825 28.1077 37.045C28.0077 37.255 27.9577 37.49 27.9577 37.75ZM32.3677 43.75C32.3677 43.3 32.4627 42.895 32.6527 42.535C32.8527 42.175 33.1327 41.89 33.4927 41.68C33.8527 41.46 34.2677 41.35 34.7377 41.35C35.2177 41.35 35.6327 41.46 35.9827 41.68C36.3427 41.89 36.6177 42.175 36.8077 42.535C37.0077 42.895 37.1077 43.3 37.1077 43.75C37.1077 44.19 37.0077 44.595 36.8077 44.965C36.6177 45.325 36.3427 45.615 35.9827 45.835C35.6327 46.045 35.2177 46.15 34.7377 46.15C34.2677 46.15 33.8527 46.045 33.4927 45.835C33.1327 45.615 32.8527 45.325 32.6527 44.965C32.4627 44.595 32.3677 44.19 32.3677 43.75ZM33.4327 43.75C33.4327 44 33.4827 44.235 33.5827 44.455C33.6927 44.675 33.8427 44.85 34.0327 44.98C34.2327 45.11 34.4677 45.175 34.7377 45.175C35.0177 45.175 35.2527 45.11 35.4427 44.98C35.6327 44.85 35.7777 44.675 35.8777 44.455C35.9877 44.235 36.0427 44 36.0427 43.75C36.0427 43.49 35.9877 43.255 35.8777 43.045C35.7777 42.825 35.6327 42.65 35.4427 42.52C35.2527 42.39 35.0177 42.325 34.7377 42.325C34.4677 42.325 34.2327 42.39 34.0327 42.52C33.8427 42.65 33.6927 42.825 33.5827 43.045C33.4827 43.255 33.4327 43.49 33.4327 43.75ZM34.8127 35.5H35.9377L29.1877 46H28.0627L34.8127 35.5Z" fill="black"/>
<path d="M0.8175 39.98V38.3H11.1075L4.0725 53H2.2035L8.4405 39.98H0.8175ZM13.8457 45.65C13.8457 46.504 13.9297 47.295 14.0977 48.023C14.2657 48.737 14.5107 49.36 14.8327 49.892C15.1547 50.41 15.5397 50.816 15.9877 51.11C16.4497 51.39 16.9607 51.53 17.5207 51.53C18.0947 51.53 18.6057 51.39 19.0537 51.11C19.5017 50.816 19.8867 50.41 20.2087 49.892C20.5307 49.36 20.7757 48.737 20.9437 48.023C21.1117 47.295 21.1957 46.504 21.1957 45.65C21.1957 44.796 21.1117 44.012 20.9437 43.298C20.7757 42.57 20.5307 41.947 20.2087 41.429C19.8867 40.897 19.5017 40.491 19.0537 40.211C18.6057 39.917 18.0947 39.77 17.5207 39.77C16.9607 39.77 16.4497 39.917 15.9877 40.211C15.5397 40.491 15.1547 40.897 14.8327 41.429C14.5107 41.947 14.2657 42.57 14.0977 43.298C13.9297 44.012 13.8457 44.796 13.8457 45.65ZM12.0607 45.65C12.0607 44.18 12.2917 42.878 12.7537 41.744C13.2157 40.61 13.8527 39.721 14.6647 39.077C15.4907 38.419 16.4427 38.09 17.5207 38.09C18.5987 38.09 19.5437 38.419 20.3557 39.077C21.1817 39.721 21.8257 40.61 22.2877 41.744C22.7497 42.878 22.9807 44.18 22.9807 45.65C22.9807 47.12 22.7497 48.422 22.2877 49.556C21.8257 50.69 21.1817 51.586 20.3557 52.244C19.5437 52.888 18.5987 53.21 17.5207 53.21C16.4427 53.21 15.4907 52.888 14.6647 52.244C13.8527 51.586 13.2157 50.69 12.7537 49.556C12.2917 48.422 12.0607 47.12 12.0607 45.65Z" fill="black"/>
<path d="M13.848 20.75C14.2126 20.75 14.5226 20.6223 14.7781 20.3668C15.0336 20.1112 15.1611 19.8015 15.1605 19.4375C15.1605 19.0729 15.0328 18.7629 14.7773 18.5074C14.5218 18.2519 14.212 18.1244 13.848 18.125C13.4834 18.125 13.1734 18.2527 12.9179 18.5082C12.6624 18.7638 12.5349 19.0735 12.5355 19.4375C12.5355 19.8021 12.6633 20.1121 12.9188 20.3676C13.1743 20.6231 13.484 20.7506 13.848 20.75ZM8.81677 20.0938C8.99177 20.2688 9.19594 20.3562 9.42927 20.3562C9.66261 20.3562 9.86677 20.2688 10.0418 20.0938L14.5043 15.6312C14.6793 15.4562 14.7668 15.2521 14.7668 15.0187C14.7668 14.7854 14.6793 14.5813 14.5043 14.4062C14.3293 14.2312 14.1213 14.1437 13.8804 14.1437C13.6395 14.1437 13.4318 14.2312 13.2574 14.4062L8.81677 18.8469C8.64177 19.0219 8.55427 19.2298 8.55427 19.4707C8.55427 19.7117 8.64177 19.9193 8.81677 20.0938ZM9.47302 16.375C9.83761 16.375 10.1476 16.2473 10.4031 15.9918C10.6586 15.7362 10.7861 15.4265 10.7855 15.0625C10.7855 14.6979 10.6578 14.3879 10.4023 14.1324C10.1468 13.8769 9.83702 13.7494 9.47302 13.75C9.10844 13.75 8.7984 13.8777 8.5429 14.1332C8.2874 14.3887 8.15994 14.6985 8.16052 15.0625C8.16052 15.4271 8.28827 15.7371 8.54377 15.9926C8.79927 16.2481 9.10902 16.3756 9.47302 16.375ZM11.6605 24.25C9.80844 24.25 8.17861 23.6048 6.77102 22.3145C5.36344 21.0242 4.65994 19.2777 4.66052 17.075C4.66052 15.6896 5.18552 14.1875 6.23552 12.5687C7.28552 10.95 8.87511 9.2 11.0043 7.31875C11.0918 7.24583 11.1939 7.1875 11.3105 7.14375C11.4272 7.1 11.5439 7.07812 11.6605 7.07812C11.7772 7.07812 11.8939 7.1 12.0105 7.14375C12.1272 7.1875 12.2293 7.24583 12.3168 7.31875C14.4459 9.2 16.0355 10.95 17.0855 12.5687C18.1355 14.1875 18.6605 15.6896 18.6605 17.075C18.6605 19.2771 17.9567 21.0236 16.5491 22.3145C15.1416 23.6054 13.512 24.2506 11.6605 24.25ZM11.6605 22.5C13.1334 22.5 14.3768 21.9969 15.3906 20.9906C16.4045 19.9844 16.9111 18.6792 16.9105 17.075C16.9105 16.0396 16.4803 14.8545 15.6199 13.5199C14.7595 12.1852 13.4397 10.7015 11.6605 9.06875C9.88136 10.7021 8.56156 12.1861 7.70115 13.5208C6.84073 14.8554 6.41052 16.0402 6.41052 17.075C6.41052 18.6792 6.91744 19.9844 7.93127 20.9906C8.94511 21.9969 10.1882 22.5 11.6605 22.5Z" fill="#4C7B00"/>
<path d="M29.9491 14.86V13.18H40.0291V14.86H29.9491ZM38.8321 7.3H40.6171V22H38.8321V7.3ZM28.9621 7.3H30.7471V22H28.9621V7.3ZM45.5488 18.22C45.5488 18.99 45.7238 19.585 46.0738 20.005C46.4238 20.425 46.9348 20.635 47.6068 20.635C48.0968 20.635 48.5238 20.537 48.8878 20.341C49.2658 20.131 49.5528 19.844 49.7488 19.48C49.9588 19.116 50.0638 18.696 50.0638 18.22V12.34H51.7438V22H50.0638V20.488C49.7418 21.062 49.3428 21.496 48.8668 21.79C48.3908 22.07 47.8308 22.21 47.1868 22.21C46.1788 22.21 45.3738 21.867 44.7718 21.181C44.1698 20.495 43.8688 19.578 43.8688 18.43V12.34H45.5488V18.22ZM68.132 15.91V22H66.452V16.12C66.452 15.294 66.298 14.685 65.99 14.293C65.696 13.901 65.234 13.705 64.604 13.705C64.142 13.705 63.743 13.803 63.407 13.999C63.071 14.181 62.812 14.454 62.63 14.818C62.448 15.182 62.357 15.616 62.357 16.12V22H60.677V16.12C60.677 15.294 60.523 14.685 60.215 14.293C59.921 13.901 59.459 13.705 58.829 13.705C58.367 13.705 57.968 13.803 57.632 13.999C57.296 14.181 57.037 14.454 56.855 14.818C56.673 15.182 56.582 15.616 56.582 16.12V22H54.902V12.34H56.582V13.747C56.876 13.201 57.24 12.795 57.674 12.529C58.122 12.263 58.647 12.13 59.249 12.13C59.921 12.13 60.495 12.291 60.971 12.613C61.461 12.921 61.818 13.362 62.042 13.936C62.378 13.334 62.798 12.886 63.302 12.592C63.806 12.284 64.38 12.13 65.024 12.13C65.682 12.13 66.242 12.277 66.704 12.571C67.166 12.865 67.516 13.299 67.754 13.873C68.006 14.433 68.132 15.112 68.132 15.91ZM71.2878 8.35C71.2878 8.028 71.3998 7.755 71.6238 7.531C71.8618 7.307 72.1348 7.195 72.4428 7.195C72.7648 7.195 73.0378 7.307 73.2618 7.531C73.4858 7.755 73.5978 8.028 73.5978 8.35C73.5978 8.658 73.4858 8.931 73.2618 9.169C73.0378 9.393 72.7648 9.505 72.4428 9.505C72.1348 9.505 71.8618 9.393 71.6238 9.169C71.3998 8.931 71.2878 8.658 71.2878 8.35ZM71.6028 12.34H73.2828V22H71.6028V12.34ZM83.9878 5.62H85.6678V22H83.9878V5.62ZM75.9028 17.17C75.9028 16.12 76.1198 15.224 76.5538 14.482C76.9878 13.726 77.5688 13.145 78.2968 12.739C79.0248 12.333 79.8228 12.13 80.6908 12.13C81.5028 12.13 82.2098 12.333 82.8118 12.739C83.4138 13.145 83.8828 13.726 84.2188 14.482C84.5688 15.224 84.7438 16.12 84.7438 17.17C84.7438 18.206 84.5688 19.102 84.2188 19.858C83.8828 20.614 83.4138 21.195 82.8118 21.601C82.2098 22.007 81.5028 22.21 80.6908 22.21C79.8228 22.21 79.0248 22.007 78.2968 21.601C77.5688 21.195 76.9878 20.614 76.5538 19.858C76.1198 19.102 75.9028 18.206 75.9028 17.17ZM77.6038 17.17C77.6038 17.912 77.7508 18.542 78.0448 19.06C78.3528 19.578 78.7588 19.97 79.2628 20.236C79.7668 20.502 80.3128 20.635 80.9008 20.635C81.3908 20.635 81.8738 20.502 82.3498 20.236C82.8258 19.97 83.2178 19.578 83.5258 19.06C83.8338 18.542 83.9878 17.912 83.9878 17.17C83.9878 16.428 83.8338 15.798 83.5258 15.28C83.2178 14.762 82.8258 14.37 82.3498 14.104C81.8738 13.838 81.3908 13.705 80.9008 13.705C80.3128 13.705 79.7668 13.838 79.2628 14.104C78.7588 14.37 78.3528 14.762 78.0448 15.28C77.7508 15.798 77.6038 16.428 77.6038 17.17ZM89.4754 19.018C89.4754 19.382 89.5594 19.697 89.7274 19.963C89.9094 20.229 90.1544 20.432 90.4624 20.572C90.7844 20.698 91.1484 20.761 91.5544 20.761C92.0724 20.761 92.5344 20.656 92.9404 20.446C93.3604 20.236 93.6894 19.942 93.9274 19.564C94.1794 19.172 94.3054 18.724 94.3054 18.22L94.6414 19.48C94.6414 20.096 94.4524 20.607 94.0744 21.013C93.7104 21.419 93.2554 21.72 92.7094 21.916C92.1774 22.112 91.6454 22.21 91.1134 22.21C90.5254 22.21 89.9724 22.091 89.4544 21.853C88.9504 21.601 88.5444 21.244 88.2364 20.782C87.9284 20.32 87.7744 19.76 87.7744 19.102C87.7744 18.164 88.1034 17.415 88.7614 16.855C89.4334 16.281 90.3644 15.994 91.5544 15.994C92.2544 15.994 92.8354 16.078 93.2974 16.246C93.7734 16.4 94.1514 16.582 94.4314 16.792C94.7114 16.988 94.9004 17.149 94.9984 17.275V18.262C94.5084 17.926 94.0044 17.688 93.4864 17.548C92.9684 17.394 92.4154 17.317 91.8274 17.317C91.2814 17.317 90.8334 17.387 90.4834 17.527C90.1474 17.667 89.8954 17.863 89.7274 18.115C89.5594 18.367 89.4754 18.668 89.4754 19.018ZM89.2234 14.566L88.4044 13.327C88.7684 13.061 89.2654 12.795 89.8954 12.529C90.5394 12.263 91.3094 12.13 92.2054 12.13C92.9614 12.13 93.6194 12.249 94.1794 12.487C94.7534 12.711 95.1944 13.04 95.5024 13.474C95.8244 13.908 95.9854 14.44 95.9854 15.07V22H94.3054V15.301C94.3054 14.965 94.2494 14.692 94.1374 14.482C94.0254 14.258 93.8644 14.083 93.6544 13.957C93.4584 13.831 93.2274 13.74 92.9614 13.684C92.6954 13.628 92.4154 13.6 92.1214 13.6C91.6454 13.6 91.2114 13.656 90.8194 13.768C90.4414 13.88 90.1194 14.013 89.8534 14.167C89.5874 14.321 89.3774 14.454 89.2234 14.566ZM106.075 5.62H107.755V22H106.075V5.62ZM97.9898 17.17C97.9898 16.12 98.2068 15.224 98.6408 14.482C99.0748 13.726 99.6558 13.145 100.384 12.739C101.112 12.333 101.91 12.13 102.778 12.13C103.59 12.13 104.297 12.333 104.899 12.739C105.501 13.145 105.97 13.726 106.306 14.482C106.656 15.224 106.831 16.12 106.831 17.17C106.831 18.206 106.656 19.102 106.306 19.858C105.97 20.614 105.501 21.195 104.899 21.601C104.297 22.007 103.59 22.21 102.778 22.21C101.91 22.21 101.112 22.007 100.384 21.601C99.6558 21.195 99.0748 20.614 98.6408 19.858C98.2068 19.102 97.9898 18.206 97.9898 17.17ZM99.6908 17.17C99.6908 17.912 99.8378 18.542 100.132 19.06C100.44 19.578 100.846 19.97 101.35 20.236C101.854 20.502 102.4 20.635 102.988 20.635C103.478 20.635 103.961 20.502 104.437 20.236C104.913 19.97 105.305 19.578 105.613 19.06C105.921 18.542 106.075 17.912 106.075 17.17C106.075 16.428 105.921 15.798 105.613 15.28C105.305 14.762 104.913 14.37 104.437 14.104C103.961 13.838 103.478 13.705 102.988 13.705C102.4 13.705 101.854 13.838 101.35 14.104C100.846 14.37 100.44 14.762 100.132 15.28C99.8378 15.798 99.6908 16.428 99.6908 17.17ZM114.544 22.21C113.648 22.21 112.85 22 112.15 21.58C111.464 21.146 110.925 20.551 110.533 19.795C110.155 19.039 109.966 18.164 109.966 17.17C109.966 16.162 110.162 15.28 110.554 14.524C110.96 13.768 111.52 13.18 112.234 12.76C112.962 12.34 113.802 12.13 114.754 12.13C115.706 12.13 116.518 12.333 117.19 12.739C117.876 13.131 118.401 13.698 118.765 14.44C119.129 15.182 119.311 16.064 119.311 17.086C119.311 17.184 119.304 17.289 119.29 17.401C119.29 17.499 119.29 17.562 119.29 17.59H111.037V16.162H117.967L117.295 17.128C117.337 17.058 117.379 16.953 117.421 16.813C117.463 16.659 117.484 16.533 117.484 16.435C117.484 15.861 117.365 15.364 117.127 14.944C116.903 14.524 116.588 14.195 116.182 13.957C115.776 13.719 115.3 13.6 114.754 13.6C114.11 13.6 113.557 13.74 113.095 14.02C112.647 14.286 112.297 14.678 112.045 15.196C111.807 15.7 111.681 16.323 111.667 17.065C111.667 17.821 111.786 18.465 112.024 18.997C112.262 19.529 112.612 19.935 113.074 20.215C113.536 20.495 114.096 20.635 114.754 20.635C115.412 20.635 115.993 20.495 116.497 20.215C117.001 19.921 117.428 19.48 117.778 18.892L119.143 19.753C118.639 20.565 118.002 21.181 117.232 21.601C116.476 22.007 115.58 22.21 114.544 22.21Z" fill="#4C7B00"/>
<defs>
<linearGradient id="paint0_linear_40_159" x1="202.5" y1="79" x2="266" y2="79.0001" gradientUnits="userSpaceOnUse">
<stop stop-color="#3DCEEE"/>
<stop offset="1" stop-color="#DF3D3D"/>
</linearGradient>
</defs>
</svg>
