<svg width="316" height="98" viewBox="0 0 316 98" fill="none" xmlns="http://www.w3.org/2000/svg">
<rect x="38" y="82" width="241" height="6" rx="3" fill="black" fill-opacity="0.23"/>
<rect x="164" y="82" width="100" height="6" rx="3" fill="url(#paint0_linear_40_162)"/>
<path d="M195.134 86.5C195.519 85.8333 196.481 85.8333 196.866 86.5L199.464 91C199.849 91.6667 199.368 92.5 198.598 92.5H193.402C192.632 92.5 192.151 91.6667 192.536 91L195.134 86.5Z" fill="black"/>
<path d="M2.39164 77.256V76.2L5.27164 75.48V84H4.25164V76.704L2.39164 77.256ZM9.86998 79.86V79.2C10.142 79.2 10.382 79.164 10.59 79.092C10.798 79.012 10.974 78.908 11.118 78.78C11.262 78.644 11.37 78.488 11.442 78.312C11.522 78.136 11.562 77.948 11.562 77.748C11.562 77.484 11.514 77.252 11.418 77.052C11.322 76.844 11.178 76.684 10.986 76.572C10.802 76.46 10.57 76.404 10.29 76.404C9.89798 76.404 9.56598 76.528 9.29398 76.776C9.02198 77.016 8.88598 77.32 8.88598 77.688H7.91398C7.91398 77.248 8.01398 76.864 8.21398 76.536C8.42198 76.208 8.70198 75.952 9.05398 75.768C9.41398 75.576 9.82198 75.48 10.278 75.48C10.758 75.48 11.17 75.584 11.514 75.792C11.866 76 12.134 76.272 12.318 76.608C12.51 76.944 12.606 77.312 12.606 77.712C12.606 78.104 12.49 78.464 12.258 78.792C12.026 79.12 11.706 79.38 11.298 79.572C10.89 79.764 10.414 79.86 9.86998 79.86ZM10.23 84.12C9.82198 84.12 9.45398 84.06 9.12598 83.94C8.79798 83.82 8.51798 83.656 8.28598 83.448C8.05398 83.232 7.87398 82.984 7.74598 82.704C7.61798 82.416 7.55398 82.108 7.55398 81.78H8.58598C8.58598 82.044 8.65398 82.28 8.78998 82.488C8.93398 82.696 9.12998 82.86 9.37798 82.98C9.62598 83.1 9.90998 83.16 10.23 83.16C10.55 83.16 10.826 83.1 11.058 82.98C11.298 82.852 11.482 82.676 11.61 82.452C11.738 82.228 11.802 81.964 11.802 81.66C11.802 81.404 11.75 81.18 11.646 80.988C11.55 80.788 11.414 80.624 11.238 80.496C11.062 80.36 10.858 80.26 10.626 80.196C10.394 80.132 10.142 80.1 9.86998 80.1V79.44C10.278 79.44 10.658 79.484 11.01 79.572C11.37 79.66 11.686 79.8 11.958 79.992C12.238 80.176 12.454 80.416 12.606 80.712C12.766 81.008 12.846 81.364 12.846 81.78C12.846 82.252 12.73 82.664 12.498 83.016C12.274 83.368 11.966 83.64 11.574 83.832C11.182 84.024 10.734 84.12 10.23 84.12ZM21.8448 80.52V84H20.8848V80.64C20.8848 80.168 20.7968 79.82 20.6208 79.596C20.4528 79.372 20.1888 79.26 19.8288 79.26C19.5648 79.26 19.3368 79.316 19.1448 79.428C18.9528 79.532 18.8048 79.688 18.7008 79.896C18.5968 80.104 18.5448 80.352 18.5448 80.64V84H17.5848V80.64C17.5848 80.168 17.4968 79.82 17.3208 79.596C17.1528 79.372 16.8888 79.26 16.5288 79.26C16.2648 79.26 16.0368 79.316 15.8448 79.428C15.6528 79.532 15.5048 79.688 15.4008 79.896C15.2968 80.104 15.2448 80.352 15.2448 80.64V84H14.2848V78.48H15.2448V79.284C15.4128 78.972 15.6208 78.74 15.8688 78.588C16.1248 78.436 16.4248 78.36 16.7688 78.36C17.1528 78.36 17.4808 78.452 17.7528 78.636C18.0328 78.812 18.2368 79.064 18.3648 79.392C18.5568 79.048 18.7968 78.792 19.0848 78.624C19.3728 78.448 19.7008 78.36 20.0688 78.36C20.4448 78.36 20.7648 78.444 21.0288 78.612C21.2928 78.78 21.4928 79.028 21.6288 79.356C21.7728 79.676 21.8448 80.064 21.8448 80.52ZM27.788 75.6H28.748L23.888 85.8H22.928L27.788 75.6ZM28.8565 82.308C28.9685 82.476 29.0965 82.632 29.2405 82.776C29.3845 82.92 29.5485 83.036 29.7325 83.124C29.9245 83.204 30.1325 83.244 30.3565 83.244C30.6285 83.244 30.8405 83.184 30.9925 83.064C31.1525 82.936 31.2325 82.764 31.2325 82.548C31.2325 82.356 31.1685 82.196 31.0405 82.068C30.9205 81.932 30.7645 81.82 30.5725 81.732C30.3805 81.636 30.1765 81.548 29.9605 81.468C29.7205 81.372 29.4765 81.26 29.2285 81.132C28.9885 80.996 28.7845 80.824 28.6165 80.616C28.4565 80.4 28.3765 80.132 28.3765 79.812C28.3765 79.484 28.4605 79.212 28.6285 78.996C28.8045 78.78 29.0285 78.62 29.3005 78.516C29.5805 78.412 29.8685 78.36 30.1645 78.36C30.4605 78.36 30.7365 78.408 30.9925 78.504C31.2565 78.6 31.4885 78.728 31.6885 78.888C31.8885 79.048 32.0445 79.232 32.1565 79.44L31.3885 79.932C31.2365 79.724 31.0445 79.552 30.8125 79.416C30.5885 79.28 30.3325 79.212 30.0445 79.212C29.8445 79.212 29.6725 79.256 29.5285 79.344C29.3845 79.432 29.3125 79.568 29.3125 79.752C29.3125 79.896 29.3685 80.024 29.4805 80.136C29.5925 80.248 29.7365 80.348 29.9125 80.436C30.0885 80.524 30.2725 80.608 30.4645 80.688C30.7845 80.816 31.0765 80.956 31.3405 81.108C31.6045 81.252 31.8125 81.428 31.9645 81.636C32.1245 81.844 32.2045 82.112 32.2045 82.44C32.2045 82.92 32.0285 83.32 31.6765 83.64C31.3325 83.96 30.8765 84.12 30.3085 84.12C29.9405 84.12 29.6085 84.056 29.3125 83.928C29.0165 83.792 28.7645 83.62 28.5565 83.412C28.3565 83.204 28.2045 82.992 28.1005 82.776L28.8565 82.308ZM3.31156 89.256V88.2L6.19156 87.48V96H5.17156V88.704L3.31156 89.256ZM10.7899 91.86V91.2C11.0619 91.2 11.3019 91.164 11.5099 91.092C11.7179 91.012 11.8939 90.908 12.0379 90.78C12.1819 90.644 12.2899 90.488 12.3619 90.312C12.4419 90.136 12.4819 89.948 12.4819 89.748C12.4819 89.484 12.4339 89.252 12.3379 89.052C12.2419 88.844 12.0979 88.684 11.9059 88.572C11.7219 88.46 11.4899 88.404 11.2099 88.404C10.8179 88.404 10.4859 88.528 10.2139 88.776C9.94191 89.016 9.80591 89.32 9.80591 89.688H8.83391C8.83391 89.248 8.93391 88.864 9.13391 88.536C9.34191 88.208 9.62191 87.952 9.97391 87.768C10.3339 87.576 10.7419 87.48 11.1979 87.48C11.6779 87.48 12.0899 87.584 12.4339 87.792C12.7859 88 13.0539 88.272 13.2379 88.608C13.4299 88.944 13.5259 89.312 13.5259 89.712C13.5259 90.104 13.4099 90.464 13.1779 90.792C12.9459 91.12 12.6259 91.38 12.2179 91.572C11.8099 91.764 11.3339 91.86 10.7899 91.86ZM11.1499 96.12C10.7419 96.12 10.3739 96.06 10.0459 95.94C9.71791 95.82 9.43791 95.656 9.20591 95.448C8.97391 95.232 8.79391 94.984 8.66591 94.704C8.53791 94.416 8.47391 94.108 8.47391 93.78H9.50591C9.50591 94.044 9.57391 94.28 9.70991 94.488C9.85391 94.696 10.0499 94.86 10.2979 94.98C10.5459 95.1 10.8299 95.16 11.1499 95.16C11.4699 95.16 11.7459 95.1 11.9779 94.98C12.2179 94.852 12.4019 94.676 12.5299 94.452C12.6579 94.228 12.7219 93.964 12.7219 93.66C12.7219 93.404 12.6699 93.18 12.5659 92.988C12.4699 92.788 12.3339 92.624 12.1579 92.496C11.9819 92.36 11.7779 92.26 11.5459 92.196C11.3139 92.132 11.0619 92.1 10.7899 92.1V91.44C11.1979 91.44 11.5779 91.484 11.9299 91.572C12.2899 91.66 12.6059 91.8 12.8779 91.992C13.1579 92.176 13.3739 92.416 13.5259 92.712C13.6859 93.008 13.7659 93.364 13.7659 93.78C13.7659 94.252 13.6499 94.664 13.4179 95.016C13.1939 95.368 12.8859 95.64 12.4939 95.832C12.1019 96.024 11.6539 96.12 11.1499 96.12ZM15.4447 95.52C15.4447 95.336 15.5087 95.18 15.6367 95.052C15.7727 94.924 15.9287 94.86 16.1047 94.86C16.2887 94.86 16.4447 94.924 16.5727 95.052C16.7007 95.18 16.7647 95.336 16.7647 95.52C16.7647 95.696 16.7007 95.852 16.5727 95.988C16.4447 96.116 16.2887 96.18 16.1047 96.18C15.9287 96.18 15.7727 96.116 15.6367 95.988C15.5087 95.852 15.4447 95.696 15.4447 95.52ZM15.4447 90.96C15.4447 90.776 15.5087 90.62 15.6367 90.492C15.7727 90.364 15.9287 90.3 16.1047 90.3C16.2887 90.3 16.4447 90.364 16.5727 90.492C16.7007 90.62 16.7647 90.776 16.7647 90.96C16.7647 91.136 16.7007 91.292 16.5727 91.428C16.4447 91.556 16.2887 91.62 16.1047 91.62C15.9287 91.62 15.7727 91.556 15.6367 91.428C15.5087 91.292 15.4447 91.136 15.4447 90.96ZM20.9383 91.86V91.2C21.2103 91.2 21.4503 91.164 21.6583 91.092C21.8663 91.012 22.0423 90.908 22.1863 90.78C22.3303 90.644 22.4383 90.488 22.5103 90.312C22.5903 90.136 22.6303 89.948 22.6303 89.748C22.6303 89.484 22.5823 89.252 22.4863 89.052C22.3903 88.844 22.2463 88.684 22.0543 88.572C21.8703 88.46 21.6383 88.404 21.3583 88.404C20.9663 88.404 20.6343 88.528 20.3623 88.776C20.0903 89.016 19.9543 89.32 19.9543 89.688H18.9823C18.9823 89.248 19.0823 88.864 19.2823 88.536C19.4903 88.208 19.7703 87.952 20.1223 87.768C20.4823 87.576 20.8903 87.48 21.3463 87.48C21.8263 87.48 22.2383 87.584 22.5823 87.792C22.9343 88 23.2023 88.272 23.3863 88.608C23.5783 88.944 23.6743 89.312 23.6743 89.712C23.6743 90.104 23.5583 90.464 23.3263 90.792C23.0943 91.12 22.7743 91.38 22.3663 91.572C21.9583 91.764 21.4823 91.86 20.9383 91.86ZM21.2983 96.12C20.8903 96.12 20.5223 96.06 20.1943 95.94C19.8663 95.82 19.5863 95.656 19.3543 95.448C19.1223 95.232 18.9423 94.984 18.8143 94.704C18.6863 94.416 18.6223 94.108 18.6223 93.78H19.6543C19.6543 94.044 19.7223 94.28 19.8583 94.488C20.0023 94.696 20.1983 94.86 20.4463 94.98C20.6943 95.1 20.9783 95.16 21.2983 95.16C21.6183 95.16 21.8943 95.1 22.1263 94.98C22.3663 94.852 22.5503 94.676 22.6783 94.452C22.8063 94.228 22.8703 93.964 22.8703 93.66C22.8703 93.404 22.8183 93.18 22.7143 92.988C22.6183 92.788 22.4823 92.624 22.3063 92.496C22.1303 92.36 21.9263 92.26 21.6943 92.196C21.4623 92.132 21.2103 92.1 20.9383 92.1V91.44C21.3463 91.44 21.7263 91.484 22.0783 91.572C22.4383 91.66 22.7543 91.8 23.0263 91.992C23.3063 92.176 23.5223 92.416 23.6743 92.712C23.8343 93.008 23.9143 93.364 23.9143 93.78C23.9143 94.252 23.7983 94.664 23.5663 95.016C23.3423 95.368 23.0343 95.64 22.6423 95.832C22.2503 96.024 21.8023 96.12 21.2983 96.12ZM25.9531 91.8C25.9531 92.288 26.0011 92.74 26.0971 93.156C26.1931 93.564 26.3331 93.92 26.5171 94.224C26.7011 94.52 26.9211 94.752 27.1771 94.92C27.4411 95.08 27.7331 95.16 28.0531 95.16C28.3811 95.16 28.6731 95.08 28.9291 94.92C29.1851 94.752 29.4051 94.52 29.5891 94.224C29.7731 93.92 29.9131 93.564 30.0091 93.156C30.1051 92.74 30.1531 92.288 30.1531 91.8C30.1531 91.312 30.1051 90.864 30.0091 90.456C29.9131 90.04 29.7731 89.684 29.5891 89.388C29.4051 89.084 29.1851 88.852 28.9291 88.692C28.6731 88.524 28.3811 88.44 28.0531 88.44C27.7331 88.44 27.4411 88.524 27.1771 88.692C26.9211 88.852 26.7011 89.084 26.5171 89.388C26.3331 89.684 26.1931 90.04 26.0971 90.456C26.0011 90.864 25.9531 91.312 25.9531 91.8ZM24.9331 91.8C24.9331 90.96 25.0651 90.216 25.3291 89.568C25.5931 88.92 25.9571 88.412 26.4211 88.044C26.8931 87.668 27.4371 87.48 28.0531 87.48C28.6691 87.48 29.2091 87.668 29.6731 88.044C30.1451 88.412 30.5131 88.92 30.7771 89.568C31.0411 90.216 31.1731 90.96 31.1731 91.8C31.1731 92.64 31.0411 93.384 30.7771 94.032C30.5131 94.68 30.1451 95.192 29.6731 95.568C29.2091 95.936 28.6691 96.12 28.0531 96.12C27.4371 96.12 26.8931 95.936 26.4211 95.568C25.9571 95.192 25.5931 94.68 25.3291 94.032C25.0651 93.384 24.9331 92.64 24.9331 91.8Z" fill="black"/>
<path d="M287.468 79.86V79.2C287.74 79.2 287.98 79.164 288.188 79.092C288.396 79.012 288.572 78.908 288.716 78.78C288.86 78.644 288.968 78.488 289.04 78.312C289.12 78.136 289.16 77.948 289.16 77.748C289.16 77.484 289.112 77.252 289.016 77.052C288.92 76.844 288.776 76.684 288.584 76.572C288.4 76.46 288.168 76.404 287.888 76.404C287.496 76.404 287.164 76.528 286.892 76.776C286.62 77.016 286.484 77.32 286.484 77.688H285.512C285.512 77.248 285.612 76.864 285.812 76.536C286.02 76.208 286.3 75.952 286.652 75.768C287.012 75.576 287.42 75.48 287.876 75.48C288.356 75.48 288.768 75.584 289.112 75.792C289.464 76 289.732 76.272 289.916 76.608C290.108 76.944 290.204 77.312 290.204 77.712C290.204 78.104 290.088 78.464 289.856 78.792C289.624 79.12 289.304 79.38 288.896 79.572C288.488 79.764 288.012 79.86 287.468 79.86ZM287.828 84.12C287.42 84.12 287.052 84.06 286.724 83.94C286.396 83.82 286.116 83.656 285.884 83.448C285.652 83.232 285.472 82.984 285.344 82.704C285.216 82.416 285.152 82.108 285.152 81.78H286.184C286.184 82.044 286.252 82.28 286.388 82.488C286.532 82.696 286.728 82.86 286.976 82.98C287.224 83.1 287.508 83.16 287.828 83.16C288.148 83.16 288.424 83.1 288.656 82.98C288.896 82.852 289.08 82.676 289.208 82.452C289.336 82.228 289.4 81.964 289.4 81.66C289.4 81.404 289.348 81.18 289.244 80.988C289.148 80.788 289.012 80.624 288.836 80.496C288.66 80.36 288.456 80.26 288.224 80.196C287.992 80.132 287.74 80.1 287.468 80.1V79.44C287.876 79.44 288.256 79.484 288.608 79.572C288.968 79.66 289.284 79.8 289.556 79.992C289.836 80.176 290.052 80.416 290.204 80.712C290.364 81.008 290.444 81.364 290.444 81.78C290.444 82.252 290.328 82.664 290.096 83.016C289.872 83.368 289.564 83.64 289.172 83.832C288.78 84.024 288.332 84.12 287.828 84.12ZM291.942 77.256V76.2L294.822 75.48V84H293.802V76.704L291.942 77.256ZM304.845 80.52V84H303.885V80.64C303.885 80.168 303.797 79.82 303.621 79.596C303.453 79.372 303.189 79.26 302.829 79.26C302.565 79.26 302.337 79.316 302.145 79.428C301.953 79.532 301.805 79.688 301.701 79.896C301.597 80.104 301.545 80.352 301.545 80.64V84H300.585V80.64C300.585 80.168 300.497 79.82 300.321 79.596C300.153 79.372 299.889 79.26 299.529 79.26C299.265 79.26 299.037 79.316 298.845 79.428C298.653 79.532 298.505 79.688 298.401 79.896C298.297 80.104 298.245 80.352 298.245 80.64V84H297.285V78.48H298.245V79.284C298.413 78.972 298.621 78.74 298.869 78.588C299.125 78.436 299.425 78.36 299.769 78.36C300.153 78.36 300.481 78.452 300.753 78.636C301.033 78.812 301.237 79.064 301.365 79.392C301.557 79.048 301.797 78.792 302.085 78.624C302.373 78.448 302.701 78.36 303.069 78.36C303.445 78.36 303.765 78.444 304.029 78.612C304.293 78.78 304.493 79.028 304.629 79.356C304.773 79.676 304.845 80.064 304.845 80.52ZM310.788 75.6H311.748L306.888 85.8H305.928L310.788 75.6ZM311.857 82.308C311.969 82.476 312.097 82.632 312.241 82.776C312.385 82.92 312.549 83.036 312.733 83.124C312.925 83.204 313.133 83.244 313.357 83.244C313.629 83.244 313.841 83.184 313.993 83.064C314.153 82.936 314.233 82.764 314.233 82.548C314.233 82.356 314.169 82.196 314.041 82.068C313.921 81.932 313.765 81.82 313.573 81.732C313.381 81.636 313.177 81.548 312.961 81.468C312.721 81.372 312.477 81.26 312.229 81.132C311.989 80.996 311.785 80.824 311.617 80.616C311.457 80.4 311.377 80.132 311.377 79.812C311.377 79.484 311.461 79.212 311.629 78.996C311.805 78.78 312.029 78.62 312.301 78.516C312.581 78.412 312.869 78.36 313.165 78.36C313.461 78.36 313.737 78.408 313.993 78.504C314.257 78.6 314.489 78.728 314.689 78.888C314.889 79.048 315.045 79.232 315.157 79.44L314.389 79.932C314.237 79.724 314.045 79.552 313.813 79.416C313.589 79.28 313.333 79.212 313.045 79.212C312.845 79.212 312.673 79.256 312.529 79.344C312.385 79.432 312.313 79.568 312.313 79.752C312.313 79.896 312.369 80.024 312.481 80.136C312.593 80.248 312.737 80.348 312.913 80.436C313.089 80.524 313.273 80.608 313.465 80.688C313.785 80.816 314.077 80.956 314.341 81.108C314.605 81.252 314.813 81.428 314.965 81.636C315.125 81.844 315.205 82.112 315.205 82.44C315.205 82.92 315.029 83.32 314.677 83.64C314.333 83.96 313.877 84.12 313.309 84.12C312.941 84.12 312.609 84.056 312.313 83.928C312.017 83.792 311.765 83.62 311.557 83.412C311.357 83.204 311.205 82.992 311.101 82.776L311.857 82.308ZM286.464 89.256V88.2L289.344 87.48V96H288.324V88.704L286.464 89.256ZM291.266 88.56V87.6H297.146L293.126 96H292.058L295.622 88.56H291.266ZM298.351 95.52C298.351 95.336 298.415 95.18 298.543 95.052C298.679 94.924 298.835 94.86 299.011 94.86C299.195 94.86 299.351 94.924 299.479 95.052C299.607 95.18 299.671 95.336 299.671 95.52C299.671 95.696 299.607 95.852 299.479 95.988C299.351 96.116 299.195 96.18 299.011 96.18C298.835 96.18 298.679 96.116 298.543 95.988C298.415 95.852 298.351 95.696 298.351 95.52ZM298.351 90.96C298.351 90.776 298.415 90.62 298.543 90.492C298.679 90.364 298.835 90.3 299.011 90.3C299.195 90.3 299.351 90.364 299.479 90.492C299.607 90.62 299.671 90.776 299.671 90.96C299.671 91.136 299.607 91.292 299.479 91.428C299.351 91.556 299.195 91.62 299.011 91.62C298.835 91.62 298.679 91.556 298.543 91.428C298.415 91.292 298.351 91.136 298.351 90.96ZM307.097 93.24C307.097 93.72 307.021 94.14 306.869 94.5C306.717 94.86 306.505 95.16 306.233 95.4C305.961 95.64 305.649 95.82 305.297 95.94C304.945 96.06 304.565 96.12 304.157 96.12C303.645 96.12 303.197 96.04 302.813 95.88C302.437 95.72 302.113 95.508 301.841 95.244C301.577 94.972 301.353 94.676 301.169 94.356L302.033 93.768C302.161 94.008 302.329 94.236 302.537 94.452C302.753 94.66 303.001 94.832 303.281 94.968C303.561 95.096 303.853 95.16 304.157 95.16C304.557 95.16 304.897 95.08 305.177 94.92C305.457 94.76 305.669 94.536 305.813 94.248C305.965 93.96 306.041 93.624 306.041 93.24C306.041 92.856 305.957 92.52 305.789 92.232C305.629 91.944 305.405 91.72 305.117 91.56C304.837 91.4 304.517 91.32 304.157 91.32C303.893 91.32 303.649 91.344 303.425 91.392C303.209 91.432 302.989 91.508 302.765 91.62C302.549 91.724 302.297 91.876 302.009 92.076L303.113 87.6H307.073V88.5H303.905L303.341 90.72C303.541 90.616 303.745 90.54 303.953 90.492C304.169 90.436 304.381 90.408 304.589 90.408C305.069 90.408 305.497 90.528 305.873 90.768C306.257 91.008 306.557 91.34 306.773 91.764C306.989 92.188 307.097 92.68 307.097 93.24ZM312.922 90.36C312.922 89.976 312.838 89.64 312.67 89.352C312.51 89.056 312.286 88.824 311.998 88.656C311.718 88.488 311.398 88.404 311.038 88.404C310.678 88.404 310.354 88.488 310.066 88.656C309.786 88.824 309.562 89.056 309.394 89.352C309.234 89.64 309.154 89.976 309.154 90.36C309.154 90.744 309.234 91.084 309.394 91.38C309.562 91.676 309.786 91.912 310.066 92.088C310.354 92.256 310.678 92.34 311.038 92.34C311.398 92.34 311.718 92.256 311.998 92.088C312.286 91.912 312.51 91.676 312.67 91.38C312.838 91.084 312.922 90.744 312.922 90.36ZM310.534 96H309.25L311.878 92.532L311.95 92.592C311.79 92.792 311.602 92.924 311.386 92.988C311.178 93.052 310.938 93.084 310.666 93.084C310.322 93.084 309.998 93.016 309.694 92.88C309.398 92.744 309.134 92.552 308.902 92.304C308.678 92.056 308.502 91.768 308.374 91.44C308.246 91.104 308.182 90.744 308.182 90.36C308.182 89.784 308.306 89.28 308.554 88.848C308.81 88.416 309.154 88.08 309.586 87.84C310.018 87.6 310.502 87.48 311.038 87.48C311.582 87.48 312.066 87.6 312.49 87.84C312.922 88.08 313.262 88.416 313.51 88.848C313.766 89.28 313.894 89.784 313.894 90.36C313.894 90.704 313.846 91.024 313.75 91.32C313.654 91.616 313.526 91.876 313.366 92.1L310.534 96Z" fill="black"/>
<path d="M2.39164 77.256V76.2L5.27164 75.48V84H4.25164V76.704L2.39164 77.256ZM9.86998 79.86V79.2C10.142 79.2 10.382 79.164 10.59 79.092C10.798 79.012 10.974 78.908 11.118 78.78C11.262 78.644 11.37 78.488 11.442 78.312C11.522 78.136 11.562 77.948 11.562 77.748C11.562 77.484 11.514 77.252 11.418 77.052C11.322 76.844 11.178 76.684 10.986 76.572C10.802 76.46 10.57 76.404 10.29 76.404C9.89798 76.404 9.56598 76.528 9.29398 76.776C9.02198 77.016 8.88598 77.32 8.88598 77.688H7.91398C7.91398 77.248 8.01398 76.864 8.21398 76.536C8.42198 76.208 8.70198 75.952 9.05398 75.768C9.41398 75.576 9.82198 75.48 10.278 75.48C10.758 75.48 11.17 75.584 11.514 75.792C11.866 76 12.134 76.272 12.318 76.608C12.51 76.944 12.606 77.312 12.606 77.712C12.606 78.104 12.49 78.464 12.258 78.792C12.026 79.12 11.706 79.38 11.298 79.572C10.89 79.764 10.414 79.86 9.86998 79.86ZM10.23 84.12C9.82198 84.12 9.45398 84.06 9.12598 83.94C8.79798 83.82 8.51798 83.656 8.28598 83.448C8.05398 83.232 7.87398 82.984 7.74598 82.704C7.61798 82.416 7.55398 82.108 7.55398 81.78H8.58598C8.58598 82.044 8.65398 82.28 8.78998 82.488C8.93398 82.696 9.12998 82.86 9.37798 82.98C9.62598 83.1 9.90998 83.16 10.23 83.16C10.55 83.16 10.826 83.1 11.058 82.98C11.298 82.852 11.482 82.676 11.61 82.452C11.738 82.228 11.802 81.964 11.802 81.66C11.802 81.404 11.75 81.18 11.646 80.988C11.55 80.788 11.414 80.624 11.238 80.496C11.062 80.36 10.858 80.26 10.626 80.196C10.394 80.132 10.142 80.1 9.86998 80.1V79.44C10.278 79.44 10.658 79.484 11.01 79.572C11.37 79.66 11.686 79.8 11.958 79.992C12.238 80.176 12.454 80.416 12.606 80.712C12.766 81.008 12.846 81.364 12.846 81.78C12.846 82.252 12.73 82.664 12.498 83.016C12.274 83.368 11.966 83.64 11.574 83.832C11.182 84.024 10.734 84.12 10.23 84.12ZM21.8448 80.52V84H20.8848V80.64C20.8848 80.168 20.7968 79.82 20.6208 79.596C20.4528 79.372 20.1888 79.26 19.8288 79.26C19.5648 79.26 19.3368 79.316 19.1448 79.428C18.9528 79.532 18.8048 79.688 18.7008 79.896C18.5968 80.104 18.5448 80.352 18.5448 80.64V84H17.5848V80.64C17.5848 80.168 17.4968 79.82 17.3208 79.596C17.1528 79.372 16.8888 79.26 16.5288 79.26C16.2648 79.26 16.0368 79.316 15.8448 79.428C15.6528 79.532 15.5048 79.688 15.4008 79.896C15.2968 80.104 15.2448 80.352 15.2448 80.64V84H14.2848V78.48H15.2448V79.284C15.4128 78.972 15.6208 78.74 15.8688 78.588C16.1248 78.436 16.4248 78.36 16.7688 78.36C17.1528 78.36 17.4808 78.452 17.7528 78.636C18.0328 78.812 18.2368 79.064 18.3648 79.392C18.5568 79.048 18.7968 78.792 19.0848 78.624C19.3728 78.448 19.7008 78.36 20.0688 78.36C20.4448 78.36 20.7648 78.444 21.0288 78.612C21.2928 78.78 21.4928 79.028 21.6288 79.356C21.7728 79.676 21.8448 80.064 21.8448 80.52ZM27.788 75.6H28.748L23.888 85.8H22.928L27.788 75.6ZM28.8565 82.308C28.9685 82.476 29.0965 82.632 29.2405 82.776C29.3845 82.92 29.5485 83.036 29.7325 83.124C29.9245 83.204 30.1325 83.244 30.3565 83.244C30.6285 83.244 30.8405 83.184 30.9925 83.064C31.1525 82.936 31.2325 82.764 31.2325 82.548C31.2325 82.356 31.1685 82.196 31.0405 82.068C30.9205 81.932 30.7645 81.82 30.5725 81.732C30.3805 81.636 30.1765 81.548 29.9605 81.468C29.7205 81.372 29.4765 81.26 29.2285 81.132C28.9885 80.996 28.7845 80.824 28.6165 80.616C28.4565 80.4 28.3765 80.132 28.3765 79.812C28.3765 79.484 28.4605 79.212 28.6285 78.996C28.8045 78.78 29.0285 78.62 29.3005 78.516C29.5805 78.412 29.8685 78.36 30.1645 78.36C30.4605 78.36 30.7365 78.408 30.9925 78.504C31.2565 78.6 31.4885 78.728 31.6885 78.888C31.8885 79.048 32.0445 79.232 32.1565 79.44L31.3885 79.932C31.2365 79.724 31.0445 79.552 30.8125 79.416C30.5885 79.28 30.3325 79.212 30.0445 79.212C29.8445 79.212 29.6725 79.256 29.5285 79.344C29.3845 79.432 29.3125 79.568 29.3125 79.752C29.3125 79.896 29.3685 80.024 29.4805 80.136C29.5925 80.248 29.7365 80.348 29.9125 80.436C30.0885 80.524 30.2725 80.608 30.4645 80.688C30.7845 80.816 31.0765 80.956 31.3405 81.108C31.6045 81.252 31.8125 81.428 31.9645 81.636C32.1245 81.844 32.2045 82.112 32.2045 82.44C32.2045 82.92 32.0285 83.32 31.6765 83.64C31.3325 83.96 30.8765 84.12 30.3085 84.12C29.9405 84.12 29.6085 84.056 29.3125 83.928C29.0165 83.792 28.7645 83.62 28.5565 83.412C28.3565 83.204 28.2045 82.992 28.1005 82.776L28.8565 82.308ZM3.31156 89.256V88.2L6.19156 87.48V96H5.17156V88.704L3.31156 89.256ZM10.7899 91.86V91.2C11.0619 91.2 11.3019 91.164 11.5099 91.092C11.7179 91.012 11.8939 90.908 12.0379 90.78C12.1819 90.644 12.2899 90.488 12.3619 90.312C12.4419 90.136 12.4819 89.948 12.4819 89.748C12.4819 89.484 12.4339 89.252 12.3379 89.052C12.2419 88.844 12.0979 88.684 11.9059 88.572C11.7219 88.46 11.4899 88.404 11.2099 88.404C10.8179 88.404 10.4859 88.528 10.2139 88.776C9.94191 89.016 9.80591 89.32 9.80591 89.688H8.83391C8.83391 89.248 8.93391 88.864 9.13391 88.536C9.34191 88.208 9.62191 87.952 9.97391 87.768C10.3339 87.576 10.7419 87.48 11.1979 87.48C11.6779 87.48 12.0899 87.584 12.4339 87.792C12.7859 88 13.0539 88.272 13.2379 88.608C13.4299 88.944 13.5259 89.312 13.5259 89.712C13.5259 90.104 13.4099 90.464 13.1779 90.792C12.9459 91.12 12.6259 91.38 12.2179 91.572C11.8099 91.764 11.3339 91.86 10.7899 91.86ZM11.1499 96.12C10.7419 96.12 10.3739 96.06 10.0459 95.94C9.71791 95.82 9.43791 95.656 9.20591 95.448C8.97391 95.232 8.79391 94.984 8.66591 94.704C8.53791 94.416 8.47391 94.108 8.47391 93.78H9.50591C9.50591 94.044 9.57391 94.28 9.70991 94.488C9.85391 94.696 10.0499 94.86 10.2979 94.98C10.5459 95.1 10.8299 95.16 11.1499 95.16C11.4699 95.16 11.7459 95.1 11.9779 94.98C12.2179 94.852 12.4019 94.676 12.5299 94.452C12.6579 94.228 12.7219 93.964 12.7219 93.66C12.7219 93.404 12.6699 93.18 12.5659 92.988C12.4699 92.788 12.3339 92.624 12.1579 92.496C11.9819 92.36 11.7779 92.26 11.5459 92.196C11.3139 92.132 11.0619 92.1 10.7899 92.1V91.44C11.1979 91.44 11.5779 91.484 11.9299 91.572C12.2899 91.66 12.6059 91.8 12.8779 91.992C13.1579 92.176 13.3739 92.416 13.5259 92.712C13.6859 93.008 13.7659 93.364 13.7659 93.78C13.7659 94.252 13.6499 94.664 13.4179 95.016C13.1939 95.368 12.8859 95.64 12.4939 95.832C12.1019 96.024 11.6539 96.12 11.1499 96.12ZM15.4447 95.52C15.4447 95.336 15.5087 95.18 15.6367 95.052C15.7727 94.924 15.9287 94.86 16.1047 94.86C16.2887 94.86 16.4447 94.924 16.5727 95.052C16.7007 95.18 16.7647 95.336 16.7647 95.52C16.7647 95.696 16.7007 95.852 16.5727 95.988C16.4447 96.116 16.2887 96.18 16.1047 96.18C15.9287 96.18 15.7727 96.116 15.6367 95.988C15.5087 95.852 15.4447 95.696 15.4447 95.52ZM15.4447 90.96C15.4447 90.776 15.5087 90.62 15.6367 90.492C15.7727 90.364 15.9287 90.3 16.1047 90.3C16.2887 90.3 16.4447 90.364 16.5727 90.492C16.7007 90.62 16.7647 90.776 16.7647 90.96C16.7647 91.136 16.7007 91.292 16.5727 91.428C16.4447 91.556 16.2887 91.62 16.1047 91.62C15.9287 91.62 15.7727 91.556 15.6367 91.428C15.5087 91.292 15.4447 91.136 15.4447 90.96ZM20.9383 91.86V91.2C21.2103 91.2 21.4503 91.164 21.6583 91.092C21.8663 91.012 22.0423 90.908 22.1863 90.78C22.3303 90.644 22.4383 90.488 22.5103 90.312C22.5903 90.136 22.6303 89.948 22.6303 89.748C22.6303 89.484 22.5823 89.252 22.4863 89.052C22.3903 88.844 22.2463 88.684 22.0543 88.572C21.8703 88.46 21.6383 88.404 21.3583 88.404C20.9663 88.404 20.6343 88.528 20.3623 88.776C20.0903 89.016 19.9543 89.32 19.9543 89.688H18.9823C18.9823 89.248 19.0823 88.864 19.2823 88.536C19.4903 88.208 19.7703 87.952 20.1223 87.768C20.4823 87.576 20.8903 87.48 21.3463 87.48C21.8263 87.48 22.2383 87.584 22.5823 87.792C22.9343 88 23.2023 88.272 23.3863 88.608C23.5783 88.944 23.6743 89.312 23.6743 89.712C23.6743 90.104 23.5583 90.464 23.3263 90.792C23.0943 91.12 22.7743 91.38 22.3663 91.572C21.9583 91.764 21.4823 91.86 20.9383 91.86ZM21.2983 96.12C20.8903 96.12 20.5223 96.06 20.1943 95.94C19.8663 95.82 19.5863 95.656 19.3543 95.448C19.1223 95.232 18.9423 94.984 18.8143 94.704C18.6863 94.416 18.6223 94.108 18.6223 93.78H19.6543C19.6543 94.044 19.7223 94.28 19.8583 94.488C20.0023 94.696 20.1983 94.86 20.4463 94.98C20.6943 95.1 20.9783 95.16 21.2983 95.16C21.6183 95.16 21.8943 95.1 22.1263 94.98C22.3663 94.852 22.5503 94.676 22.6783 94.452C22.8063 94.228 22.8703 93.964 22.8703 93.66C22.8703 93.404 22.8183 93.18 22.7143 92.988C22.6183 92.788 22.4823 92.624 22.3063 92.496C22.1303 92.36 21.9263 92.26 21.6943 92.196C21.4623 92.132 21.2103 92.1 20.9383 92.1V91.44C21.3463 91.44 21.7263 91.484 22.0783 91.572C22.4383 91.66 22.7543 91.8 23.0263 91.992C23.3063 92.176 23.5223 92.416 23.6743 92.712C23.8343 93.008 23.9143 93.364 23.9143 93.78C23.9143 94.252 23.7983 94.664 23.5663 95.016C23.3423 95.368 23.0343 95.64 22.6423 95.832C22.2503 96.024 21.8023 96.12 21.2983 96.12ZM25.9531 91.8C25.9531 92.288 26.0011 92.74 26.0971 93.156C26.1931 93.564 26.3331 93.92 26.5171 94.224C26.7011 94.52 26.9211 94.752 27.1771 94.92C27.4411 95.08 27.7331 95.16 28.0531 95.16C28.3811 95.16 28.6731 95.08 28.9291 94.92C29.1851 94.752 29.4051 94.52 29.5891 94.224C29.7731 93.92 29.9131 93.564 30.0091 93.156C30.1051 92.74 30.1531 92.288 30.1531 91.8C30.1531 91.312 30.1051 90.864 30.0091 90.456C29.9131 90.04 29.7731 89.684 29.5891 89.388C29.4051 89.084 29.1851 88.852 28.9291 88.692C28.6731 88.524 28.3811 88.44 28.0531 88.44C27.7331 88.44 27.4411 88.524 27.1771 88.692C26.9211 88.852 26.7011 89.084 26.5171 89.388C26.3331 89.684 26.1931 90.04 26.0971 90.456C26.0011 90.864 25.9531 91.312 25.9531 91.8ZM24.9331 91.8C24.9331 90.96 25.0651 90.216 25.3291 89.568C25.5931 88.92 25.9571 88.412 26.4211 88.044C26.8931 87.668 27.4371 87.48 28.0531 87.48C28.6691 87.48 29.2091 87.668 29.6731 88.044C30.1451 88.412 30.5131 88.92 30.7771 89.568C31.0411 90.216 31.1731 90.96 31.1731 91.8C31.1731 92.64 31.0411 93.384 30.7771 94.032C30.5131 94.68 30.1451 95.192 29.6731 95.568C29.2091 95.936 28.6691 96.12 28.0531 96.12C27.4371 96.12 26.8931 95.936 26.4211 95.568C25.9571 95.192 25.5931 94.68 25.3291 94.032C25.0651 93.384 24.9331 92.64 24.9331 91.8Z" fill="black"/>
<path d="M287.468 79.86V79.2C287.74 79.2 287.98 79.164 288.188 79.092C288.396 79.012 288.572 78.908 288.716 78.78C288.86 78.644 288.968 78.488 289.04 78.312C289.12 78.136 289.16 77.948 289.16 77.748C289.16 77.484 289.112 77.252 289.016 77.052C288.92 76.844 288.776 76.684 288.584 76.572C288.4 76.46 288.168 76.404 287.888 76.404C287.496 76.404 287.164 76.528 286.892 76.776C286.62 77.016 286.484 77.32 286.484 77.688H285.512C285.512 77.248 285.612 76.864 285.812 76.536C286.02 76.208 286.3 75.952 286.652 75.768C287.012 75.576 287.42 75.48 287.876 75.48C288.356 75.48 288.768 75.584 289.112 75.792C289.464 76 289.732 76.272 289.916 76.608C290.108 76.944 290.204 77.312 290.204 77.712C290.204 78.104 290.088 78.464 289.856 78.792C289.624 79.12 289.304 79.38 288.896 79.572C288.488 79.764 288.012 79.86 287.468 79.86ZM287.828 84.12C287.42 84.12 287.052 84.06 286.724 83.94C286.396 83.82 286.116 83.656 285.884 83.448C285.652 83.232 285.472 82.984 285.344 82.704C285.216 82.416 285.152 82.108 285.152 81.78H286.184C286.184 82.044 286.252 82.28 286.388 82.488C286.532 82.696 286.728 82.86 286.976 82.98C287.224 83.1 287.508 83.16 287.828 83.16C288.148 83.16 288.424 83.1 288.656 82.98C288.896 82.852 289.08 82.676 289.208 82.452C289.336 82.228 289.4 81.964 289.4 81.66C289.4 81.404 289.348 81.18 289.244 80.988C289.148 80.788 289.012 80.624 288.836 80.496C288.66 80.36 288.456 80.26 288.224 80.196C287.992 80.132 287.74 80.1 287.468 80.1V79.44C287.876 79.44 288.256 79.484 288.608 79.572C288.968 79.66 289.284 79.8 289.556 79.992C289.836 80.176 290.052 80.416 290.204 80.712C290.364 81.008 290.444 81.364 290.444 81.78C290.444 82.252 290.328 82.664 290.096 83.016C289.872 83.368 289.564 83.64 289.172 83.832C288.78 84.024 288.332 84.12 287.828 84.12ZM291.942 77.256V76.2L294.822 75.48V84H293.802V76.704L291.942 77.256ZM304.845 80.52V84H303.885V80.64C303.885 80.168 303.797 79.82 303.621 79.596C303.453 79.372 303.189 79.26 302.829 79.26C302.565 79.26 302.337 79.316 302.145 79.428C301.953 79.532 301.805 79.688 301.701 79.896C301.597 80.104 301.545 80.352 301.545 80.64V84H300.585V80.64C300.585 80.168 300.497 79.82 300.321 79.596C300.153 79.372 299.889 79.26 299.529 79.26C299.265 79.26 299.037 79.316 298.845 79.428C298.653 79.532 298.505 79.688 298.401 79.896C298.297 80.104 298.245 80.352 298.245 80.64V84H297.285V78.48H298.245V79.284C298.413 78.972 298.621 78.74 298.869 78.588C299.125 78.436 299.425 78.36 299.769 78.36C300.153 78.36 300.481 78.452 300.753 78.636C301.033 78.812 301.237 79.064 301.365 79.392C301.557 79.048 301.797 78.792 302.085 78.624C302.373 78.448 302.701 78.36 303.069 78.36C303.445 78.36 303.765 78.444 304.029 78.612C304.293 78.78 304.493 79.028 304.629 79.356C304.773 79.676 304.845 80.064 304.845 80.52ZM310.788 75.6H311.748L306.888 85.8H305.928L310.788 75.6ZM311.857 82.308C311.969 82.476 312.097 82.632 312.241 82.776C312.385 82.92 312.549 83.036 312.733 83.124C312.925 83.204 313.133 83.244 313.357 83.244C313.629 83.244 313.841 83.184 313.993 83.064C314.153 82.936 314.233 82.764 314.233 82.548C314.233 82.356 314.169 82.196 314.041 82.068C313.921 81.932 313.765 81.82 313.573 81.732C313.381 81.636 313.177 81.548 312.961 81.468C312.721 81.372 312.477 81.26 312.229 81.132C311.989 80.996 311.785 80.824 311.617 80.616C311.457 80.4 311.377 80.132 311.377 79.812C311.377 79.484 311.461 79.212 311.629 78.996C311.805 78.78 312.029 78.62 312.301 78.516C312.581 78.412 312.869 78.36 313.165 78.36C313.461 78.36 313.737 78.408 313.993 78.504C314.257 78.6 314.489 78.728 314.689 78.888C314.889 79.048 315.045 79.232 315.157 79.44L314.389 79.932C314.237 79.724 314.045 79.552 313.813 79.416C313.589 79.28 313.333 79.212 313.045 79.212C312.845 79.212 312.673 79.256 312.529 79.344C312.385 79.432 312.313 79.568 312.313 79.752C312.313 79.896 312.369 80.024 312.481 80.136C312.593 80.248 312.737 80.348 312.913 80.436C313.089 80.524 313.273 80.608 313.465 80.688C313.785 80.816 314.077 80.956 314.341 81.108C314.605 81.252 314.813 81.428 314.965 81.636C315.125 81.844 315.205 82.112 315.205 82.44C315.205 82.92 315.029 83.32 314.677 83.64C314.333 83.96 313.877 84.12 313.309 84.12C312.941 84.12 312.609 84.056 312.313 83.928C312.017 83.792 311.765 83.62 311.557 83.412C311.357 83.204 311.205 82.992 311.101 82.776L311.857 82.308ZM286.464 89.256V88.2L289.344 87.48V96H288.324V88.704L286.464 89.256ZM291.266 88.56V87.6H297.146L293.126 96H292.058L295.622 88.56H291.266ZM298.351 95.52C298.351 95.336 298.415 95.18 298.543 95.052C298.679 94.924 298.835 94.86 299.011 94.86C299.195 94.86 299.351 94.924 299.479 95.052C299.607 95.18 299.671 95.336 299.671 95.52C299.671 95.696 299.607 95.852 299.479 95.988C299.351 96.116 299.195 96.18 299.011 96.18C298.835 96.18 298.679 96.116 298.543 95.988C298.415 95.852 298.351 95.696 298.351 95.52ZM298.351 90.96C298.351 90.776 298.415 90.62 298.543 90.492C298.679 90.364 298.835 90.3 299.011 90.3C299.195 90.3 299.351 90.364 299.479 90.492C299.607 90.62 299.671 90.776 299.671 90.96C299.671 91.136 299.607 91.292 299.479 91.428C299.351 91.556 299.195 91.62 299.011 91.62C298.835 91.62 298.679 91.556 298.543 91.428C298.415 91.292 298.351 91.136 298.351 90.96ZM307.097 93.24C307.097 93.72 307.021 94.14 306.869 94.5C306.717 94.86 306.505 95.16 306.233 95.4C305.961 95.64 305.649 95.82 305.297 95.94C304.945 96.06 304.565 96.12 304.157 96.12C303.645 96.12 303.197 96.04 302.813 95.88C302.437 95.72 302.113 95.508 301.841 95.244C301.577 94.972 301.353 94.676 301.169 94.356L302.033 93.768C302.161 94.008 302.329 94.236 302.537 94.452C302.753 94.66 303.001 94.832 303.281 94.968C303.561 95.096 303.853 95.16 304.157 95.16C304.557 95.16 304.897 95.08 305.177 94.92C305.457 94.76 305.669 94.536 305.813 94.248C305.965 93.96 306.041 93.624 306.041 93.24C306.041 92.856 305.957 92.52 305.789 92.232C305.629 91.944 305.405 91.72 305.117 91.56C304.837 91.4 304.517 91.32 304.157 91.32C303.893 91.32 303.649 91.344 303.425 91.392C303.209 91.432 302.989 91.508 302.765 91.62C302.549 91.724 302.297 91.876 302.009 92.076L303.113 87.6H307.073V88.5H303.905L303.341 90.72C303.541 90.616 303.745 90.54 303.953 90.492C304.169 90.436 304.381 90.408 304.589 90.408C305.069 90.408 305.497 90.528 305.873 90.768C306.257 91.008 306.557 91.34 306.773 91.764C306.989 92.188 307.097 92.68 307.097 93.24ZM312.922 90.36C312.922 89.976 312.838 89.64 312.67 89.352C312.51 89.056 312.286 88.824 311.998 88.656C311.718 88.488 311.398 88.404 311.038 88.404C310.678 88.404 310.354 88.488 310.066 88.656C309.786 88.824 309.562 89.056 309.394 89.352C309.234 89.64 309.154 89.976 309.154 90.36C309.154 90.744 309.234 91.084 309.394 91.38C309.562 91.676 309.786 91.912 310.066 92.088C310.354 92.256 310.678 92.34 311.038 92.34C311.398 92.34 311.718 92.256 311.998 92.088C312.286 91.912 312.51 91.676 312.67 91.38C312.838 91.084 312.922 90.744 312.922 90.36ZM310.534 96H309.25L311.878 92.532L311.95 92.592C311.79 92.792 311.602 92.924 311.386 92.988C311.178 93.052 310.938 93.084 310.666 93.084C310.322 93.084 309.998 93.016 309.694 92.88C309.398 92.744 309.134 92.552 308.902 92.304C308.678 92.056 308.502 91.768 308.374 91.44C308.246 91.104 308.182 90.744 308.182 90.36C308.182 89.784 308.306 89.28 308.554 88.848C308.81 88.416 309.154 88.08 309.586 87.84C310.018 87.6 310.502 87.48 311.038 87.48C311.582 87.48 312.066 87.6 312.49 87.84C312.922 88.08 313.262 88.416 313.51 88.848C313.766 89.28 313.894 89.784 313.894 90.36C313.894 90.704 313.846 91.024 313.75 91.32C313.654 91.616 313.526 91.876 313.366 92.1L310.534 96Z" fill="black"/>
<path d="M38.5853 47.65V52H37.3853V47.8C37.3853 47.21 37.2753 46.775 37.0553 46.495C36.8453 46.215 36.5153 46.075 36.0653 46.075C35.7353 46.075 35.4503 46.145 35.2103 46.285C34.9703 46.415 34.7853 46.61 34.6553 46.87C34.5253 47.13 34.4603 47.44 34.4603 47.8V52H33.2603V47.8C33.2603 47.21 33.1503 46.775 32.9303 46.495C32.7203 46.215 32.3903 46.075 31.9403 46.075C31.6103 46.075 31.3253 46.145 31.0853 46.285C30.8453 46.415 30.6603 46.61 30.5303 46.87C30.4003 47.13 30.3353 47.44 30.3353 47.8V52H29.1353V45.1H30.3353V46.105C30.5453 45.715 30.8053 45.425 31.1153 45.235C31.4353 45.045 31.8103 44.95 32.2403 44.95C32.7203 44.95 33.1303 45.065 33.4703 45.295C33.8203 45.515 34.0753 45.83 34.2353 46.24C34.4753 45.81 34.7753 45.49 35.1353 45.28C35.4953 45.06 35.9053 44.95 36.3653 44.95C36.8353 44.95 37.2353 45.055 37.5653 45.265C37.8953 45.475 38.1453 45.785 38.3153 46.195C38.4953 46.595 38.5853 47.08 38.5853 47.65ZM46.0144 41.5H47.2144L41.1394 54.25H39.9394L46.0144 41.5ZM47.3499 49.885C47.4899 50.095 47.6499 50.29 47.8299 50.47C48.0099 50.65 48.2149 50.795 48.4449 50.905C48.6849 51.005 48.9449 51.055 49.2249 51.055C49.5649 51.055 49.8299 50.98 50.0199 50.83C50.2199 50.67 50.3199 50.455 50.3199 50.185C50.3199 49.945 50.2399 49.745 50.0799 49.585C49.9299 49.415 49.7349 49.275 49.4949 49.165C49.2549 49.045 48.9999 48.935 48.7299 48.835C48.4299 48.715 48.1249 48.575 47.8149 48.415C47.5149 48.245 47.2599 48.03 47.0499 47.77C46.8499 47.5 46.7499 47.165 46.7499 46.765C46.7499 46.355 46.8549 46.015 47.0649 45.745C47.2849 45.475 47.5649 45.275 47.9049 45.145C48.2549 45.015 48.6149 44.95 48.9849 44.95C49.3549 44.95 49.6999 45.01 50.0199 45.13C50.3499 45.25 50.6399 45.41 50.8899 45.61C51.1399 45.81 51.3349 46.04 51.4749 46.3L50.5149 46.915C50.3249 46.655 50.0849 46.44 49.7949 46.27C49.5149 46.1 49.1949 46.015 48.8349 46.015C48.5849 46.015 48.3699 46.07 48.1899 46.18C48.0099 46.29 47.9199 46.46 47.9199 46.69C47.9199 46.87 47.9899 47.03 48.1299 47.17C48.2699 47.31 48.4499 47.435 48.6699 47.545C48.8899 47.655 49.1199 47.76 49.3599 47.86C49.7599 48.02 50.1249 48.195 50.4549 48.385C50.7849 48.565 51.0449 48.785 51.2349 49.045C51.4349 49.305 51.5349 49.64 51.5349 50.05C51.5349 50.65 51.3149 51.15 50.8749 51.55C50.4449 51.95 49.8749 52.15 49.1649 52.15C48.7049 52.15 48.2899 52.07 47.9199 51.91C47.5499 51.74 47.2349 51.525 46.9749 51.265C46.7249 51.005 46.5349 50.74 46.4049 50.47L47.3499 49.885Z" fill="black"/>
<path d="M3.71492 59L10.6659 51.587C10.9879 51.237 11.2609 50.894 11.4849 50.558C11.7229 50.208 11.8979 49.858 12.0099 49.508C12.1359 49.144 12.1989 48.766 12.1989 48.374C12.1989 48.052 12.1359 47.737 12.0099 47.429C11.8839 47.121 11.6949 46.841 11.4429 46.589C11.2049 46.337 10.9109 46.134 10.5609 45.98C10.2109 45.826 9.81192 45.749 9.36392 45.749C8.73392 45.749 8.18792 45.896 7.72592 46.19C7.27792 46.47 6.93492 46.883 6.69692 47.429C6.45892 47.961 6.33992 48.598 6.33992 49.34H4.55492C4.55492 48.29 4.74392 47.373 5.12192 46.589C5.49992 45.791 6.04592 45.175 6.75992 44.741C7.48792 44.293 8.35592 44.069 9.36392 44.069C10.1759 44.069 10.8759 44.209 11.4639 44.489C12.0519 44.755 12.5349 45.105 12.9129 45.539C13.2909 45.959 13.5709 46.414 13.7529 46.904C13.9349 47.394 14.0259 47.863 14.0259 48.311C14.0259 49.067 13.8439 49.816 13.4799 50.558C13.1159 51.3 12.6469 51.965 12.0729 52.553L7.38992 57.32H14.0889V59H3.71492ZM16.931 47.198V45.35L21.971 44.09V59H20.186V46.232L16.931 47.198Z" fill="black"/>
<path fill-rule="evenodd" clip-rule="evenodd" d="M5.03552 8.84375C5.03552 8.28131 5.20231 7.7315 5.51478 7.26385C5.82726 6.7962 6.27139 6.43171 6.79102 6.21647C7.31064 6.00123 7.88243 5.94492 8.43406 6.05464C8.98569 6.16437 9.4924 6.43521 9.89011 6.83292C10.2878 7.23062 10.5587 7.73733 10.6684 8.28896C10.7781 8.8406 10.7218 9.41238 10.5066 9.93201C10.2913 10.4516 9.92683 10.8958 9.45918 11.2082C8.99152 11.5207 8.44171 11.6875 7.87927 11.6875H2.19177C2.01772 11.6875 1.8508 11.6184 1.72773 11.4953C1.60466 11.3722 1.53552 11.2053 1.53552 11.0313C1.53552 10.8572 1.60466 10.6903 1.72773 10.5672C1.8508 10.4441 2.01772 10.375 2.19177 10.375H7.87927C8.18213 10.375 8.47818 10.2852 8.72999 10.1169C8.9818 9.94868 9.17807 9.70953 9.29396 9.42974C9.40986 9.14994 9.44018 8.84205 9.3811 8.54502C9.32202 8.24799 9.17618 7.97514 8.96203 7.76099C8.74788 7.54684 8.47504 7.40101 8.178 7.34192C7.88097 7.28284 7.57309 7.31316 7.29329 7.42906C7.01349 7.54496 6.77434 7.74122 6.60608 7.99303C6.43783 8.24485 6.34802 8.5409 6.34802 8.84375V9.15613C6.34802 9.33017 6.27888 9.49709 6.15581 9.62017C6.03274 9.74324 5.86582 9.81238 5.69177 9.81238C5.51772 9.81238 5.3508 9.74324 5.22773 9.62017C5.10466 9.49709 5.03552 9.33017 5.03552 9.15613V8.84375ZM12.0355 10.5938C12.0355 9.85825 12.2536 9.13927 12.6622 8.52772C13.0709 7.91618 13.6517 7.43954 14.3312 7.15807C15.0107 6.87661 15.7584 6.80297 16.4798 6.94646C17.2011 7.08994 17.8637 7.44412 18.3838 7.9642C18.9039 8.48427 19.2581 9.14689 19.4016 9.86826C19.5451 10.5896 19.4714 11.3373 19.19 12.0169C18.9085 12.6964 18.4318 13.2772 17.8203 13.6858C17.2088 14.0944 16.4898 14.3125 15.7543 14.3125H1.31677C1.14272 14.3125 0.975804 14.2434 0.852734 14.1203C0.729663 13.9972 0.660522 13.8303 0.660522 13.6563C0.660522 13.4822 0.729663 13.3153 0.852734 13.1922C0.975804 13.0691 1.14272 13 1.31677 13H15.7543C16.2302 13 16.6954 12.8589 17.0911 12.5945C17.4868 12.3301 17.7952 11.9543 17.9774 11.5146C18.1595 11.0749 18.2071 10.5911 18.1143 10.1243C18.0214 9.65755 17.7923 9.2288 17.4557 8.89228C17.1192 8.55576 16.6905 8.32658 16.2237 8.23374C15.7569 8.14089 15.2731 8.18854 14.8334 8.37067C14.3938 8.55279 14.018 8.8612 13.7535 9.25691C13.4891 9.65262 13.348 10.1178 13.348 10.5938V11.0313C13.348 11.2053 13.2789 11.3722 13.1558 11.4953C13.0327 11.6184 12.8658 11.6875 12.6918 11.6875C12.5177 11.6875 12.3508 11.6184 12.2277 11.4953C12.1047 11.3722 12.0355 11.2053 12.0355 11.0313V10.5938ZM2.41052 16.2813C2.41052 16.1072 2.47966 15.9403 2.60273 15.8172C2.7258 15.6941 2.89272 15.625 3.06677 15.625H15.7543C16.4898 15.625 17.2088 15.8431 17.8203 16.2517C18.4318 16.6603 18.9085 17.2411 19.19 17.9206C19.4714 18.6002 19.5451 19.3479 19.4016 20.0692C19.2581 20.7906 18.9039 21.4532 18.3838 21.9733C17.8637 22.4934 17.2011 22.8476 16.4798 22.991C15.7584 23.1345 15.0107 23.0609 14.3312 22.7794C13.6517 22.498 13.0709 22.0213 12.6622 21.4098C12.2536 20.7982 12.0355 20.0793 12.0355 19.3438V18.9063C12.0355 18.7322 12.1047 18.5653 12.2277 18.4422C12.3508 18.3191 12.5177 18.25 12.6918 18.25C12.8658 18.25 13.0327 18.3191 13.1558 18.4422C13.2789 18.5653 13.348 18.7322 13.348 18.9063V19.3438C13.348 19.8197 13.4891 20.2849 13.7535 20.6806C14.018 21.0763 14.3938 21.3847 14.8334 21.5668C15.2731 21.749 15.7569 21.7966 16.2237 21.7038C16.6905 21.6109 17.1192 21.3817 17.4557 21.0452C17.7923 20.7087 18.0214 20.28 18.1143 19.8132C18.2071 19.3464 18.1595 18.8626 17.9774 18.4229C17.7952 17.9832 17.4868 17.6074 17.0911 17.343C16.6954 17.0786 16.2302 16.9375 15.7543 16.9375H3.06677C2.89272 16.9375 2.7258 16.8684 2.60273 16.7453C2.47966 16.6222 2.41052 16.4553 2.41052 16.2813Z" fill="#4C7B00"/>
<path d="M37.3249 18.682L42.1549 7.3H44.1499L37.3249 22.735L30.4999 7.3H32.4949L37.3249 18.682ZM47.8895 22.21C46.9935 22.21 46.1955 22 45.4955 21.58C44.8095 21.146 44.2705 20.551 43.8785 19.795C43.5005 19.039 43.3115 18.164 43.3115 17.17C43.3115 16.162 43.5075 15.28 43.8995 14.524C44.3055 13.768 44.8655 13.18 45.5795 12.76C46.3075 12.34 47.1475 12.13 48.0995 12.13C49.0515 12.13 49.8635 12.333 50.5355 12.739C51.2215 13.131 51.7465 13.698 52.1105 14.44C52.4745 15.182 52.6565 16.064 52.6565 17.086C52.6565 17.184 52.6495 17.289 52.6355 17.401C52.6355 17.499 52.6355 17.562 52.6355 17.59H44.3825V16.162H51.3125L50.6405 17.128C50.6825 17.058 50.7245 16.953 50.7665 16.813C50.8085 16.659 50.8295 16.533 50.8295 16.435C50.8295 15.861 50.7105 15.364 50.4725 14.944C50.2485 14.524 49.9335 14.195 49.5275 13.957C49.1215 13.719 48.6455 13.6 48.0995 13.6C47.4555 13.6 46.9025 13.74 46.4405 14.02C45.9925 14.286 45.6425 14.678 45.3905 15.196C45.1525 15.7 45.0265 16.323 45.0125 17.065C45.0125 17.821 45.1315 18.465 45.3695 18.997C45.6075 19.529 45.9575 19.935 46.4195 20.215C46.8815 20.495 47.4415 20.635 48.0995 20.635C48.7575 20.635 49.3385 20.495 49.8425 20.215C50.3465 19.921 50.7735 19.48 51.1235 18.892L52.4885 19.753C51.9845 20.565 51.3475 21.181 50.5775 21.601C49.8215 22.007 48.9255 22.21 47.8895 22.21ZM61.1542 16.12C61.1542 15.322 60.9792 14.72 60.6292 14.314C60.2792 13.908 59.7682 13.705 59.0962 13.705C58.6062 13.705 58.1722 13.81 57.7942 14.02C57.4302 14.216 57.1432 14.496 56.9332 14.86C56.7372 15.224 56.6392 15.644 56.6392 16.12V22H54.9592V12.34H56.6392V13.852C56.9612 13.264 57.3602 12.83 57.8362 12.55C58.3262 12.27 58.8862 12.13 59.5162 12.13C60.5382 12.13 61.3432 12.473 61.9312 13.159C62.5332 13.831 62.8342 14.748 62.8342 15.91V22H61.1542V16.12ZM64.5224 12.34H69.3524V13.915H64.5224V12.34ZM66.0974 8.98H67.7774V22H66.0974V8.98ZM70.1973 17.17C70.1973 16.19 70.4143 15.322 70.8483 14.566C71.2963 13.81 71.8983 13.215 72.6543 12.781C73.4103 12.347 74.2573 12.13 75.1953 12.13C76.1473 12.13 76.9943 12.347 77.7363 12.781C78.4923 13.215 79.0873 13.81 79.5213 14.566C79.9693 15.322 80.1933 16.19 80.1933 17.17C80.1933 18.136 79.9693 19.004 79.5213 19.774C79.0873 20.53 78.4923 21.125 77.7363 21.559C76.9943 21.993 76.1473 22.21 75.1953 22.21C74.2573 22.21 73.4103 21.993 72.6543 21.559C71.8983 21.125 71.2963 20.53 70.8483 19.774C70.4143 19.004 70.1973 18.136 70.1973 17.17ZM71.8983 17.17C71.8983 17.842 72.0383 18.437 72.3183 18.955C72.6123 19.473 73.0043 19.886 73.4943 20.194C73.9983 20.488 74.5653 20.635 75.1953 20.635C75.8253 20.635 76.3853 20.488 76.8753 20.194C77.3793 19.886 77.7713 19.473 78.0513 18.955C78.3453 18.437 78.4923 17.842 78.4923 17.17C78.4923 16.498 78.3453 15.903 78.0513 15.385C77.7713 14.853 77.3793 14.44 76.8753 14.146C76.3853 13.852 75.8253 13.705 75.1953 13.705C74.5653 13.705 73.9983 13.852 73.4943 14.146C73.0043 14.44 72.6123 14.853 72.3183 15.385C72.0383 15.903 71.8983 16.498 71.8983 17.17Z" fill="#4C7B00"/>
<defs>
<linearGradient id="paint0_linear_40_162" x1="165" y1="86.0001" x2="239" y2="86.0001" gradientUnits="userSpaceOnUse">
<stop stop-color="#00D1FF"/>
<stop offset="1" stop-color="#DF3D3D"/>
</linearGradient>
</defs>
</svg>
