<svg width="331" height="100" viewBox="0 0 331 100" fill="none" xmlns="http://www.w3.org/2000/svg">
<path d="M14.0824 19.4375H4.23862C3.18626 19.4308 2.17351 19.0354 1.39507 18.3272C0.616644 17.619 0.127483 16.648 0.0216388 15.601C-0.0842054 14.5539 0.200739 13.5047 0.821687 12.6551C1.44264 11.8054 2.35576 11.2153 3.38549 10.9981C3.6688 9.67677 4.39666 8.49254 5.44763 7.64302C6.4986 6.7935 7.80911 6.33008 9.16049 6.33008C10.5119 6.33008 11.8224 6.7935 12.8733 7.64302C13.9243 8.49254 14.6522 9.67677 14.9355 10.9981C15.9652 11.2153 16.8783 11.8054 17.4993 12.6551C18.1202 13.5047 18.4052 14.5539 18.2993 15.601C18.1935 16.648 17.7043 17.619 16.9259 18.3272C16.1475 19.0354 15.1347 19.4308 14.0824 19.4375ZM9.16049 7.62499C8.04068 7.62611 6.95984 8.03622 6.12115 8.77823C5.28246 9.52024 4.74369 10.543 4.60612 11.6544L4.56674 12.2187H4.00237C3.21915 12.2501 2.48045 12.5912 1.94879 13.1672C1.41712 13.7432 1.13604 14.5068 1.16737 15.29C1.19869 16.0732 1.53987 16.8119 2.11584 17.3436C2.69181 17.8752 3.4554 18.1563 4.23862 18.125H14.0824C14.8656 18.1563 15.6292 17.8752 16.2051 17.3436C16.7811 16.8119 17.1223 16.0732 17.1536 15.29C17.1849 14.5068 16.9039 13.7432 16.3722 13.1672C15.8405 12.5912 15.1018 12.2501 14.3186 12.2187H13.7542L13.6886 11.6806C13.5575 10.569 13.0251 9.5435 12.1913 8.79672C11.3575 8.04994 10.2798 7.63328 9.16049 7.62499ZM7.84799 24.6875C7.74504 24.6887 7.64345 24.6639 7.55268 24.6153C7.39811 24.5366 7.28098 24.4 7.22687 24.2352C7.17277 24.0704 7.18609 23.8909 7.26393 23.7359L8.57643 21.1109C8.61112 21.0276 8.66262 20.9524 8.72771 20.8899C8.7928 20.8274 8.87009 20.7789 8.95473 20.7477C9.03938 20.7164 9.12957 20.7029 9.21967 20.708C9.30976 20.7132 9.39783 20.7368 9.47836 20.7776C9.5589 20.8183 9.63017 20.8752 9.68772 20.9447C9.74527 21.0142 9.78787 21.0948 9.81285 21.1815C9.83784 21.2683 9.84466 21.3592 9.83291 21.4487C9.82116 21.5381 9.79108 21.6242 9.74455 21.7016L8.43205 24.3266C8.37752 24.4348 8.29408 24.5258 8.19099 24.5895C8.0879 24.6532 7.96918 24.6871 7.84799 24.6875ZM11.7855 24.6875C11.6825 24.6887 11.581 24.6639 11.4902 24.6153C11.3356 24.5366 11.2185 24.4 11.1644 24.2352C11.1103 24.0704 11.1236 23.8909 11.2014 23.7359L12.5139 21.1109C12.5486 21.0276 12.6001 20.9524 12.6652 20.8899C12.7303 20.8274 12.8076 20.7789 12.8922 20.7477C12.9769 20.7164 13.0671 20.7029 13.1572 20.708C13.2473 20.7132 13.3353 20.7368 13.4159 20.7776C13.4964 20.8183 13.5677 20.8752 13.6252 20.9447C13.6828 21.0142 13.7254 21.0948 13.7504 21.1815C13.7753 21.2683 13.7822 21.3592 13.7704 21.4487C13.7587 21.5381 13.7286 21.6242 13.6821 21.7016L12.3696 24.3266C12.315 24.4348 12.2316 24.5258 12.1285 24.5895C12.0254 24.6532 11.9067 24.6871 11.7855 24.6875ZM3.91049 24.6875C3.80754 24.6887 3.70595 24.6639 3.61518 24.6153C3.46061 24.5366 3.34348 24.4 3.28937 24.2352C3.23527 24.0704 3.24859 23.8909 3.32643 23.7359L4.63893 21.1109C4.67362 21.0276 4.72512 20.9524 4.79021 20.8899C4.8553 20.8274 4.93259 20.7789 5.01723 20.7477C5.10188 20.7164 5.19207 20.7029 5.28217 20.708C5.37226 20.7132 5.46033 20.7368 5.54086 20.7776C5.6214 20.8183 5.69267 20.8752 5.75022 20.9447C5.80777 21.0142 5.85037 21.0948 5.87535 21.1815C5.90034 21.2683 5.90716 21.3592 5.89541 21.4487C5.88366 21.5381 5.85358 21.6242 5.80705 21.7016L4.49455 24.3266C4.44002 24.4348 4.35658 24.5258 4.25349 24.5895C4.1504 24.6532 4.03168 24.6871 3.91049 24.6875Z" fill="#4C7B00"/>
<path d="M29.5666 7.3H31.3516V22H29.5666V7.3ZM30.5536 8.98V7.3H33.5566C34.5086 7.3 35.3556 7.482 36.0976 7.846C36.8536 8.196 37.4486 8.7 37.8826 9.358C38.3306 10.016 38.5546 10.8 38.5546 11.71C38.5546 12.606 38.3306 13.39 37.8826 14.062C37.4486 14.72 36.8536 15.231 36.0976 15.595C35.3556 15.945 34.5086 16.12 33.5566 16.12H30.5536V14.44H33.5566C34.5086 14.44 35.2786 14.209 35.8666 13.747C36.4686 13.285 36.7696 12.606 36.7696 11.71C36.7696 10.8 36.4686 10.121 35.8666 9.673C35.2786 9.211 34.5086 8.98 33.5566 8.98H30.5536ZM42.2363 12.34V22H40.5563V12.34H42.2363ZM45.1553 14.188C44.9313 14.02 44.7283 13.901 44.5463 13.831C44.3643 13.747 44.1333 13.705 43.8533 13.705C43.4333 13.705 43.1043 13.81 42.8663 14.02C42.6283 14.23 42.4603 14.517 42.3623 14.881C42.2783 15.245 42.2363 15.658 42.2363 16.12H41.4803C41.4803 15.35 41.6133 14.671 41.8793 14.083C42.1593 13.481 42.5163 13.005 42.9503 12.655C43.3843 12.305 43.8253 12.13 44.2733 12.13C44.6233 12.13 44.9453 12.179 45.2393 12.277C45.5473 12.361 45.8273 12.536 46.0793 12.802L45.1553 14.188ZM51.1849 22.21C50.2889 22.21 49.4909 22 48.7909 21.58C48.1049 21.146 47.5659 20.551 47.1739 19.795C46.7959 19.039 46.6069 18.164 46.6069 17.17C46.6069 16.162 46.8029 15.28 47.1949 14.524C47.6009 13.768 48.1609 13.18 48.8749 12.76C49.6029 12.34 50.4429 12.13 51.3949 12.13C52.3469 12.13 53.1589 12.333 53.8309 12.739C54.5169 13.131 55.0419 13.698 55.4059 14.44C55.7699 15.182 55.9519 16.064 55.9519 17.086C55.9519 17.184 55.9449 17.289 55.9309 17.401C55.9309 17.499 55.9309 17.562 55.9309 17.59H47.6779V16.162H54.6079L53.9359 17.128C53.9779 17.058 54.0199 16.953 54.0619 16.813C54.1039 16.659 54.1249 16.533 54.1249 16.435C54.1249 15.861 54.0059 15.364 53.7679 14.944C53.5439 14.524 53.2289 14.195 52.8229 13.957C52.4169 13.719 51.9409 13.6 51.3949 13.6C50.7509 13.6 50.1979 13.74 49.7359 14.02C49.2879 14.286 48.9379 14.678 48.6859 15.196C48.4479 15.7 48.3219 16.323 48.3079 17.065C48.3079 17.821 48.4269 18.465 48.6649 18.997C48.9029 19.529 49.2529 19.935 49.7149 20.215C50.1769 20.495 50.7369 20.635 51.3949 20.635C52.0529 20.635 52.6339 20.495 53.1379 20.215C53.6419 19.921 54.0689 19.48 54.4189 18.892L55.7839 19.753C55.2799 20.565 54.6429 21.181 53.8729 21.601C53.1169 22.007 52.2209 22.21 51.1849 22.21ZM59.0106 17.17C59.0106 17.842 59.1506 18.437 59.4306 18.955C59.7246 19.473 60.1166 19.886 60.6066 20.194C61.1106 20.488 61.6776 20.635 62.3076 20.635C62.8256 20.635 63.3086 20.558 63.7566 20.404C64.2186 20.236 64.6176 20.019 64.9536 19.753C65.2896 19.473 65.5276 19.179 65.6676 18.871V20.971C65.3316 21.363 64.8486 21.671 64.2186 21.895C63.6026 22.105 62.9656 22.21 62.3076 22.21C61.3696 22.21 60.5226 21.993 59.7666 21.559C59.0106 21.125 58.4086 20.53 57.9606 19.774C57.5266 19.004 57.3096 18.136 57.3096 17.17C57.3096 16.19 57.5266 15.322 57.9606 14.566C58.4086 13.81 59.0106 13.215 59.7666 12.781C60.5226 12.347 61.3696 12.13 62.3076 12.13C62.9656 12.13 63.6026 12.242 64.2186 12.466C64.8486 12.676 65.3316 12.977 65.6676 13.369V15.469C65.5276 15.147 65.2896 14.853 64.9536 14.587C64.6176 14.321 64.2186 14.111 63.7566 13.957C63.3086 13.789 62.8256 13.705 62.3076 13.705C61.6776 13.705 61.1106 13.852 60.6066 14.146C60.1166 14.44 59.7246 14.853 59.4306 15.385C59.1506 15.903 59.0106 16.498 59.0106 17.17ZM68.2829 8.35C68.2829 8.028 68.3949 7.755 68.6189 7.531C68.8569 7.307 69.1299 7.195 69.4379 7.195C69.7599 7.195 70.0329 7.307 70.2569 7.531C70.4809 7.755 70.5929 8.028 70.5929 8.35C70.5929 8.658 70.4809 8.931 70.2569 9.169C70.0329 9.393 69.7599 9.505 69.4379 9.505C69.1299 9.505 68.8569 9.393 68.6189 9.169C68.3949 8.931 68.2829 8.658 68.2829 8.35ZM68.5979 12.34H70.2779V22H68.5979V12.34ZM75.313 26.62H73.633V12.34H75.313V26.62ZM83.398 17.17C83.398 18.206 83.181 19.102 82.747 19.858C82.313 20.614 81.732 21.195 81.004 21.601C80.29 22.007 79.492 22.21 78.61 22.21C77.812 22.21 77.105 22.007 76.489 21.601C75.887 21.195 75.411 20.614 75.061 19.858C74.725 19.102 74.557 18.206 74.557 17.17C74.557 16.12 74.725 15.224 75.061 14.482C75.411 13.726 75.887 13.145 76.489 12.739C77.105 12.333 77.812 12.13 78.61 12.13C79.492 12.13 80.29 12.333 81.004 12.739C81.732 13.145 82.313 13.726 82.747 14.482C83.181 15.224 83.398 16.12 83.398 17.17ZM81.697 17.17C81.697 16.428 81.543 15.798 81.235 15.28C80.941 14.762 80.542 14.37 80.038 14.104C79.548 13.838 79.002 13.705 78.4 13.705C77.91 13.705 77.427 13.838 76.951 14.104C76.475 14.37 76.083 14.762 75.775 15.28C75.467 15.798 75.313 16.428 75.313 17.17C75.313 17.912 75.467 18.542 75.775 19.06C76.083 19.578 76.475 19.97 76.951 20.236C77.427 20.502 77.91 20.635 78.4 20.635C79.002 20.635 79.548 20.502 80.038 20.236C80.542 19.97 80.941 19.578 81.235 19.06C81.543 18.542 81.697 17.912 81.697 17.17ZM85.7145 8.35C85.7145 8.028 85.8265 7.755 86.0505 7.531C86.2885 7.307 86.5615 7.195 86.8695 7.195C87.1915 7.195 87.4645 7.307 87.6885 7.531C87.9125 7.755 88.0245 8.028 88.0245 8.35C88.0245 8.658 87.9125 8.931 87.6885 9.169C87.4645 9.393 87.1915 9.505 86.8695 9.505C86.5615 9.505 86.2885 9.393 86.0505 9.169C85.8265 8.931 85.7145 8.658 85.7145 8.35ZM86.0295 12.34H87.7095V22H86.0295V12.34ZM89.6996 12.34H94.5296V13.915H89.6996V12.34ZM91.2746 8.98H92.9546V22H91.2746V8.98ZM96.9705 19.018C96.9705 19.382 97.0545 19.697 97.2225 19.963C97.4045 20.229 97.6495 20.432 97.9575 20.572C98.2795 20.698 98.6435 20.761 99.0495 20.761C99.5675 20.761 100.03 20.656 100.436 20.446C100.856 20.236 101.185 19.942 101.423 19.564C101.675 19.172 101.801 18.724 101.801 18.22L102.137 19.48C102.137 20.096 101.948 20.607 101.57 21.013C101.206 21.419 100.751 21.72 100.205 21.916C99.6725 22.112 99.1405 22.21 98.6085 22.21C98.0205 22.21 97.4675 22.091 96.9495 21.853C96.4455 21.601 96.0395 21.244 95.7315 20.782C95.4235 20.32 95.2695 19.76 95.2695 19.102C95.2695 18.164 95.5985 17.415 96.2565 16.855C96.9285 16.281 97.8595 15.994 99.0495 15.994C99.7495 15.994 100.331 16.078 100.793 16.246C101.269 16.4 101.647 16.582 101.927 16.792C102.207 16.988 102.396 17.149 102.494 17.275V18.262C102.004 17.926 101.5 17.688 100.982 17.548C100.464 17.394 99.9105 17.317 99.3225 17.317C98.7765 17.317 98.3285 17.387 97.9785 17.527C97.6425 17.667 97.3905 17.863 97.2225 18.115C97.0545 18.367 96.9705 18.668 96.9705 19.018ZM96.7185 14.566L95.8995 13.327C96.2635 13.061 96.7605 12.795 97.3905 12.529C98.0345 12.263 98.8045 12.13 99.7005 12.13C100.457 12.13 101.115 12.249 101.675 12.487C102.249 12.711 102.69 13.04 102.998 13.474C103.32 13.908 103.481 14.44 103.481 15.07V22H101.801V15.301C101.801 14.965 101.745 14.692 101.633 14.482C101.521 14.258 101.36 14.083 101.15 13.957C100.954 13.831 100.723 13.74 100.457 13.684C100.191 13.628 99.9105 13.6 99.6165 13.6C99.1405 13.6 98.7065 13.656 98.3145 13.768C97.9365 13.88 97.6145 14.013 97.3485 14.167C97.0825 14.321 96.8725 14.454 96.7185 14.566ZM107.081 17.17C107.081 17.842 107.221 18.437 107.501 18.955C107.795 19.473 108.187 19.886 108.677 20.194C109.181 20.488 109.748 20.635 110.378 20.635C110.896 20.635 111.379 20.558 111.827 20.404C112.289 20.236 112.688 20.019 113.024 19.753C113.36 19.473 113.598 19.179 113.738 18.871V20.971C113.402 21.363 112.919 21.671 112.289 21.895C111.673 22.105 111.036 22.21 110.378 22.21C109.44 22.21 108.593 21.993 107.837 21.559C107.081 21.125 106.479 20.53 106.031 19.774C105.597 19.004 105.38 18.136 105.38 17.17C105.38 16.19 105.597 15.322 106.031 14.566C106.479 13.81 107.081 13.215 107.837 12.781C108.593 12.347 109.44 12.13 110.378 12.13C111.036 12.13 111.673 12.242 112.289 12.466C112.919 12.676 113.402 12.977 113.738 13.369V15.469C113.598 15.147 113.36 14.853 113.024 14.587C112.688 14.321 112.289 14.111 111.827 13.957C111.379 13.789 110.896 13.705 110.378 13.705C109.748 13.705 109.181 13.852 108.677 14.146C108.187 14.44 107.795 14.853 107.501 15.385C107.221 15.903 107.081 16.498 107.081 17.17ZM110.168 20.761H111.428L110.105 23.113C110.133 23.113 110.161 23.113 110.189 23.113C110.231 23.113 110.266 23.113 110.294 23.113C110.532 23.113 110.763 23.169 110.987 23.281C111.225 23.407 111.421 23.582 111.575 23.806C111.729 24.03 111.806 24.317 111.806 24.667C111.806 25.087 111.701 25.444 111.491 25.738C111.281 26.032 111.008 26.256 110.672 26.41C110.336 26.564 109.972 26.641 109.58 26.641C109.188 26.641 108.845 26.578 108.551 26.452C108.271 26.34 107.984 26.137 107.69 25.843L108.404 25.003C108.6 25.171 108.775 25.297 108.929 25.381C109.097 25.465 109.314 25.507 109.58 25.507C109.944 25.507 110.21 25.43 110.378 25.276C110.546 25.122 110.63 24.919 110.63 24.667C110.63 24.415 110.546 24.226 110.378 24.1C110.21 23.974 109.944 23.911 109.58 23.911C109.482 23.911 109.307 23.932 109.055 23.974C108.817 24.03 108.586 24.135 108.362 24.289L110.168 20.761ZM117.109 19.165C117.109 19.501 117.186 19.788 117.34 20.026C117.494 20.25 117.718 20.425 118.012 20.551C118.32 20.663 118.698 20.719 119.146 20.719C119.706 20.719 120.203 20.635 120.637 20.467C121.071 20.299 121.407 20.033 121.645 19.669C121.897 19.305 122.023 18.822 122.023 18.22L122.359 19.27C122.359 19.886 122.191 20.418 121.855 20.866C121.533 21.3 121.099 21.636 120.553 21.874C120.007 22.098 119.398 22.21 118.726 22.21C118.068 22.21 117.487 22.098 116.983 21.874C116.479 21.636 116.087 21.307 115.807 20.887C115.541 20.467 115.408 19.963 115.408 19.375C115.408 18.619 115.59 17.996 115.954 17.506C116.318 17.002 116.808 16.624 117.424 16.372C118.054 16.12 118.754 15.994 119.524 15.994C120.14 15.994 120.665 16.078 121.099 16.246C121.547 16.4 121.904 16.582 122.17 16.792C122.436 16.988 122.618 17.149 122.716 17.275V18.262C122.24 17.926 121.757 17.681 121.267 17.527C120.777 17.359 120.224 17.275 119.608 17.275C119.048 17.275 118.579 17.352 118.201 17.506C117.837 17.66 117.564 17.877 117.382 18.157C117.2 18.437 117.109 18.773 117.109 19.165ZM117.109 14.608L116.29 13.327C116.654 13.061 117.144 12.795 117.76 12.529C118.376 12.263 119.118 12.13 119.986 12.13C120.728 12.13 121.372 12.249 121.918 12.487C122.478 12.711 122.912 13.04 123.22 13.474C123.542 13.908 123.703 14.44 123.703 15.07V22H122.023V15.07C122.023 14.58 121.813 14.216 121.393 13.978C120.987 13.726 120.518 13.6 119.986 13.6C119.524 13.6 119.104 13.663 118.726 13.789C118.348 13.901 118.019 14.041 117.739 14.209C117.473 14.363 117.263 14.496 117.109 14.608ZM116.521 10.093C116.591 9.743 116.738 9.442 116.962 9.19C117.186 8.938 117.452 8.742 117.76 8.602C118.082 8.448 118.397 8.371 118.705 8.371C119.041 8.371 119.314 8.42 119.524 8.518C119.748 8.616 119.937 8.735 120.091 8.875C120.259 9.001 120.434 9.113 120.616 9.211C120.798 9.309 121.029 9.358 121.309 9.358C121.505 9.358 121.694 9.274 121.876 9.106C122.072 8.938 122.275 8.686 122.485 8.35L123.451 9.253C123.339 9.505 123.171 9.75 122.947 9.988C122.737 10.226 122.485 10.422 122.191 10.576C121.897 10.716 121.575 10.786 121.225 10.786C120.847 10.786 120.525 10.702 120.259 10.534C119.993 10.366 119.741 10.205 119.503 10.051C119.279 9.883 119.006 9.799 118.684 9.799C118.404 9.799 118.187 9.869 118.033 10.009C117.879 10.135 117.774 10.282 117.718 10.45C117.662 10.618 117.634 10.758 117.634 10.87L116.521 10.093ZM125.706 17.17C125.706 16.19 125.923 15.322 126.357 14.566C126.805 13.81 127.407 13.215 128.163 12.781C128.919 12.347 129.766 12.13 130.704 12.13C131.656 12.13 132.503 12.347 133.245 12.781C134.001 13.215 134.596 13.81 135.03 14.566C135.478 15.322 135.702 16.19 135.702 17.17C135.702 18.136 135.478 19.004 135.03 19.774C134.596 20.53 134.001 21.125 133.245 21.559C132.503 21.993 131.656 22.21 130.704 22.21C129.766 22.21 128.919 21.993 128.163 21.559C127.407 21.125 126.805 20.53 126.357 19.774C125.923 19.004 125.706 18.136 125.706 17.17ZM127.407 17.17C127.407 17.842 127.547 18.437 127.827 18.955C128.121 19.473 128.513 19.886 129.003 20.194C129.507 20.488 130.074 20.635 130.704 20.635C131.334 20.635 131.894 20.488 132.384 20.194C132.888 19.886 133.28 19.473 133.56 18.955C133.854 18.437 134.001 17.842 134.001 17.17C134.001 16.498 133.854 15.903 133.56 15.385C133.28 14.853 132.888 14.44 132.384 14.146C131.894 13.852 131.334 13.705 130.704 13.705C130.074 13.705 129.507 13.852 129.003 14.146C128.513 14.44 128.121 14.853 127.827 15.385C127.547 15.903 127.407 16.498 127.407 17.17Z" fill="#4C7B00"/>
<rect x="44" y="84" width="238" height="6" rx="3" fill="black" fill-opacity="0.18"/>
<rect x="48" y="84" width="100" height="6" rx="3" fill="url(#paint0_linear_40_157)"/>
<path d="M120.134 88.5C120.519 87.8333 121.481 87.8333 121.866 88.5L124.464 93C124.849 93.6667 124.368 94.5 123.598 94.5H118.402C117.632 94.5 117.151 93.6667 117.536 93L120.134 88.5Z" fill="black"/>
<path d="M286.304 86L290.276 81.764C290.46 81.564 290.616 81.368 290.744 81.176C290.88 80.976 290.98 80.776 291.044 80.576C291.116 80.368 291.152 80.152 291.152 79.928C291.152 79.744 291.116 79.564 291.044 79.388C290.972 79.212 290.864 79.052 290.72 78.908C290.584 78.764 290.416 78.648 290.216 78.56C290.016 78.472 289.788 78.428 289.532 78.428C289.172 78.428 288.86 78.512 288.596 78.68C288.34 78.84 288.144 79.076 288.008 79.388C287.872 79.692 287.804 80.056 287.804 80.48H286.784C286.784 79.88 286.892 79.356 287.108 78.908C287.324 78.452 287.636 78.1 288.044 77.852C288.46 77.596 288.956 77.468 289.532 77.468C289.996 77.468 290.396 77.548 290.732 77.708C291.068 77.86 291.344 78.06 291.56 78.308C291.776 78.548 291.936 78.808 292.04 79.088C292.144 79.368 292.196 79.636 292.196 79.892C292.196 80.324 292.092 80.752 291.884 81.176C291.676 81.6 291.408 81.98 291.08 82.316L288.404 85.04H292.232V86H286.304ZM293.136 86L297.108 81.764C297.292 81.564 297.448 81.368 297.576 81.176C297.712 80.976 297.812 80.776 297.876 80.576C297.948 80.368 297.984 80.152 297.984 79.928C297.984 79.744 297.948 79.564 297.876 79.388C297.804 79.212 297.696 79.052 297.552 78.908C297.416 78.764 297.248 78.648 297.048 78.56C296.848 78.472 296.62 78.428 296.364 78.428C296.004 78.428 295.692 78.512 295.428 78.68C295.172 78.84 294.976 79.076 294.84 79.388C294.704 79.692 294.636 80.056 294.636 80.48H293.616C293.616 79.88 293.724 79.356 293.94 78.908C294.156 78.452 294.468 78.1 294.876 77.852C295.292 77.596 295.788 77.468 296.364 77.468C296.828 77.468 297.228 77.548 297.564 77.708C297.9 77.86 298.176 78.06 298.392 78.308C298.608 78.548 298.768 78.808 298.872 79.088C298.976 79.368 299.028 79.636 299.028 79.892C299.028 80.324 298.924 80.752 298.716 81.176C298.508 81.6 298.24 81.98 297.912 82.316L295.236 85.04H299.064V86H293.136ZM308.189 82.52V86H307.229V82.64C307.229 82.168 307.141 81.82 306.965 81.596C306.797 81.372 306.533 81.26 306.173 81.26C305.909 81.26 305.681 81.316 305.489 81.428C305.297 81.532 305.149 81.688 305.045 81.896C304.941 82.104 304.889 82.352 304.889 82.64V86H303.929V82.64C303.929 82.168 303.841 81.82 303.665 81.596C303.497 81.372 303.233 81.26 302.873 81.26C302.609 81.26 302.381 81.316 302.189 81.428C301.997 81.532 301.849 81.688 301.745 81.896C301.641 82.104 301.589 82.352 301.589 82.64V86H300.629V80.48H301.589V81.284C301.757 80.972 301.965 80.74 302.213 80.588C302.469 80.436 302.769 80.36 303.113 80.36C303.497 80.36 303.825 80.452 304.097 80.636C304.377 80.812 304.581 81.064 304.709 81.392C304.901 81.048 305.141 80.792 305.429 80.624C305.717 80.448 306.045 80.36 306.413 80.36C306.789 80.36 307.109 80.444 307.373 80.612C307.637 80.78 307.837 81.028 307.973 81.356C308.117 81.676 308.189 82.064 308.189 82.52ZM317.552 82.52V86H316.592V82.64C316.592 82.168 316.504 81.82 316.328 81.596C316.16 81.372 315.896 81.26 315.536 81.26C315.272 81.26 315.044 81.316 314.852 81.428C314.66 81.532 314.512 81.688 314.408 81.896C314.304 82.104 314.252 82.352 314.252 82.64V86H313.292V82.64C313.292 82.168 313.204 81.82 313.028 81.596C312.86 81.372 312.596 81.26 312.236 81.26C311.972 81.26 311.744 81.316 311.552 81.428C311.36 81.532 311.212 81.688 311.108 81.896C311.004 82.104 310.952 82.352 310.952 82.64V86H309.992V80.48H310.952V81.284C311.12 80.972 311.328 80.74 311.576 80.588C311.832 80.436 312.132 80.36 312.476 80.36C312.86 80.36 313.188 80.452 313.46 80.636C313.74 80.812 313.944 81.064 314.072 81.392C314.264 81.048 314.504 80.792 314.792 80.624C315.08 80.448 315.408 80.36 315.776 80.36C316.152 80.36 316.472 80.444 316.736 80.612C317 80.78 317.2 81.028 317.336 81.356C317.48 81.676 317.552 82.064 317.552 82.52ZM323.495 77.6H324.455L319.595 87.8H318.635L323.495 77.6ZM326.491 76.64V86H325.531V76.64H326.491ZM329.071 82.64C329.071 82.184 328.971 81.84 328.771 81.608C328.579 81.376 328.287 81.26 327.895 81.26C327.615 81.26 327.367 81.32 327.151 81.44C326.943 81.56 326.779 81.724 326.659 81.932C326.547 82.14 326.491 82.376 326.491 82.64H326.179C326.179 82.2 326.263 81.812 326.431 81.476C326.599 81.132 326.827 80.86 327.115 80.66C327.411 80.46 327.751 80.36 328.135 80.36C328.519 80.36 328.851 80.44 329.131 80.6C329.419 80.76 329.639 81 329.791 81.32C329.951 81.64 330.031 82.04 330.031 82.52V86H329.071V82.64ZM295.597 91.256V90.2L298.477 89.48V98H297.457V90.704L295.597 91.256ZM306.327 95.24C306.327 95.72 306.251 96.14 306.099 96.5C305.947 96.86 305.735 97.16 305.463 97.4C305.191 97.64 304.879 97.82 304.527 97.94C304.175 98.06 303.795 98.12 303.387 98.12C302.875 98.12 302.427 98.04 302.043 97.88C301.667 97.72 301.343 97.508 301.071 97.244C300.807 96.972 300.583 96.676 300.399 96.356L301.263 95.768C301.391 96.008 301.559 96.236 301.767 96.452C301.983 96.66 302.231 96.832 302.511 96.968C302.791 97.096 303.083 97.16 303.387 97.16C303.787 97.16 304.127 97.08 304.407 96.92C304.687 96.76 304.899 96.536 305.043 96.248C305.195 95.96 305.271 95.624 305.271 95.24C305.271 94.856 305.187 94.52 305.019 94.232C304.859 93.944 304.635 93.72 304.347 93.56C304.067 93.4 303.747 93.32 303.387 93.32C303.123 93.32 302.879 93.344 302.655 93.392C302.439 93.432 302.219 93.508 301.995 93.62C301.779 93.724 301.527 93.876 301.239 94.076L302.343 89.6H306.303V90.5H303.135L302.571 92.72C302.771 92.616 302.975 92.54 303.183 92.492C303.399 92.436 303.611 92.408 303.819 92.408C304.299 92.408 304.727 92.528 305.103 92.768C305.487 93.008 305.787 93.34 306.003 93.764C306.219 94.188 306.327 94.68 306.327 95.24ZM307.953 97.52C307.953 97.336 308.017 97.18 308.145 97.052C308.281 96.924 308.437 96.86 308.613 96.86C308.797 96.86 308.953 96.924 309.081 97.052C309.209 97.18 309.273 97.336 309.273 97.52C309.273 97.696 309.209 97.852 309.081 97.988C308.953 98.116 308.797 98.18 308.613 98.18C308.437 98.18 308.281 98.116 308.145 97.988C308.017 97.852 307.953 97.696 307.953 97.52ZM307.953 92.96C307.953 92.776 308.017 92.62 308.145 92.492C308.281 92.364 308.437 92.3 308.613 92.3C308.797 92.3 308.953 92.364 309.081 92.492C309.209 92.62 309.273 92.776 309.273 92.96C309.273 93.136 309.209 93.292 309.081 93.428C308.953 93.556 308.797 93.62 308.613 93.62C308.437 93.62 308.281 93.556 308.145 93.428C308.017 93.292 307.953 93.136 307.953 92.96ZM313.446 93.86V93.2C313.718 93.2 313.958 93.164 314.166 93.092C314.374 93.012 314.55 92.908 314.694 92.78C314.838 92.644 314.946 92.488 315.018 92.312C315.098 92.136 315.138 91.948 315.138 91.748C315.138 91.484 315.09 91.252 314.994 91.052C314.898 90.844 314.754 90.684 314.562 90.572C314.378 90.46 314.146 90.404 313.866 90.404C313.474 90.404 313.142 90.528 312.87 90.776C312.598 91.016 312.462 91.32 312.462 91.688H311.49C311.49 91.248 311.59 90.864 311.79 90.536C311.998 90.208 312.278 89.952 312.63 89.768C312.99 89.576 313.398 89.48 313.854 89.48C314.334 89.48 314.746 89.584 315.09 89.792C315.442 90 315.71 90.272 315.894 90.608C316.086 90.944 316.182 91.312 316.182 91.712C316.182 92.104 316.066 92.464 315.834 92.792C315.602 93.12 315.282 93.38 314.874 93.572C314.466 93.764 313.99 93.86 313.446 93.86ZM313.806 98.12C313.398 98.12 313.03 98.06 312.702 97.94C312.374 97.82 312.094 97.656 311.862 97.448C311.63 97.232 311.45 96.984 311.322 96.704C311.194 96.416 311.13 96.108 311.13 95.78H312.162C312.162 96.044 312.23 96.28 312.366 96.488C312.51 96.696 312.706 96.86 312.954 96.98C313.202 97.1 313.486 97.16 313.806 97.16C314.126 97.16 314.402 97.1 314.634 96.98C314.874 96.852 315.058 96.676 315.186 96.452C315.314 96.228 315.378 95.964 315.378 95.66C315.378 95.404 315.326 95.18 315.222 94.988C315.126 94.788 314.99 94.624 314.814 94.496C314.638 94.36 314.434 94.26 314.202 94.196C313.97 94.132 313.718 94.1 313.446 94.1V93.44C313.854 93.44 314.234 93.484 314.586 93.572C314.946 93.66 315.262 93.8 315.534 93.992C315.814 94.176 316.03 94.416 316.182 94.712C316.342 95.008 316.422 95.364 316.422 95.78C316.422 96.252 316.306 96.664 316.074 97.016C315.85 97.368 315.542 97.64 315.15 97.832C314.758 98.024 314.31 98.12 313.806 98.12ZM317.921 91.256V90.2L320.801 89.48V98H319.781V90.704L317.921 91.256Z" fill="black"/>
<path d="M0.720469 86L4.69247 81.764C4.87647 81.564 5.03247 81.368 5.16047 81.176C5.29647 80.976 5.39647 80.776 5.46047 80.576C5.53247 80.368 5.56847 80.152 5.56847 79.928C5.56847 79.744 5.53247 79.564 5.46047 79.388C5.38847 79.212 5.28047 79.052 5.13647 78.908C5.00047 78.764 4.83247 78.648 4.63247 78.56C4.43247 78.472 4.20447 78.428 3.94847 78.428C3.58847 78.428 3.27647 78.512 3.01247 78.68C2.75647 78.84 2.56047 79.076 2.42447 79.388C2.28847 79.692 2.22047 80.056 2.22047 80.48H1.20047C1.20047 79.88 1.30847 79.356 1.52447 78.908C1.74047 78.452 2.05247 78.1 2.46047 77.852C2.87647 77.596 3.37247 77.468 3.94847 77.468C4.41247 77.468 4.81247 77.548 5.14847 77.708C5.48447 77.86 5.76047 78.06 5.97647 78.308C6.19247 78.548 6.35247 78.808 6.45647 79.088C6.56047 79.368 6.61247 79.636 6.61247 79.892C6.61247 80.324 6.50847 80.752 6.30047 81.176C6.09247 81.6 5.82447 81.98 5.49647 82.316L2.82047 85.04H6.64847V86H0.720469ZM15.7725 82.52V86H14.8125V82.64C14.8125 82.168 14.7245 81.82 14.5485 81.596C14.3805 81.372 14.1165 81.26 13.7565 81.26C13.4925 81.26 13.2645 81.316 13.0725 81.428C12.8805 81.532 12.7325 81.688 12.6285 81.896C12.5245 82.104 12.4725 82.352 12.4725 82.64V86H11.5125V82.64C11.5125 82.168 11.4245 81.82 11.2485 81.596C11.0805 81.372 10.8165 81.26 10.4565 81.26C10.1925 81.26 9.9645 81.316 9.7725 81.428C9.5805 81.532 9.4325 81.688 9.3285 81.896C9.2245 82.104 9.1725 82.352 9.1725 82.64V86H8.2125V80.48H9.1725V81.284C9.3405 80.972 9.5485 80.74 9.7965 80.588C10.0525 80.436 10.3525 80.36 10.6965 80.36C11.0805 80.36 11.4085 80.452 11.6805 80.636C11.9605 80.812 12.1645 81.064 12.2925 81.392C12.4845 81.048 12.7245 80.792 13.0125 80.624C13.3005 80.448 13.6285 80.36 13.9965 80.36C14.3725 80.36 14.6925 80.444 14.9565 80.612C15.2205 80.78 15.4205 81.028 15.5565 81.356C15.7005 81.676 15.7725 82.064 15.7725 82.52ZM25.1358 82.52V86H24.1758V82.64C24.1758 82.168 24.0878 81.82 23.9118 81.596C23.7438 81.372 23.4798 81.26 23.1198 81.26C22.8558 81.26 22.6278 81.316 22.4358 81.428C22.2438 81.532 22.0958 81.688 21.9918 81.896C21.8878 82.104 21.8358 82.352 21.8358 82.64V86H20.8758V82.64C20.8758 82.168 20.7878 81.82 20.6118 81.596C20.4438 81.372 20.1798 81.26 19.8198 81.26C19.5558 81.26 19.3278 81.316 19.1358 81.428C18.9438 81.532 18.7958 81.688 18.6918 81.896C18.5878 82.104 18.5358 82.352 18.5358 82.64V86H17.5758V80.48H18.5358V81.284C18.7038 80.972 18.9118 80.74 19.1598 80.588C19.4158 80.436 19.7158 80.36 20.0598 80.36C20.4438 80.36 20.7718 80.452 21.0438 80.636C21.3238 80.812 21.5278 81.064 21.6558 81.392C21.8478 81.048 22.0878 80.792 22.3758 80.624C22.6638 80.448 22.9918 80.36 23.3598 80.36C23.7358 80.36 24.0558 80.444 24.3198 80.612C24.5838 80.78 24.7838 81.028 24.9198 81.356C25.0638 81.676 25.1358 82.064 25.1358 82.52ZM31.0791 77.6H32.0391L27.1791 87.8H26.2191L31.0791 77.6ZM34.0748 76.64V86H33.1148V76.64H34.0748ZM36.6548 82.64C36.6548 82.184 36.5548 81.84 36.3548 81.608C36.1628 81.376 35.8708 81.26 35.4788 81.26C35.1988 81.26 34.9508 81.32 34.7348 81.44C34.5268 81.56 34.3628 81.724 34.2428 81.932C34.1308 82.14 34.0748 82.376 34.0748 82.64H33.7628C33.7628 82.2 33.8468 81.812 34.0148 81.476C34.1828 81.132 34.4108 80.86 34.6988 80.66C34.9948 80.46 35.3348 80.36 35.7188 80.36C36.1028 80.36 36.4348 80.44 36.7148 80.6C37.0028 80.76 37.2228 81 37.3748 81.32C37.5348 81.64 37.6148 82.04 37.6148 82.52V86H36.6548V82.64ZM5.98828 93.8C5.98828 94.288 6.03628 94.74 6.13228 95.156C6.22828 95.564 6.36828 95.92 6.55228 96.224C6.73628 96.52 6.95628 96.752 7.21228 96.92C7.47628 97.08 7.76828 97.16 8.08828 97.16C8.41628 97.16 8.70828 97.08 8.96428 96.92C9.22028 96.752 9.44028 96.52 9.62428 96.224C9.80828 95.92 9.94828 95.564 10.0443 95.156C10.1403 94.74 10.1883 94.288 10.1883 93.8C10.1883 93.312 10.1403 92.864 10.0443 92.456C9.94828 92.04 9.80828 91.684 9.62428 91.388C9.44028 91.084 9.22028 90.852 8.96428 90.692C8.70828 90.524 8.41628 90.44 8.08828 90.44C7.76828 90.44 7.47628 90.524 7.21228 90.692C6.95628 90.852 6.73628 91.084 6.55228 91.388C6.36828 91.684 6.22828 92.04 6.13228 92.456C6.03628 92.864 5.98828 93.312 5.98828 93.8ZM4.96828 93.8C4.96828 92.96 5.10028 92.216 5.36428 91.568C5.62828 90.92 5.99228 90.412 6.45628 90.044C6.92828 89.668 7.47228 89.48 8.08828 89.48C8.70428 89.48 9.24428 89.668 9.70828 90.044C10.1803 90.412 10.5483 90.92 10.8123 91.568C11.0763 92.216 11.2083 92.96 11.2083 93.8C11.2083 94.64 11.0763 95.384 10.8123 96.032C10.5483 96.68 10.1803 97.192 9.70828 97.568C9.24428 97.936 8.70428 98.12 8.08828 98.12C7.47228 98.12 6.92828 97.936 6.45628 97.568C5.99228 97.192 5.62828 96.68 5.36428 96.032C5.10028 95.384 4.96828 94.64 4.96828 93.8ZM11.9236 96.32L16.5796 89.6H16.9996V98H15.9796V95.888V95.756V91.868L13.6036 95.42H16.3996H16.6036H18.3196V96.32H11.9236ZM19.8197 97.52C19.8197 97.336 19.8837 97.18 20.0117 97.052C20.1477 96.924 20.3037 96.86 20.4797 96.86C20.6637 96.86 20.8197 96.924 20.9477 97.052C21.0757 97.18 21.1397 97.336 21.1397 97.52C21.1397 97.696 21.0757 97.852 20.9477 97.988C20.8197 98.116 20.6637 98.18 20.4797 98.18C20.3037 98.18 20.1477 98.116 20.0117 97.988C19.8837 97.852 19.8197 97.696 19.8197 97.52ZM19.8197 92.96C19.8197 92.776 19.8837 92.62 20.0117 92.492C20.1477 92.364 20.3037 92.3 20.4797 92.3C20.6637 92.3 20.8197 92.364 20.9477 92.492C21.0757 92.62 21.1397 92.776 21.1397 92.96C21.1397 93.136 21.0757 93.292 20.9477 93.428C20.8197 93.556 20.6637 93.62 20.4797 93.62C20.3037 93.62 20.1477 93.556 20.0117 93.428C19.8837 93.292 19.8197 93.136 19.8197 92.96ZM22.5173 98L26.4893 93.764C26.6733 93.564 26.8293 93.368 26.9573 93.176C27.0933 92.976 27.1933 92.776 27.2573 92.576C27.3293 92.368 27.3653 92.152 27.3653 91.928C27.3653 91.744 27.3293 91.564 27.2573 91.388C27.1853 91.212 27.0773 91.052 26.9333 90.908C26.7973 90.764 26.6293 90.648 26.4293 90.56C26.2293 90.472 26.0013 90.428 25.7453 90.428C25.3853 90.428 25.0733 90.512 24.8093 90.68C24.5533 90.84 24.3573 91.076 24.2213 91.388C24.0853 91.692 24.0173 92.056 24.0173 92.48H22.9973C22.9973 91.88 23.1053 91.356 23.3213 90.908C23.5373 90.452 23.8493 90.1 24.2573 89.852C24.6733 89.596 25.1693 89.468 25.7453 89.468C26.2093 89.468 26.6093 89.548 26.9453 89.708C27.2813 89.86 27.5573 90.06 27.7733 90.308C27.9893 90.548 28.1493 90.808 28.2533 91.088C28.3573 91.368 28.4093 91.636 28.4093 91.892C28.4093 92.324 28.3053 92.752 28.0973 93.176C27.8893 93.6 27.6213 93.98 27.2933 94.316L24.6173 97.04H28.4453V98H22.5173ZM30.0694 91.256V90.2L32.9494 89.48V98H31.9294V90.704L30.0694 91.256Z" fill="black"/>
<path d="M26.0706 49.65V54H24.8706V49.8C24.8706 49.21 24.7606 48.775 24.5406 48.495C24.3306 48.215 24.0006 48.075 23.5506 48.075C23.2206 48.075 22.9356 48.145 22.6956 48.285C22.4556 48.415 22.2706 48.61 22.1406 48.87C22.0106 49.13 21.9456 49.44 21.9456 49.8V54H20.7456V49.8C20.7456 49.21 20.6356 48.775 20.4156 48.495C20.2056 48.215 19.8756 48.075 19.4256 48.075C19.0956 48.075 18.8106 48.145 18.5706 48.285C18.3306 48.415 18.1456 48.61 18.0156 48.87C17.8856 49.13 17.8206 49.44 17.8206 49.8V54H16.6206V47.1H17.8206V48.105C18.0306 47.715 18.2906 47.425 18.6006 47.235C18.9206 47.045 19.2956 46.95 19.7256 46.95C20.2056 46.95 20.6156 47.065 20.9556 47.295C21.3056 47.515 21.5606 47.83 21.7206 48.24C21.9606 47.81 22.2606 47.49 22.6206 47.28C22.9806 47.06 23.3906 46.95 23.8506 46.95C24.3206 46.95 24.7206 47.055 25.0506 47.265C25.3806 47.475 25.6306 47.785 25.8006 48.195C25.9806 48.595 26.0706 49.08 26.0706 49.65ZM37.7747 49.65V54H36.5747V49.8C36.5747 49.21 36.4647 48.775 36.2447 48.495C36.0347 48.215 35.7047 48.075 35.2547 48.075C34.9247 48.075 34.6397 48.145 34.3997 48.285C34.1597 48.415 33.9747 48.61 33.8447 48.87C33.7147 49.13 33.6497 49.44 33.6497 49.8V54H32.4497V49.8C32.4497 49.21 32.3397 48.775 32.1197 48.495C31.9097 48.215 31.5797 48.075 31.1297 48.075C30.7997 48.075 30.5147 48.145 30.2747 48.285C30.0347 48.415 29.8497 48.61 29.7197 48.87C29.5897 49.13 29.5247 49.44 29.5247 49.8V54H28.3247V47.1H29.5247V48.105C29.7347 47.715 29.9947 47.425 30.3047 47.235C30.6247 47.045 30.9997 46.95 31.4297 46.95C31.9097 46.95 32.3197 47.065 32.6597 47.295C33.0097 47.515 33.2647 47.83 33.4247 48.24C33.6647 47.81 33.9647 47.49 34.3247 47.28C34.6847 47.06 35.0947 46.95 35.5547 46.95C36.0247 46.95 36.4247 47.055 36.7547 47.265C37.0847 47.475 37.3347 47.785 37.5047 48.195C37.6847 48.595 37.7747 49.08 37.7747 49.65ZM45.2038 43.5H46.4038L40.3288 56.25H39.1288L45.2038 43.5ZM48.9485 42.3V54H47.7485V42.3H48.9485ZM52.1735 49.8C52.1735 49.23 52.0485 48.8 51.7985 48.51C51.5585 48.22 51.1935 48.075 50.7035 48.075C50.3535 48.075 50.0435 48.15 49.7735 48.3C49.5135 48.45 49.3085 48.655 49.1585 48.915C49.0185 49.175 48.9485 49.47 48.9485 49.8H48.5585C48.5585 49.25 48.6635 48.765 48.8735 48.345C49.0835 47.915 49.3685 47.575 49.7285 47.325C50.0985 47.075 50.5235 46.95 51.0035 46.95C51.4835 46.95 51.8985 47.05 52.2485 47.25C52.6085 47.45 52.8835 47.75 53.0735 48.15C53.2735 48.55 53.3735 49.05 53.3735 49.65V54H52.1735V49.8Z" fill="black"/>
<path d="M9.7952 51.13C9.7952 50.458 9.6482 49.87 9.3542 49.366C9.0742 48.848 8.6822 48.442 8.1782 48.148C7.6882 47.854 7.1282 47.707 6.4982 47.707C5.8682 47.707 5.3012 47.854 4.7972 48.148C4.3072 48.442 3.9152 48.848 3.6212 49.366C3.3412 49.87 3.2012 50.458 3.2012 51.13C3.2012 51.802 3.3412 52.397 3.6212 52.915C3.9152 53.433 4.3072 53.846 4.7972 54.154C5.3012 54.448 5.8682 54.595 6.4982 54.595C7.1282 54.595 7.6882 54.448 8.1782 54.154C8.6822 53.846 9.0742 53.433 9.3542 52.915C9.6482 52.397 9.7952 51.802 9.7952 51.13ZM5.6162 61H3.3692L7.9682 54.931L8.0942 55.036C7.8142 55.386 7.4852 55.617 7.1072 55.729C6.7432 55.841 6.3232 55.897 5.8472 55.897C5.2452 55.897 4.6782 55.778 4.1462 55.54C3.6282 55.302 3.1662 54.966 2.7602 54.532C2.3682 54.098 2.0602 53.594 1.8362 53.02C1.6122 52.432 1.5002 51.802 1.5002 51.13C1.5002 50.122 1.7172 49.24 2.1512 48.484C2.5992 47.728 3.2012 47.14 3.9572 46.72C4.7132 46.3 5.5602 46.09 6.4982 46.09C7.4502 46.09 8.2972 46.3 9.0392 46.72C9.7952 47.14 10.3902 47.728 10.8242 48.484C11.2722 49.24 11.4962 50.122 11.4962 51.13C11.4962 51.732 11.4122 52.292 11.2442 52.81C11.0762 53.328 10.8522 53.783 10.5722 54.175L5.6162 61Z" fill="black"/>
<defs>
<linearGradient id="paint0_linear_40_157" x1="49" y1="88.0001" x2="123" y2="88.0001" gradientUnits="userSpaceOnUse">
<stop stop-color="#AAF432"/>
<stop offset="1" stop-color="#22C3E7"/>
<stop offset="1" stop-color="#00D1FF"/>
</linearGradient>
</defs>
</svg>
