<svg width="328" height="206" viewBox="0 0 328 206" fill="none" xmlns="http://www.w3.org/2000/svg">
<path d="M9.84375 8.28125V6.3125C9.84375 6.13845 9.91289 5.97153 10.036 5.84846C10.159 5.72539 10.326 5.65625 10.5 5.65625C10.674 5.65625 10.841 5.72539 10.964 5.84846C11.0871 5.97153 11.1562 6.13845 11.1562 6.3125V8.28125C11.1562 8.4553 11.0871 8.62222 10.964 8.74529C10.841 8.86836 10.674 8.9375 10.5 8.9375C10.326 8.9375 10.159 8.86836 10.036 8.74529C9.91289 8.62222 9.84375 8.4553 9.84375 8.28125ZM15.75 15.5C15.75 16.5384 15.4421 17.5534 14.8652 18.4167C14.2883 19.2801 13.4684 19.953 12.5091 20.3504C11.5498 20.7477 10.4942 20.8517 9.47578 20.6491C8.45738 20.4466 7.52191 19.9465 6.78769 19.2123C6.05346 18.4781 5.55345 17.5426 5.35088 16.5242C5.1483 15.5058 5.25227 14.4502 5.64963 13.4909C6.04699 12.5316 6.7199 11.7117 7.58326 11.1348C8.44661 10.5579 9.46165 10.25 10.5 10.25C11.8919 10.2515 13.2264 10.8051 14.2106 11.7894C15.1949 12.7736 15.7485 14.1081 15.75 15.5ZM14.4375 15.5C14.4375 14.7212 14.2066 13.96 13.7739 13.3124C13.3413 12.6649 12.7263 12.1602 12.0068 11.8622C11.2873 11.5642 10.4956 11.4862 9.73183 11.6382C8.96803 11.7901 8.26644 12.1651 7.71577 12.7158C7.1651 13.2664 6.79009 13.968 6.63816 14.7318C6.48623 15.4956 6.5642 16.2873 6.86222 17.0068C7.16024 17.7263 7.66492 18.3413 8.31244 18.7739C8.95996 19.2066 9.72124 19.4375 10.5 19.4375C11.544 19.4364 12.5448 19.0212 13.283 18.283C14.0212 17.5448 14.4364 16.544 14.4375 15.5ZM4.7857 10.7143C4.90884 10.8374 5.07585 10.9066 5.25 10.9066C5.42415 10.9066 5.59116 10.8374 5.7143 10.7143C5.83744 10.5912 5.90661 10.4241 5.90661 10.25C5.90661 10.0759 5.83744 9.90884 5.7143 9.7857L4.4018 8.4732C4.27866 8.35006 4.11164 8.28089 3.9375 8.28089C3.76336 8.28089 3.59634 8.35006 3.4732 8.4732C3.35006 8.59634 3.28089 8.76336 3.28089 8.9375C3.28089 9.11164 3.35006 9.27866 3.4732 9.4018L4.7857 10.7143ZM4.7857 20.2857L3.4732 21.5982C3.35006 21.7213 3.28089 21.8884 3.28089 22.0625C3.28089 22.2366 3.35006 22.4037 3.4732 22.5268C3.59634 22.6499 3.76336 22.7191 3.9375 22.7191C4.11164 22.7191 4.27866 22.6499 4.4018 22.5268L5.7143 21.2143C5.77527 21.1533 5.82364 21.0809 5.85663 21.0013C5.88963 20.9216 5.90661 20.8362 5.90661 20.75C5.90661 20.6638 5.88963 20.5784 5.85663 20.4987C5.82364 20.4191 5.77527 20.3467 5.7143 20.2857C5.65332 20.2247 5.58094 20.1764 5.50128 20.1434C5.42161 20.1104 5.33623 20.0934 5.25 20.0934C5.16377 20.0934 5.07839 20.1104 4.99872 20.1434C4.91906 20.1764 4.84668 20.2247 4.7857 20.2857ZM15.75 10.9062C15.8362 10.9063 15.9216 10.8894 16.0012 10.8565C16.0809 10.8235 16.1533 10.7752 16.2143 10.7143L17.5268 9.4018C17.6499 9.27866 17.7191 9.11164 17.7191 8.9375C17.7191 8.76336 17.6499 8.59634 17.5268 8.4732C17.4037 8.35006 17.2366 8.28089 17.0625 8.28089C16.8884 8.28089 16.7213 8.35006 16.5982 8.4732L15.2857 9.7857C15.1938 9.87748 15.1312 9.99446 15.1059 10.1218C15.0805 10.2492 15.0935 10.3812 15.1432 10.5012C15.1929 10.6212 15.2771 10.7237 15.3851 10.7958C15.4932 10.8679 15.6201 10.9064 15.75 10.9062ZM16.2143 20.2857C16.0912 20.1626 15.9241 20.0934 15.75 20.0934C15.5759 20.0934 15.4088 20.1626 15.2857 20.2857C15.1626 20.4088 15.0934 20.5759 15.0934 20.75C15.0934 20.9241 15.1626 21.0912 15.2857 21.2143L16.5982 22.5268C16.6592 22.5878 16.7316 22.6361 16.8112 22.6691C16.8909 22.7021 16.9763 22.7191 17.0625 22.7191C17.1487 22.7191 17.2341 22.7021 17.3138 22.6691C17.3934 22.6361 17.4658 22.5878 17.5268 22.5268C17.5878 22.4658 17.6361 22.3934 17.6691 22.3138C17.7021 22.2341 17.7191 22.1487 17.7191 22.0625C17.7191 21.9763 17.7021 21.8909 17.6691 21.8112C17.6361 21.7316 17.5878 21.6592 17.5268 21.5982L16.2143 20.2857ZM3.9375 15.5C3.9375 15.326 3.86836 15.159 3.74529 15.036C3.62222 14.9129 3.4553 14.8438 3.28125 14.8438H1.3125C1.13845 14.8438 0.971532 14.9129 0.848461 15.036C0.72539 15.159 0.65625 15.326 0.65625 15.5C0.65625 15.674 0.72539 15.841 0.848461 15.964C0.971532 16.0871 1.13845 16.1562 1.3125 16.1562H3.28125C3.4553 16.1562 3.62222 16.0871 3.74529 15.964C3.86836 15.841 3.9375 15.674 3.9375 15.5ZM10.5 22.0625C10.326 22.0625 10.159 22.1316 10.036 22.2547C9.91289 22.3778 9.84375 22.5447 9.84375 22.7188V24.6875C9.84375 24.8615 9.91289 25.0285 10.036 25.1515C10.159 25.2746 10.326 25.3438 10.5 25.3438C10.674 25.3438 10.841 25.2746 10.964 25.1515C11.0871 25.0285 11.1562 24.8615 11.1562 24.6875V22.7188C11.1562 22.5447 11.0871 22.3778 10.964 22.2547C10.841 22.1316 10.674 22.0625 10.5 22.0625ZM19.6875 14.8438H17.7188C17.5447 14.8438 17.3778 14.9129 17.2547 15.036C17.1316 15.159 17.0625 15.326 17.0625 15.5C17.0625 15.674 17.1316 15.841 17.2547 15.964C17.3778 16.0871 17.5447 16.1562 17.7188 16.1562H19.6875C19.8615 16.1562 20.0285 16.0871 20.1515 15.964C20.2746 15.841 20.3438 15.674 20.3438 15.5C20.3438 15.326 20.2746 15.159 20.1515 15.036C20.0285 14.9129 19.8615 14.8438 19.6875 14.8438Z" fill="#4C7B00"/>
<path d="M27.5386 8.98V7.3H36.8836V8.98H33.1036V22H31.3186V8.98H27.5386ZM40.3115 22.21C39.4155 22.21 38.6175 22 37.9175 21.58C37.2315 21.146 36.6925 20.551 36.3005 19.795C35.9225 19.039 35.7335 18.164 35.7335 17.17C35.7335 16.162 35.9295 15.28 36.3215 14.524C36.7275 13.768 37.2875 13.18 38.0015 12.76C38.7295 12.34 39.5695 12.13 40.5215 12.13C41.4735 12.13 42.2855 12.333 42.9575 12.739C43.6435 13.131 44.1685 13.698 44.5325 14.44C44.8965 15.182 45.0785 16.064 45.0785 17.086C45.0785 17.184 45.0715 17.289 45.0575 17.401C45.0575 17.499 45.0575 17.562 45.0575 17.59H36.8045V16.162H43.7345L43.0625 17.128C43.1045 17.058 43.1465 16.953 43.1885 16.813C43.2305 16.659 43.2515 16.533 43.2515 16.435C43.2515 15.861 43.1325 15.364 42.8945 14.944C42.6705 14.524 42.3555 14.195 41.9495 13.957C41.5435 13.719 41.0675 13.6 40.5215 13.6C39.8775 13.6 39.3245 13.74 38.8625 14.02C38.4145 14.286 38.0645 14.678 37.8125 15.196C37.5745 15.7 37.4485 16.323 37.4345 17.065C37.4345 17.821 37.5535 18.465 37.7915 18.997C38.0295 19.529 38.3795 19.935 38.8415 20.215C39.3035 20.495 39.8635 20.635 40.5215 20.635C41.1795 20.635 41.7605 20.495 42.2645 20.215C42.7685 19.921 43.1955 19.48 43.5455 18.892L44.9105 19.753C44.4065 20.565 43.7695 21.181 42.9995 21.601C42.2435 22.007 41.3475 22.21 40.3115 22.21ZM60.6112 15.91V22H58.9312V16.12C58.9312 15.294 58.7772 14.685 58.4692 14.293C58.1752 13.901 57.7132 13.705 57.0832 13.705C56.6212 13.705 56.2222 13.803 55.8862 13.999C55.5502 14.181 55.2912 14.454 55.1092 14.818C54.9272 15.182 54.8362 15.616 54.8362 16.12V22H53.1562V16.12C53.1562 15.294 53.0022 14.685 52.6942 14.293C52.4002 13.901 51.9382 13.705 51.3082 13.705C50.8462 13.705 50.4472 13.803 50.1112 13.999C49.7752 14.181 49.5162 14.454 49.3342 14.818C49.1522 15.182 49.0612 15.616 49.0612 16.12V22H47.3812V12.34H49.0612V13.747C49.3552 13.201 49.7192 12.795 50.1532 12.529C50.6012 12.263 51.1262 12.13 51.7282 12.13C52.4002 12.13 52.9742 12.291 53.4502 12.613C53.9402 12.921 54.2972 13.362 54.5212 13.936C54.8572 13.334 55.2772 12.886 55.7812 12.592C56.2852 12.284 56.8592 12.13 57.5032 12.13C58.1612 12.13 58.7212 12.277 59.1832 12.571C59.6452 12.865 59.9952 13.299 60.2332 13.873C60.4852 14.433 60.6112 15.112 60.6112 15.91ZM65.3419 26.62H63.6619V12.34H65.3419V26.62ZM73.4269 17.17C73.4269 18.206 73.2099 19.102 72.7759 19.858C72.3419 20.614 71.7609 21.195 71.0329 21.601C70.3189 22.007 69.5209 22.21 68.6389 22.21C67.8409 22.21 67.1339 22.007 66.5179 21.601C65.9159 21.195 65.4399 20.614 65.0899 19.858C64.7539 19.102 64.5859 18.206 64.5859 17.17C64.5859 16.12 64.7539 15.224 65.0899 14.482C65.4399 13.726 65.9159 13.145 66.5179 12.739C67.1339 12.333 67.8409 12.13 68.6389 12.13C69.5209 12.13 70.3189 12.333 71.0329 12.739C71.7609 13.145 72.3419 13.726 72.7759 14.482C73.2099 15.224 73.4269 16.12 73.4269 17.17ZM71.7259 17.17C71.7259 16.428 71.5719 15.798 71.2639 15.28C70.9699 14.762 70.5709 14.37 70.0669 14.104C69.5769 13.838 69.0309 13.705 68.4289 13.705C67.9389 13.705 67.4559 13.838 66.9799 14.104C66.5039 14.37 66.1119 14.762 65.8039 15.28C65.4959 15.798 65.3419 16.428 65.3419 17.17C65.3419 17.912 65.4959 18.542 65.8039 19.06C66.1119 19.578 66.5039 19.97 66.9799 20.236C67.4559 20.502 67.9389 20.635 68.4289 20.635C69.0309 20.635 69.5769 20.502 70.0669 20.236C70.5709 19.97 70.9699 19.578 71.2639 19.06C71.5719 18.542 71.7259 17.912 71.7259 17.17ZM79.4815 22.21C78.5855 22.21 77.7875 22 77.0875 21.58C76.4015 21.146 75.8625 20.551 75.4705 19.795C75.0925 19.039 74.9035 18.164 74.9035 17.17C74.9035 16.162 75.0995 15.28 75.4915 14.524C75.8975 13.768 76.4575 13.18 77.1715 12.76C77.8995 12.34 78.7395 12.13 79.6915 12.13C80.6435 12.13 81.4555 12.333 82.1275 12.739C82.8135 13.131 83.3385 13.698 83.7025 14.44C84.0665 15.182 84.2485 16.064 84.2485 17.086C84.2485 17.184 84.2415 17.289 84.2275 17.401C84.2275 17.499 84.2275 17.562 84.2275 17.59H75.9745V16.162H82.9045L82.2325 17.128C82.2745 17.058 82.3165 16.953 82.3585 16.813C82.4005 16.659 82.4215 16.533 82.4215 16.435C82.4215 15.861 82.3025 15.364 82.0645 14.944C81.8405 14.524 81.5255 14.195 81.1195 13.957C80.7135 13.719 80.2375 13.6 79.6915 13.6C79.0475 13.6 78.4945 13.74 78.0325 14.02C77.5845 14.286 77.2345 14.678 76.9825 15.196C76.7445 15.7 76.6185 16.323 76.6045 17.065C76.6045 17.821 76.7235 18.465 76.9615 18.997C77.1995 19.529 77.5495 19.935 78.0115 20.215C78.4735 20.495 79.0335 20.635 79.6915 20.635C80.3495 20.635 80.9305 20.495 81.4345 20.215C81.9385 19.921 82.3655 19.48 82.7155 18.892L84.0805 19.753C83.5765 20.565 82.9395 21.181 82.1695 21.601C81.4135 22.007 80.5175 22.21 79.4815 22.21ZM88.2311 12.34V22H86.5511V12.34H88.2311ZM91.1501 14.188C90.9261 14.02 90.7231 13.901 90.5411 13.831C90.3591 13.747 90.1281 13.705 89.8481 13.705C89.4281 13.705 89.0991 13.81 88.8611 14.02C88.6231 14.23 88.4551 14.517 88.3571 14.881C88.2731 15.245 88.2311 15.658 88.2311 16.12H87.4751C87.4751 15.35 87.6081 14.671 87.8741 14.083C88.1541 13.481 88.5111 13.005 88.9451 12.655C89.3791 12.305 89.8201 12.13 90.2681 12.13C90.6181 12.13 90.9401 12.179 91.2341 12.277C91.5421 12.361 91.8221 12.536 92.0741 12.802L91.1501 14.188ZM94.5053 19.018C94.5053 19.382 94.5893 19.697 94.7573 19.963C94.9393 20.229 95.1843 20.432 95.4923 20.572C95.8143 20.698 96.1783 20.761 96.5843 20.761C97.1023 20.761 97.5643 20.656 97.9703 20.446C98.3903 20.236 98.7193 19.942 98.9573 19.564C99.2093 19.172 99.3353 18.724 99.3353 18.22L99.6713 19.48C99.6713 20.096 99.4823 20.607 99.1043 21.013C98.7403 21.419 98.2853 21.72 97.7393 21.916C97.2073 22.112 96.6753 22.21 96.1433 22.21C95.5553 22.21 95.0023 22.091 94.4843 21.853C93.9803 21.601 93.5743 21.244 93.2663 20.782C92.9583 20.32 92.8043 19.76 92.8043 19.102C92.8043 18.164 93.1333 17.415 93.7913 16.855C94.4633 16.281 95.3943 15.994 96.5843 15.994C97.2843 15.994 97.8653 16.078 98.3273 16.246C98.8033 16.4 99.1813 16.582 99.4613 16.792C99.7413 16.988 99.9303 17.149 100.028 17.275V18.262C99.5383 17.926 99.0343 17.688 98.5163 17.548C97.9983 17.394 97.4453 17.317 96.8573 17.317C96.3113 17.317 95.8633 17.387 95.5133 17.527C95.1773 17.667 94.9253 17.863 94.7573 18.115C94.5893 18.367 94.5053 18.668 94.5053 19.018ZM94.2533 14.566L93.4343 13.327C93.7983 13.061 94.2953 12.795 94.9253 12.529C95.5693 12.263 96.3393 12.13 97.2353 12.13C97.9913 12.13 98.6493 12.249 99.2093 12.487C99.7833 12.711 100.224 13.04 100.532 13.474C100.854 13.908 101.015 14.44 101.015 15.07V22H99.3353V15.301C99.3353 14.965 99.2793 14.692 99.1673 14.482C99.0553 14.258 98.8943 14.083 98.6843 13.957C98.4883 13.831 98.2573 13.74 97.9913 13.684C97.7253 13.628 97.4453 13.6 97.1513 13.6C96.6753 13.6 96.2413 13.656 95.8493 13.768C95.4713 13.88 95.1493 14.013 94.8833 14.167C94.6173 14.321 94.4073 14.454 94.2533 14.566ZM102.39 12.34H107.22V13.915H102.39V12.34ZM103.965 8.98H105.645V22H103.965V8.98ZM110.585 18.22C110.585 18.99 110.76 19.585 111.11 20.005C111.46 20.425 111.971 20.635 112.643 20.635C113.133 20.635 113.56 20.537 113.924 20.341C114.302 20.131 114.589 19.844 114.785 19.48C114.995 19.116 115.1 18.696 115.1 18.22V12.34H116.78V22H115.1V20.488C114.778 21.062 114.379 21.496 113.903 21.79C113.427 22.07 112.867 22.21 112.223 22.21C111.215 22.21 110.41 21.867 109.808 21.181C109.206 20.495 108.905 19.578 108.905 18.43V12.34H110.585V18.22ZM121.618 12.34V22H119.938V12.34H121.618ZM124.537 14.188C124.313 14.02 124.11 13.901 123.928 13.831C123.746 13.747 123.515 13.705 123.235 13.705C122.815 13.705 122.486 13.81 122.248 14.02C122.01 14.23 121.842 14.517 121.744 14.881C121.66 15.245 121.618 15.658 121.618 16.12H120.862C120.862 15.35 120.995 14.671 121.261 14.083C121.541 13.481 121.898 13.005 122.332 12.655C122.766 12.305 123.207 12.13 123.655 12.13C124.005 12.13 124.327 12.179 124.621 12.277C124.929 12.361 125.209 12.536 125.461 12.802L124.537 14.188ZM127.892 19.018C127.892 19.382 127.976 19.697 128.144 19.963C128.326 20.229 128.571 20.432 128.879 20.572C129.201 20.698 129.565 20.761 129.971 20.761C130.489 20.761 130.951 20.656 131.357 20.446C131.777 20.236 132.106 19.942 132.344 19.564C132.596 19.172 132.722 18.724 132.722 18.22L133.058 19.48C133.058 20.096 132.869 20.607 132.491 21.013C132.127 21.419 131.672 21.72 131.126 21.916C130.594 22.112 130.062 22.21 129.53 22.21C128.942 22.21 128.389 22.091 127.871 21.853C127.367 21.601 126.961 21.244 126.653 20.782C126.345 20.32 126.191 19.76 126.191 19.102C126.191 18.164 126.52 17.415 127.178 16.855C127.85 16.281 128.781 15.994 129.971 15.994C130.671 15.994 131.252 16.078 131.714 16.246C132.19 16.4 132.568 16.582 132.848 16.792C133.128 16.988 133.317 17.149 133.415 17.275V18.262C132.925 17.926 132.421 17.688 131.903 17.548C131.385 17.394 130.832 17.317 130.244 17.317C129.698 17.317 129.25 17.387 128.9 17.527C128.564 17.667 128.312 17.863 128.144 18.115C127.976 18.367 127.892 18.668 127.892 19.018ZM127.64 14.566L126.821 13.327C127.185 13.061 127.682 12.795 128.312 12.529C128.956 12.263 129.726 12.13 130.622 12.13C131.378 12.13 132.036 12.249 132.596 12.487C133.17 12.711 133.611 13.04 133.919 13.474C134.241 13.908 134.402 14.44 134.402 15.07V22H132.722V15.301C132.722 14.965 132.666 14.692 132.554 14.482C132.442 14.258 132.281 14.083 132.071 13.957C131.875 13.831 131.644 13.74 131.378 13.684C131.112 13.628 130.832 13.6 130.538 13.6C130.062 13.6 129.628 13.656 129.236 13.768C128.858 13.88 128.536 14.013 128.27 14.167C128.004 14.321 127.794 14.454 127.64 14.566Z" fill="#4C7B00"/>
<line x1="35.5" y1="51" x2="35.5" y2="170" stroke="black" stroke-opacity="0.15"/>
<line x1="35.5" y1="51" x2="35.5" y2="170" stroke="black" stroke-opacity="0.18"/>
<line x1="292.5" y1="51" x2="292.5" y2="170" stroke="black" stroke-opacity="0.15"/>
<line x1="292.5" y1="51" x2="292.5" y2="170" stroke="black" stroke-opacity="0.18"/>
<line x1="121.5" y1="51" x2="121.5" y2="170" stroke="black" stroke-opacity="0.15"/>
<line x1="121.5" y1="51" x2="121.5" y2="170" stroke="black" stroke-opacity="0.18"/>
<line x1="204.5" y1="51" x2="204.5" y2="170" stroke="black" stroke-opacity="0.15"/>
<line x1="204.5" y1="51" x2="204.5" y2="170" stroke="black" stroke-opacity="0.18"/>
<path d="M17.9514 178.905L17.1714 186H15.8964L17.1714 174.975L21.3714 182.58L25.5714 174.975L26.8464 186H25.5714L24.7914 178.905L21.3714 185.025L17.9514 178.905ZM29.1049 183.87C29.1049 184.13 29.1649 184.355 29.2849 184.545C29.4149 184.735 29.5899 184.88 29.8099 184.98C30.0399 185.07 30.2999 185.115 30.5899 185.115C30.9599 185.115 31.2899 185.04 31.5799 184.89C31.8799 184.74 32.1149 184.53 32.2849 184.26C32.4649 183.98 32.5549 183.66 32.5549 183.3L32.7949 184.2C32.7949 184.64 32.6599 185.005 32.3899 185.295C32.1299 185.585 31.8049 185.8 31.4149 185.94C31.0349 186.08 30.6549 186.15 30.2749 186.15C29.8549 186.15 29.4599 186.065 29.0899 185.895C28.7299 185.715 28.4399 185.46 28.2199 185.13C27.9999 184.8 27.8899 184.4 27.8899 183.93C27.8899 183.26 28.1249 182.725 28.5949 182.325C29.0749 181.915 29.7399 181.71 30.5899 181.71C31.0899 181.71 31.5049 181.77 31.8349 181.89C32.1749 182 32.4449 182.13 32.6449 182.28C32.8449 182.42 32.9799 182.535 33.0499 182.625V183.33C32.6999 183.09 32.3399 182.92 31.9699 182.82C31.5999 182.71 31.2049 182.655 30.7849 182.655C30.3949 182.655 30.0749 182.705 29.8249 182.805C29.5849 182.905 29.4049 183.045 29.2849 183.225C29.1649 183.405 29.1049 183.62 29.1049 183.87ZM28.9249 180.69L28.3399 179.805C28.5999 179.615 28.9549 179.425 29.4049 179.235C29.8649 179.045 30.4149 178.95 31.0549 178.95C31.5949 178.95 32.0649 179.035 32.4649 179.205C32.8749 179.365 33.1899 179.6 33.4099 179.91C33.6399 180.22 33.7549 180.6 33.7549 181.05V186H32.5549V181.215C32.5549 180.975 32.5149 180.78 32.4349 180.63C32.3549 180.47 32.2399 180.345 32.0899 180.255C31.9499 180.165 31.7849 180.1 31.5949 180.06C31.4049 180.02 31.2049 180 30.9949 180C30.6549 180 30.3449 180.04 30.0649 180.12C29.7949 180.2 29.5649 180.295 29.3749 180.405C29.1849 180.515 29.0349 180.61 28.9249 180.69ZM40.2116 181.8C40.2116 181.23 40.0866 180.8 39.8366 180.51C39.5866 180.22 39.2216 180.075 38.7416 180.075C38.3916 180.075 38.0816 180.15 37.8116 180.3C37.5516 180.44 37.3466 180.64 37.1966 180.9C37.0566 181.16 36.9866 181.46 36.9866 181.8V186H35.7866V179.1H36.9866V180.18C37.2166 179.76 37.5016 179.45 37.8416 179.25C38.1916 179.05 38.5916 178.95 39.0416 178.95C39.7716 178.95 40.3466 179.195 40.7666 179.685C41.1966 180.165 41.4116 180.82 41.4116 181.65V186H40.2116V181.8ZM44.8675 174.3V186H43.6675V174.3H44.8675ZM48.0925 181.8C48.0925 181.23 47.9675 180.8 47.7175 180.51C47.4775 180.22 47.1125 180.075 46.6225 180.075C46.2725 180.075 45.9625 180.15 45.6925 180.3C45.4325 180.45 45.2275 180.655 45.0775 180.915C44.9375 181.175 44.8675 181.47 44.8675 181.8H44.4775C44.4775 181.25 44.5825 180.765 44.7925 180.345C45.0025 179.915 45.2875 179.575 45.6475 179.325C46.0175 179.075 46.4425 178.95 46.9225 178.95C47.4025 178.95 47.8175 179.05 48.1675 179.25C48.5275 179.45 48.8025 179.75 48.9925 180.15C49.1925 180.55 49.2925 181.05 49.2925 181.65V186H48.0925V181.8ZM52.0883 183.975C52.0883 184.215 52.1433 184.42 52.2533 184.59C52.3633 184.75 52.5233 184.875 52.7333 184.965C52.9533 185.045 53.2233 185.085 53.5433 185.085C53.9433 185.085 54.2983 185.025 54.6083 184.905C54.9183 184.785 55.1583 184.595 55.3283 184.335C55.5083 184.075 55.5983 183.73 55.5983 183.3L55.8383 184.05C55.8383 184.49 55.7183 184.87 55.4783 185.19C55.2483 185.5 54.9383 185.74 54.5483 185.91C54.1583 186.07 53.7233 186.15 53.2433 186.15C52.7733 186.15 52.3583 186.07 51.9983 185.91C51.6383 185.74 51.3583 185.505 51.1583 185.205C50.9683 184.905 50.8733 184.545 50.8733 184.125C50.8733 183.585 51.0033 183.14 51.2633 182.79C51.5233 182.43 51.8733 182.16 52.3133 181.98C52.7633 181.8 53.2633 181.71 53.8133 181.71C54.2533 181.71 54.6283 181.77 54.9383 181.89C55.2583 182 55.5133 182.13 55.7033 182.28C55.8933 182.42 56.0233 182.535 56.0933 182.625V183.33C55.7533 183.09 55.4083 182.915 55.0583 182.805C54.7083 182.685 54.3133 182.625 53.8733 182.625C53.4733 182.625 53.1383 182.68 52.8683 182.79C52.6083 182.9 52.4133 183.055 52.2833 183.255C52.1533 183.455 52.0883 183.695 52.0883 183.975ZM52.0883 180.72L51.5033 179.805C51.7633 179.615 52.1133 179.425 52.5533 179.235C52.9933 179.045 53.5233 178.95 54.1433 178.95C54.6733 178.95 55.1333 179.035 55.5233 179.205C55.9233 179.365 56.2333 179.6 56.4533 179.91C56.6833 180.22 56.7983 180.6 56.7983 181.05V186H55.5983V181.05C55.5983 180.7 55.4483 180.44 55.1483 180.27C54.8583 180.09 54.5233 180 54.1433 180C53.8133 180 53.5133 180.045 53.2433 180.135C52.9733 180.215 52.7383 180.315 52.5383 180.435C52.3483 180.545 52.1983 180.64 52.0883 180.72ZM51.6683 177.495C51.7183 177.245 51.8233 177.03 51.9833 176.85C52.1433 176.67 52.3333 176.53 52.5533 176.43C52.7833 176.32 53.0083 176.265 53.2283 176.265C53.4683 176.265 53.6633 176.3 53.8133 176.37C53.9733 176.44 54.1083 176.525 54.2183 176.625C54.3383 176.715 54.4633 176.795 54.5933 176.865C54.7233 176.935 54.8883 176.97 55.0883 176.97C55.2283 176.97 55.3633 176.91 55.4933 176.79C55.6333 176.67 55.7783 176.49 55.9283 176.25L56.6183 176.895C56.5383 177.075 56.4183 177.25 56.2583 177.42C56.1083 177.59 55.9283 177.73 55.7183 177.84C55.5083 177.94 55.2783 177.99 55.0283 177.99C54.7583 177.99 54.5283 177.93 54.3383 177.81C54.1483 177.69 53.9683 177.575 53.7983 177.465C53.6383 177.345 53.4433 177.285 53.2133 177.285C53.0133 177.285 52.8583 177.335 52.7483 177.435C52.6383 177.525 52.5633 177.63 52.5233 177.75C52.4833 177.87 52.4633 177.97 52.4633 178.05L51.6683 177.495Z" fill="black"/>
<path d="M23.4891 193.132V191.9L26.8491 191.06V201H25.6591V192.488L23.4891 193.132ZM36.0079 197.78C36.0079 198.34 35.9192 198.83 35.7419 199.25C35.5645 199.67 35.3172 200.02 34.9999 200.3C34.6825 200.58 34.3185 200.79 33.9079 200.93C33.4972 201.07 33.0539 201.14 32.5779 201.14C31.9805 201.14 31.4579 201.047 31.0099 200.86C30.5712 200.673 30.1932 200.426 29.8759 200.118C29.5679 199.801 29.3065 199.455 29.0919 199.082L30.0999 198.396C30.2492 198.676 30.4452 198.942 30.6879 199.194C30.9399 199.437 31.2292 199.637 31.5559 199.796C31.8825 199.945 32.2232 200.02 32.5779 200.02C33.0445 200.02 33.4412 199.927 33.7679 199.74C34.0945 199.553 34.3419 199.292 34.5099 198.956C34.6872 198.62 34.7759 198.228 34.7759 197.78C34.7759 197.332 34.6779 196.94 34.4819 196.604C34.2952 196.268 34.0339 196.007 33.6979 195.82C33.3712 195.633 32.9979 195.54 32.5779 195.54C32.2699 195.54 31.9852 195.568 31.7239 195.624C31.4719 195.671 31.2152 195.759 30.9539 195.89C30.7019 196.011 30.4079 196.189 30.0719 196.422L31.3599 191.2H35.9799V192.25H32.2839L31.6259 194.84C31.8592 194.719 32.0972 194.63 32.3399 194.574C32.5919 194.509 32.8392 194.476 33.0819 194.476C33.6419 194.476 34.1412 194.616 34.5799 194.896C35.0279 195.176 35.3779 195.563 35.6299 196.058C35.8819 196.553 36.0079 197.127 36.0079 197.78ZM36.8542 192.88C36.8542 192.385 37.0129 191.984 37.3302 191.676C37.6476 191.359 38.0442 191.2 38.5202 191.2C38.9962 191.2 39.3929 191.359 39.7102 191.676C40.0276 191.984 40.1862 192.385 40.1862 192.88C40.1862 193.365 40.0276 193.767 39.7102 194.084C39.3929 194.401 38.9962 194.56 38.5202 194.56C38.0442 194.56 37.6476 194.401 37.3302 194.084C37.0129 193.767 36.8542 193.365 36.8542 192.88ZM37.4142 192.88C37.4142 193.216 37.5169 193.491 37.7222 193.706C37.9369 193.921 38.2029 194.028 38.5202 194.028C38.8376 194.028 39.0989 193.921 39.3042 193.706C39.5189 193.491 39.6262 193.216 39.6262 192.88C39.6262 192.544 39.5189 192.269 39.3042 192.054C39.0989 191.839 38.8376 191.732 38.5202 191.732C38.2029 191.732 37.9369 191.839 37.7222 192.054C37.5169 192.269 37.4142 192.544 37.4142 192.88ZM41.8669 196.1C41.8669 196.856 42.0349 197.523 42.3709 198.102C42.7162 198.681 43.1642 199.133 43.7149 199.46C44.2655 199.787 44.8629 199.95 45.5069 199.95C45.9735 199.95 46.3982 199.889 46.7809 199.768C47.1729 199.647 47.5275 199.479 47.8449 199.264C48.1622 199.04 48.4329 198.783 48.6569 198.494V200.062C48.2462 200.426 47.7982 200.697 47.3129 200.874C46.8275 201.051 46.2255 201.14 45.5069 201.14C44.8255 201.14 44.1862 201.019 43.5889 200.776C43.0009 200.524 42.4829 200.174 42.0349 199.726C41.5869 199.269 41.2369 198.732 40.9849 198.116C40.7329 197.5 40.6069 196.828 40.6069 196.1C40.6069 195.372 40.7329 194.7 40.9849 194.084C41.2369 193.468 41.5869 192.936 42.0349 192.488C42.4829 192.031 43.0009 191.681 43.5889 191.438C44.1862 191.186 44.8255 191.06 45.5069 191.06C46.2255 191.06 46.8275 191.149 47.3129 191.326C47.7982 191.503 48.2462 191.774 48.6569 192.138V193.706C48.4329 193.417 48.1622 193.165 47.8449 192.95C47.5275 192.726 47.1729 192.553 46.7809 192.432C46.3982 192.311 45.9735 192.25 45.5069 192.25C44.8629 192.25 44.2655 192.413 43.7149 192.74C43.1642 193.067 42.7162 193.519 42.3709 194.098C42.0349 194.667 41.8669 195.335 41.8669 196.1Z" fill="black"/>
<path d="M108.489 193.132V191.9L111.849 191.06V201H110.659V192.488L108.489 193.132ZM121.008 197.78C121.008 198.34 120.919 198.83 120.742 199.25C120.565 199.67 120.317 200.02 120 200.3C119.683 200.58 119.319 200.79 118.908 200.93C118.497 201.07 118.054 201.14 117.578 201.14C116.981 201.14 116.458 201.047 116.01 200.86C115.571 200.673 115.193 200.426 114.876 200.118C114.568 199.801 114.307 199.455 114.092 199.082L115.1 198.396C115.249 198.676 115.445 198.942 115.688 199.194C115.94 199.437 116.229 199.637 116.556 199.796C116.883 199.945 117.223 200.02 117.578 200.02C118.045 200.02 118.441 199.927 118.768 199.74C119.095 199.553 119.342 199.292 119.51 198.956C119.687 198.62 119.776 198.228 119.776 197.78C119.776 197.332 119.678 196.94 119.482 196.604C119.295 196.268 119.034 196.007 118.698 195.82C118.371 195.633 117.998 195.54 117.578 195.54C117.27 195.54 116.985 195.568 116.724 195.624C116.472 195.671 116.215 195.759 115.954 195.89C115.702 196.011 115.408 196.189 115.072 196.422L116.36 191.2H120.98V192.25H117.284L116.626 194.84C116.859 194.719 117.097 194.63 117.34 194.574C117.592 194.509 117.839 194.476 118.082 194.476C118.642 194.476 119.141 194.616 119.58 194.896C120.028 195.176 120.378 195.563 120.63 196.058C120.882 196.553 121.008 197.127 121.008 197.78ZM121.854 192.88C121.854 192.385 122.013 191.984 122.33 191.676C122.648 191.359 123.044 191.2 123.52 191.2C123.996 191.2 124.393 191.359 124.71 191.676C125.028 191.984 125.186 192.385 125.186 192.88C125.186 193.365 125.028 193.767 124.71 194.084C124.393 194.401 123.996 194.56 123.52 194.56C123.044 194.56 122.648 194.401 122.33 194.084C122.013 193.767 121.854 193.365 121.854 192.88ZM122.414 192.88C122.414 193.216 122.517 193.491 122.722 193.706C122.937 193.921 123.203 194.028 123.52 194.028C123.838 194.028 124.099 193.921 124.304 193.706C124.519 193.491 124.626 193.216 124.626 192.88C124.626 192.544 124.519 192.269 124.304 192.054C124.099 191.839 123.838 191.732 123.52 191.732C123.203 191.732 122.937 191.839 122.722 192.054C122.517 192.269 122.414 192.544 122.414 192.88ZM126.867 196.1C126.867 196.856 127.035 197.523 127.371 198.102C127.716 198.681 128.164 199.133 128.715 199.46C129.266 199.787 129.863 199.95 130.507 199.95C130.974 199.95 131.398 199.889 131.781 199.768C132.173 199.647 132.528 199.479 132.845 199.264C133.162 199.04 133.433 198.783 133.657 198.494V200.062C133.246 200.426 132.798 200.697 132.313 200.874C131.828 201.051 131.226 201.14 130.507 201.14C129.826 201.14 129.186 201.019 128.589 200.776C128.001 200.524 127.483 200.174 127.035 199.726C126.587 199.269 126.237 198.732 125.985 198.116C125.733 197.5 125.607 196.828 125.607 196.1C125.607 195.372 125.733 194.7 125.985 194.084C126.237 193.468 126.587 192.936 127.035 192.488C127.483 192.031 128.001 191.681 128.589 191.438C129.186 191.186 129.826 191.06 130.507 191.06C131.226 191.06 131.828 191.149 132.313 191.326C132.798 191.503 133.246 191.774 133.657 192.138V193.706C133.433 193.417 133.162 193.165 132.845 192.95C132.528 192.726 132.173 192.553 131.781 192.432C131.398 192.311 130.974 192.25 130.507 192.25C129.863 192.25 129.266 192.413 128.715 192.74C128.164 193.067 127.716 193.519 127.371 194.098C127.035 194.667 126.867 195.335 126.867 196.1Z" fill="black"/>
<path d="M191.489 193.132V191.9L194.849 191.06V201H193.659V192.488L191.489 193.132ZM204.008 197.78C204.008 198.34 203.919 198.83 203.742 199.25C203.565 199.67 203.317 200.02 203 200.3C202.683 200.58 202.319 200.79 201.908 200.93C201.497 201.07 201.054 201.14 200.578 201.14C199.981 201.14 199.458 201.047 199.01 200.86C198.571 200.673 198.193 200.426 197.876 200.118C197.568 199.801 197.307 199.455 197.092 199.082L198.1 198.396C198.249 198.676 198.445 198.942 198.688 199.194C198.94 199.437 199.229 199.637 199.556 199.796C199.883 199.945 200.223 200.02 200.578 200.02C201.045 200.02 201.441 199.927 201.768 199.74C202.095 199.553 202.342 199.292 202.51 198.956C202.687 198.62 202.776 198.228 202.776 197.78C202.776 197.332 202.678 196.94 202.482 196.604C202.295 196.268 202.034 196.007 201.698 195.82C201.371 195.633 200.998 195.54 200.578 195.54C200.27 195.54 199.985 195.568 199.724 195.624C199.472 195.671 199.215 195.759 198.954 195.89C198.702 196.011 198.408 196.189 198.072 196.422L199.36 191.2H203.98V192.25H200.284L199.626 194.84C199.859 194.719 200.097 194.63 200.34 194.574C200.592 194.509 200.839 194.476 201.082 194.476C201.642 194.476 202.141 194.616 202.58 194.896C203.028 195.176 203.378 195.563 203.63 196.058C203.882 196.553 204.008 197.127 204.008 197.78ZM204.854 192.88C204.854 192.385 205.013 191.984 205.33 191.676C205.648 191.359 206.044 191.2 206.52 191.2C206.996 191.2 207.393 191.359 207.71 191.676C208.028 191.984 208.186 192.385 208.186 192.88C208.186 193.365 208.028 193.767 207.71 194.084C207.393 194.401 206.996 194.56 206.52 194.56C206.044 194.56 205.648 194.401 205.33 194.084C205.013 193.767 204.854 193.365 204.854 192.88ZM205.414 192.88C205.414 193.216 205.517 193.491 205.722 193.706C205.937 193.921 206.203 194.028 206.52 194.028C206.838 194.028 207.099 193.921 207.304 193.706C207.519 193.491 207.626 193.216 207.626 192.88C207.626 192.544 207.519 192.269 207.304 192.054C207.099 191.839 206.838 191.732 206.52 191.732C206.203 191.732 205.937 191.839 205.722 192.054C205.517 192.269 205.414 192.544 205.414 192.88ZM209.867 196.1C209.867 196.856 210.035 197.523 210.371 198.102C210.716 198.681 211.164 199.133 211.715 199.46C212.266 199.787 212.863 199.95 213.507 199.95C213.974 199.95 214.398 199.889 214.781 199.768C215.173 199.647 215.528 199.479 215.845 199.264C216.162 199.04 216.433 198.783 216.657 198.494V200.062C216.246 200.426 215.798 200.697 215.313 200.874C214.828 201.051 214.226 201.14 213.507 201.14C212.826 201.14 212.186 201.019 211.589 200.776C211.001 200.524 210.483 200.174 210.035 199.726C209.587 199.269 209.237 198.732 208.985 198.116C208.733 197.5 208.607 196.828 208.607 196.1C208.607 195.372 208.733 194.7 208.985 194.084C209.237 193.468 209.587 192.936 210.035 192.488C210.483 192.031 211.001 191.681 211.589 191.438C212.186 191.186 212.826 191.06 213.507 191.06C214.226 191.06 214.828 191.149 215.313 191.326C215.798 191.503 216.246 191.774 216.657 192.138V193.706C216.433 193.417 216.162 193.165 215.845 192.95C215.528 192.726 215.173 192.553 214.781 192.432C214.398 192.311 213.974 192.25 213.507 192.25C212.863 192.25 212.266 192.413 211.715 192.74C211.164 193.067 210.716 193.519 210.371 194.098C210.035 194.667 209.867 195.335 209.867 196.1Z" fill="black"/>
<path d="M279.489 193.132V191.9L282.849 191.06V201H281.659V192.488L279.489 193.132ZM292.008 197.78C292.008 198.34 291.919 198.83 291.742 199.25C291.565 199.67 291.317 200.02 291 200.3C290.683 200.58 290.319 200.79 289.908 200.93C289.497 201.07 289.054 201.14 288.578 201.14C287.981 201.14 287.458 201.047 287.01 200.86C286.571 200.673 286.193 200.426 285.876 200.118C285.568 199.801 285.307 199.455 285.092 199.082L286.1 198.396C286.249 198.676 286.445 198.942 286.688 199.194C286.94 199.437 287.229 199.637 287.556 199.796C287.883 199.945 288.223 200.02 288.578 200.02C289.045 200.02 289.441 199.927 289.768 199.74C290.095 199.553 290.342 199.292 290.51 198.956C290.687 198.62 290.776 198.228 290.776 197.78C290.776 197.332 290.678 196.94 290.482 196.604C290.295 196.268 290.034 196.007 289.698 195.82C289.371 195.633 288.998 195.54 288.578 195.54C288.27 195.54 287.985 195.568 287.724 195.624C287.472 195.671 287.215 195.759 286.954 195.89C286.702 196.011 286.408 196.189 286.072 196.422L287.36 191.2H291.98V192.25H288.284L287.626 194.84C287.859 194.719 288.097 194.63 288.34 194.574C288.592 194.509 288.839 194.476 289.082 194.476C289.642 194.476 290.141 194.616 290.58 194.896C291.028 195.176 291.378 195.563 291.63 196.058C291.882 196.553 292.008 197.127 292.008 197.78ZM292.854 192.88C292.854 192.385 293.013 191.984 293.33 191.676C293.648 191.359 294.044 191.2 294.52 191.2C294.996 191.2 295.393 191.359 295.71 191.676C296.028 191.984 296.186 192.385 296.186 192.88C296.186 193.365 296.028 193.767 295.71 194.084C295.393 194.401 294.996 194.56 294.52 194.56C294.044 194.56 293.648 194.401 293.33 194.084C293.013 193.767 292.854 193.365 292.854 192.88ZM293.414 192.88C293.414 193.216 293.517 193.491 293.722 193.706C293.937 193.921 294.203 194.028 294.52 194.028C294.838 194.028 295.099 193.921 295.304 193.706C295.519 193.491 295.626 193.216 295.626 192.88C295.626 192.544 295.519 192.269 295.304 192.054C295.099 191.839 294.838 191.732 294.52 191.732C294.203 191.732 293.937 191.839 293.722 192.054C293.517 192.269 293.414 192.544 293.414 192.88ZM297.867 196.1C297.867 196.856 298.035 197.523 298.371 198.102C298.716 198.681 299.164 199.133 299.715 199.46C300.266 199.787 300.863 199.95 301.507 199.95C301.974 199.95 302.398 199.889 302.781 199.768C303.173 199.647 303.528 199.479 303.845 199.264C304.162 199.04 304.433 198.783 304.657 198.494V200.062C304.246 200.426 303.798 200.697 303.313 200.874C302.828 201.051 302.226 201.14 301.507 201.14C300.826 201.14 300.186 201.019 299.589 200.776C299.001 200.524 298.483 200.174 298.035 199.726C297.587 199.269 297.237 198.732 296.985 198.116C296.733 197.5 296.607 196.828 296.607 196.1C296.607 195.372 296.733 194.7 296.985 194.084C297.237 193.468 297.587 192.936 298.035 192.488C298.483 192.031 299.001 191.681 299.589 191.438C300.186 191.186 300.826 191.06 301.507 191.06C302.226 191.06 302.828 191.149 303.313 191.326C303.798 191.503 304.246 191.774 304.657 192.138V193.706C304.433 193.417 304.162 193.165 303.845 192.95C303.528 192.726 303.173 192.553 302.781 192.432C302.398 192.311 301.974 192.25 301.507 192.25C300.863 192.25 300.266 192.413 299.715 192.74C299.164 193.067 298.716 193.519 298.371 194.098C298.035 194.667 297.867 195.335 297.867 196.1Z" fill="black"/>
<path d="M103.592 176.7V175.5H110.267V176.7H107.567V186H106.292V176.7H103.592ZM110.585 183.87C110.585 184.13 110.645 184.355 110.765 184.545C110.895 184.735 111.07 184.88 111.29 184.98C111.52 185.07 111.78 185.115 112.07 185.115C112.44 185.115 112.77 185.04 113.06 184.89C113.36 184.74 113.595 184.53 113.765 184.26C113.945 183.98 114.035 183.66 114.035 183.3L114.275 184.2C114.275 184.64 114.14 185.005 113.87 185.295C113.61 185.585 113.285 185.8 112.895 185.94C112.515 186.08 112.135 186.15 111.755 186.15C111.335 186.15 110.94 186.065 110.57 185.895C110.21 185.715 109.92 185.46 109.7 185.13C109.48 184.8 109.37 184.4 109.37 183.93C109.37 183.26 109.605 182.725 110.075 182.325C110.555 181.915 111.22 181.71 112.07 181.71C112.57 181.71 112.985 181.77 113.315 181.89C113.655 182 113.925 182.13 114.125 182.28C114.325 182.42 114.46 182.535 114.53 182.625V183.33C114.18 183.09 113.82 182.92 113.45 182.82C113.08 182.71 112.685 182.655 112.265 182.655C111.875 182.655 111.555 182.705 111.305 182.805C111.065 182.905 110.885 183.045 110.765 183.225C110.645 183.405 110.585 183.62 110.585 183.87ZM110.405 180.69L109.82 179.805C110.08 179.615 110.435 179.425 110.885 179.235C111.345 179.045 111.895 178.95 112.535 178.95C113.075 178.95 113.545 179.035 113.945 179.205C114.355 179.365 114.67 179.6 114.89 179.91C115.12 180.22 115.235 180.6 115.235 181.05V186H114.035V181.215C114.035 180.975 113.995 180.78 113.915 180.63C113.835 180.47 113.72 180.345 113.57 180.255C113.43 180.165 113.265 180.1 113.075 180.06C112.885 180.02 112.685 180 112.475 180C112.135 180 111.825 180.04 111.545 180.12C111.275 180.2 111.045 180.295 110.855 180.405C110.665 180.515 110.515 180.61 110.405 180.69ZM118.467 179.1V186H117.267V179.1H118.467ZM120.552 180.42C120.392 180.3 120.247 180.215 120.117 180.165C119.987 180.105 119.822 180.075 119.622 180.075C119.322 180.075 119.087 180.15 118.917 180.3C118.747 180.45 118.627 180.655 118.557 180.915C118.497 181.175 118.467 181.47 118.467 181.8H117.927C117.927 181.25 118.022 180.765 118.212 180.345C118.412 179.915 118.667 179.575 118.977 179.325C119.287 179.075 119.602 178.95 119.922 178.95C120.172 178.95 120.402 178.985 120.612 179.055C120.832 179.115 121.032 179.24 121.212 179.43L120.552 180.42ZM127.584 174.3H128.784V186H127.584V174.3ZM121.809 182.55C121.809 181.8 121.964 181.16 122.274 180.63C122.584 180.09 122.999 179.675 123.519 179.385C124.039 179.095 124.609 178.95 125.229 178.95C125.809 178.95 126.314 179.095 126.744 179.385C127.174 179.675 127.509 180.09 127.749 180.63C127.999 181.16 128.124 181.8 128.124 182.55C128.124 183.29 127.999 183.93 127.749 184.47C127.509 185.01 127.174 185.425 126.744 185.715C126.314 186.005 125.809 186.15 125.229 186.15C124.609 186.15 124.039 186.005 123.519 185.715C122.999 185.425 122.584 185.01 122.274 184.47C121.964 183.93 121.809 183.29 121.809 182.55ZM123.024 182.55C123.024 183.08 123.129 183.53 123.339 183.9C123.559 184.27 123.849 184.55 124.209 184.74C124.569 184.93 124.959 185.025 125.379 185.025C125.729 185.025 126.074 184.93 126.414 184.74C126.754 184.55 127.034 184.27 127.254 183.9C127.474 183.53 127.584 183.08 127.584 182.55C127.584 182.02 127.474 181.57 127.254 181.2C127.034 180.83 126.754 180.55 126.414 180.36C126.074 180.17 125.729 180.075 125.379 180.075C124.959 180.075 124.569 180.17 124.209 180.36C123.849 180.55 123.559 180.83 123.339 181.2C123.129 181.57 123.024 182.02 123.024 182.55ZM133.633 186.15C132.993 186.15 132.423 186 131.923 185.7C131.433 185.39 131.048 184.965 130.768 184.425C130.498 183.885 130.363 183.26 130.363 182.55C130.363 181.83 130.503 181.2 130.783 180.66C131.073 180.12 131.473 179.7 131.983 179.4C132.503 179.1 133.103 178.95 133.783 178.95C134.463 178.95 135.043 179.095 135.523 179.385C136.013 179.665 136.388 180.07 136.648 180.6C136.908 181.13 137.038 181.76 137.038 182.49C137.038 182.56 137.033 182.635 137.023 182.715C137.023 182.785 137.023 182.83 137.023 182.85H131.128V181.83H136.078L135.598 182.52C135.628 182.47 135.658 182.395 135.688 182.295C135.718 182.185 135.733 182.095 135.733 182.025C135.733 181.615 135.648 181.26 135.478 180.96C135.318 180.66 135.093 180.425 134.803 180.255C134.513 180.085 134.173 180 133.783 180C133.323 180 132.928 180.1 132.598 180.3C132.278 180.49 132.028 180.77 131.848 181.14C131.678 181.5 131.588 181.945 131.578 182.475C131.578 183.015 131.663 183.475 131.833 183.855C132.003 184.235 132.253 184.525 132.583 184.725C132.913 184.925 133.313 185.025 133.783 185.025C134.253 185.025 134.668 184.925 135.028 184.725C135.388 184.515 135.693 184.2 135.943 183.78L136.918 184.395C136.558 184.975 136.103 185.415 135.553 185.715C135.013 186.005 134.373 186.15 133.633 186.15Z" fill="black"/>
<path d="M194.63 175.5H195.905V186.525L187.955 178.185V186H186.68V174.975L194.63 183.315V175.5ZM197.636 182.55C197.636 181.85 197.791 181.23 198.101 180.69C198.421 180.15 198.851 179.725 199.391 179.415C199.931 179.105 200.536 178.95 201.206 178.95C201.886 178.95 202.491 179.105 203.021 179.415C203.561 179.725 203.986 180.15 204.296 180.69C204.616 181.23 204.776 181.85 204.776 182.55C204.776 183.24 204.616 183.86 204.296 184.41C203.986 184.95 203.561 185.375 203.021 185.685C202.491 185.995 201.886 186.15 201.206 186.15C200.536 186.15 199.931 185.995 199.391 185.685C198.851 185.375 198.421 184.95 198.101 184.41C197.791 183.86 197.636 183.24 197.636 182.55ZM198.851 182.55C198.851 183.03 198.951 183.455 199.151 183.825C199.361 184.195 199.641 184.49 199.991 184.71C200.351 184.92 200.756 185.025 201.206 185.025C201.656 185.025 202.056 184.92 202.406 184.71C202.766 184.49 203.046 184.195 203.246 183.825C203.456 183.455 203.561 183.03 203.561 182.55C203.561 182.07 203.456 181.645 203.246 181.275C203.046 180.895 202.766 180.6 202.406 180.39C202.056 180.18 201.656 180.075 201.206 180.075C200.756 180.075 200.351 180.18 199.991 180.39C199.641 180.6 199.361 180.895 199.151 181.275C198.951 181.645 198.851 182.07 198.851 182.55ZM206.425 176.25C206.425 176.02 206.505 175.825 206.665 175.665C206.835 175.505 207.03 175.425 207.25 175.425C207.48 175.425 207.675 175.505 207.835 175.665C207.995 175.825 208.075 176.02 208.075 176.25C208.075 176.47 207.995 176.665 207.835 176.835C207.675 176.995 207.48 177.075 207.25 177.075C207.03 177.075 206.835 176.995 206.665 176.835C206.505 176.665 206.425 176.47 206.425 176.25ZM206.65 179.1H207.85V186H206.65V179.1ZM209.271 179.1H212.721V180.225H209.271V179.1ZM210.396 176.7H211.596V186H210.396V176.7ZM216.595 186.15C215.955 186.15 215.385 186 214.885 185.7C214.395 185.39 214.01 184.965 213.73 184.425C213.46 183.885 213.325 183.26 213.325 182.55C213.325 181.83 213.465 181.2 213.745 180.66C214.035 180.12 214.435 179.7 214.945 179.4C215.465 179.1 216.065 178.95 216.745 178.95C217.425 178.95 218.005 179.095 218.485 179.385C218.975 179.665 219.35 180.07 219.61 180.6C219.87 181.13 220 181.76 220 182.49C220 182.56 219.995 182.635 219.985 182.715C219.985 182.785 219.985 182.83 219.985 182.85H214.09V181.83H219.04L218.56 182.52C218.59 182.47 218.62 182.395 218.65 182.295C218.68 182.185 218.695 182.095 218.695 182.025C218.695 181.615 218.61 181.26 218.44 180.96C218.28 180.66 218.055 180.425 217.765 180.255C217.475 180.085 217.135 180 216.745 180C216.285 180 215.89 180.1 215.56 180.3C215.24 180.49 214.99 180.77 214.81 181.14C214.64 181.5 214.55 181.945 214.54 182.475C214.54 183.015 214.625 183.475 214.795 183.855C214.965 184.235 215.215 184.525 215.545 184.725C215.875 184.925 216.275 185.025 216.745 185.025C217.215 185.025 217.63 184.925 217.99 184.725C218.35 184.515 218.655 184.2 218.905 183.78L219.88 184.395C219.52 184.975 219.065 185.415 218.515 185.715C217.975 186.005 217.335 186.15 216.595 186.15Z" fill="black"/>
<path d="M257.907 178.905L257.127 186H255.852L257.127 174.975L261.327 182.58L265.527 174.975L266.802 186H265.527L264.747 178.905L261.327 185.025L257.907 178.905ZM269.061 183.87C269.061 184.13 269.121 184.355 269.241 184.545C269.371 184.735 269.546 184.88 269.766 184.98C269.996 185.07 270.256 185.115 270.546 185.115C270.916 185.115 271.246 185.04 271.536 184.89C271.836 184.74 272.071 184.53 272.241 184.26C272.421 183.98 272.511 183.66 272.511 183.3L272.751 184.2C272.751 184.64 272.616 185.005 272.346 185.295C272.086 185.585 271.761 185.8 271.371 185.94C270.991 186.08 270.611 186.15 270.231 186.15C269.811 186.15 269.416 186.065 269.046 185.895C268.686 185.715 268.396 185.46 268.176 185.13C267.956 184.8 267.846 184.4 267.846 183.93C267.846 183.26 268.081 182.725 268.551 182.325C269.031 181.915 269.696 181.71 270.546 181.71C271.046 181.71 271.461 181.77 271.791 181.89C272.131 182 272.401 182.13 272.601 182.28C272.801 182.42 272.936 182.535 273.006 182.625V183.33C272.656 183.09 272.296 182.92 271.926 182.82C271.556 182.71 271.161 182.655 270.741 182.655C270.351 182.655 270.031 182.705 269.781 182.805C269.541 182.905 269.361 183.045 269.241 183.225C269.121 183.405 269.061 183.62 269.061 183.87ZM268.881 180.69L268.296 179.805C268.556 179.615 268.911 179.425 269.361 179.235C269.821 179.045 270.371 178.95 271.011 178.95C271.551 178.95 272.021 179.035 272.421 179.205C272.831 179.365 273.146 179.6 273.366 179.91C273.596 180.22 273.711 180.6 273.711 181.05V186H272.511V181.215C272.511 180.975 272.471 180.78 272.391 180.63C272.311 180.47 272.196 180.345 272.046 180.255C271.906 180.165 271.741 180.1 271.551 180.06C271.361 180.02 271.161 180 270.951 180C270.611 180 270.301 180.04 270.021 180.12C269.751 180.2 269.521 180.295 269.331 180.405C269.141 180.515 268.991 180.61 268.881 180.69ZM280.918 174.3H282.118V186H280.918V174.3ZM275.143 182.55C275.143 181.8 275.298 181.16 275.608 180.63C275.918 180.09 276.333 179.675 276.853 179.385C277.373 179.095 277.943 178.95 278.563 178.95C279.143 178.95 279.648 179.095 280.078 179.385C280.508 179.675 280.843 180.09 281.083 180.63C281.333 181.16 281.458 181.8 281.458 182.55C281.458 183.29 281.333 183.93 281.083 184.47C280.843 185.01 280.508 185.425 280.078 185.715C279.648 186.005 279.143 186.15 278.563 186.15C277.943 186.15 277.373 186.005 276.853 185.715C276.333 185.425 275.918 185.01 275.608 184.47C275.298 183.93 275.143 183.29 275.143 182.55ZM276.358 182.55C276.358 183.08 276.463 183.53 276.673 183.9C276.893 184.27 277.183 184.55 277.543 184.74C277.903 184.93 278.293 185.025 278.713 185.025C279.063 185.025 279.408 184.93 279.748 184.74C280.088 184.55 280.368 184.27 280.588 183.9C280.808 183.53 280.918 183.08 280.918 182.55C280.918 182.02 280.808 181.57 280.588 181.2C280.368 180.83 280.088 180.55 279.748 180.36C279.408 180.17 279.063 180.075 278.713 180.075C278.293 180.075 277.903 180.17 277.543 180.36C277.183 180.55 276.893 180.83 276.673 181.2C276.463 181.57 276.358 182.02 276.358 182.55ZM285.497 179.1V186H284.297V179.1H285.497ZM287.582 180.42C287.422 180.3 287.277 180.215 287.147 180.165C287.017 180.105 286.852 180.075 286.652 180.075C286.352 180.075 286.117 180.15 285.947 180.3C285.777 180.45 285.657 180.655 285.587 180.915C285.527 181.175 285.497 181.47 285.497 181.8H284.957C284.957 181.25 285.052 180.765 285.242 180.345C285.442 179.915 285.697 179.575 286.007 179.325C286.317 179.075 286.632 178.95 286.952 178.95C287.202 178.95 287.432 178.985 287.642 179.055C287.862 179.115 288.062 179.24 288.242 179.43L287.582 180.42ZM290.639 183.3C290.639 183.85 290.764 184.275 291.014 184.575C291.264 184.875 291.629 185.025 292.109 185.025C292.459 185.025 292.764 184.955 293.024 184.815C293.294 184.665 293.499 184.46 293.639 184.2C293.789 183.94 293.864 183.64 293.864 183.3V179.1H295.064V186H293.864V184.92C293.634 185.33 293.349 185.64 293.009 185.85C292.669 186.05 292.269 186.15 291.809 186.15C291.089 186.15 290.514 185.905 290.084 185.415C289.654 184.925 289.439 184.27 289.439 183.45V179.1H290.639V183.3ZM296.855 186.45H298.07C298.07 186.78 298.16 187.085 298.34 187.365C298.52 187.655 298.775 187.885 299.105 188.055C299.435 188.235 299.825 188.325 300.275 188.325C300.625 188.325 300.97 188.24 301.31 188.07C301.65 187.9 301.93 187.63 302.15 187.26C302.38 186.9 302.495 186.43 302.495 185.85V179.1H303.695V185.85C303.695 186.64 303.53 187.3 303.2 187.83C302.87 188.37 302.445 188.775 301.925 189.045C301.405 189.315 300.855 189.45 300.275 189.45C299.605 189.45 299.01 189.325 298.49 189.075C297.98 188.825 297.58 188.47 297.29 188.01C297 187.56 296.855 187.04 296.855 186.45ZM296.72 182.55C296.72 181.8 296.875 181.16 297.185 180.63C297.495 180.09 297.91 179.675 298.43 179.385C298.95 179.095 299.52 178.95 300.14 178.95C300.72 178.95 301.225 179.095 301.655 179.385C302.085 179.675 302.42 180.09 302.66 180.63C302.91 181.16 303.035 181.8 303.035 182.55C303.035 183.29 302.91 183.93 302.66 184.47C302.42 185.01 302.085 185.425 301.655 185.715C301.225 186.005 300.72 186.15 300.14 186.15C299.52 186.15 298.95 186.005 298.43 185.715C297.91 185.425 297.495 185.01 297.185 184.47C296.875 183.93 296.72 183.29 296.72 182.55ZM297.935 182.55C297.935 183.08 298.04 183.53 298.25 183.9C298.47 184.27 298.76 184.55 299.12 184.74C299.48 184.93 299.87 185.025 300.29 185.025C300.64 185.025 300.985 184.93 301.325 184.74C301.665 184.55 301.945 184.27 302.165 183.9C302.385 183.53 302.495 183.08 302.495 182.55C302.495 182.15 302.43 181.8 302.3 181.5C302.17 181.19 301.995 180.93 301.775 180.72C301.565 180.51 301.33 180.35 301.07 180.24C300.81 180.13 300.55 180.075 300.29 180.075C299.87 180.075 299.48 180.17 299.12 180.36C298.76 180.55 298.47 180.83 298.25 181.2C298.04 181.57 297.935 182.02 297.935 182.55ZM306.415 183.87C306.415 184.13 306.475 184.355 306.595 184.545C306.725 184.735 306.9 184.88 307.12 184.98C307.35 185.07 307.61 185.115 307.9 185.115C308.27 185.115 308.6 185.04 308.89 184.89C309.19 184.74 309.425 184.53 309.595 184.26C309.775 183.98 309.865 183.66 309.865 183.3L310.105 184.2C310.105 184.64 309.97 185.005 309.7 185.295C309.44 185.585 309.115 185.8 308.725 185.94C308.345 186.08 307.965 186.15 307.585 186.15C307.165 186.15 306.77 186.065 306.4 185.895C306.04 185.715 305.75 185.46 305.53 185.13C305.31 184.8 305.2 184.4 305.2 183.93C305.2 183.26 305.435 182.725 305.905 182.325C306.385 181.915 307.05 181.71 307.9 181.71C308.4 181.71 308.815 181.77 309.145 181.89C309.485 182 309.755 182.13 309.955 182.28C310.155 182.42 310.29 182.535 310.36 182.625V183.33C310.01 183.09 309.65 182.92 309.28 182.82C308.91 182.71 308.515 182.655 308.095 182.655C307.705 182.655 307.385 182.705 307.135 182.805C306.895 182.905 306.715 183.045 306.595 183.225C306.475 183.405 306.415 183.62 306.415 183.87ZM306.235 180.69L305.65 179.805C305.91 179.615 306.265 179.425 306.715 179.235C307.175 179.045 307.725 178.95 308.365 178.95C308.905 178.95 309.375 179.035 309.775 179.205C310.185 179.365 310.5 179.6 310.72 179.91C310.95 180.22 311.065 180.6 311.065 181.05V186H309.865V181.215C309.865 180.975 309.825 180.78 309.745 180.63C309.665 180.47 309.55 180.345 309.4 180.255C309.26 180.165 309.095 180.1 308.905 180.06C308.715 180.02 308.515 180 308.305 180C307.965 180 307.655 180.04 307.375 180.12C307.105 180.2 306.875 180.295 306.685 180.405C306.495 180.515 306.345 180.61 306.235 180.69ZM318.271 174.3H319.471V186H318.271V174.3ZM312.496 182.55C312.496 181.8 312.651 181.16 312.961 180.63C313.271 180.09 313.686 179.675 314.206 179.385C314.726 179.095 315.296 178.95 315.916 178.95C316.496 178.95 317.001 179.095 317.431 179.385C317.861 179.675 318.196 180.09 318.436 180.63C318.686 181.16 318.811 181.8 318.811 182.55C318.811 183.29 318.686 183.93 318.436 184.47C318.196 185.01 317.861 185.425 317.431 185.715C317.001 186.005 316.496 186.15 315.916 186.15C315.296 186.15 314.726 186.005 314.206 185.715C313.686 185.425 313.271 185.01 312.961 184.47C312.651 183.93 312.496 183.29 312.496 182.55ZM313.711 182.55C313.711 183.08 313.816 183.53 314.026 183.9C314.246 184.27 314.536 184.55 314.896 184.74C315.256 184.93 315.646 185.025 316.066 185.025C316.416 185.025 316.761 184.93 317.101 184.74C317.441 184.55 317.721 184.27 317.941 183.9C318.161 183.53 318.271 183.08 318.271 182.55C318.271 182.02 318.161 181.57 317.941 181.2C317.721 180.83 317.441 180.55 317.101 180.36C316.761 180.17 316.416 180.075 316.066 180.075C315.646 180.075 315.256 180.17 314.896 180.36C314.536 180.55 314.246 180.83 314.026 181.2C313.816 181.57 313.711 182.02 313.711 182.55ZM322.191 183.87C322.191 184.13 322.251 184.355 322.371 184.545C322.501 184.735 322.676 184.88 322.896 184.98C323.126 185.07 323.386 185.115 323.676 185.115C324.046 185.115 324.376 185.04 324.666 184.89C324.966 184.74 325.201 184.53 325.371 184.26C325.551 183.98 325.641 183.66 325.641 183.3L325.881 184.2C325.881 184.64 325.746 185.005 325.476 185.295C325.216 185.585 324.891 185.8 324.501 185.94C324.121 186.08 323.741 186.15 323.361 186.15C322.941 186.15 322.546 186.065 322.176 185.895C321.816 185.715 321.526 185.46 321.306 185.13C321.086 184.8 320.976 184.4 320.976 183.93C320.976 183.26 321.211 182.725 321.681 182.325C322.161 181.915 322.826 181.71 323.676 181.71C324.176 181.71 324.591 181.77 324.921 181.89C325.261 182 325.531 182.13 325.731 182.28C325.931 182.42 326.066 182.535 326.136 182.625V183.33C325.786 183.09 325.426 182.92 325.056 182.82C324.686 182.71 324.291 182.655 323.871 182.655C323.481 182.655 323.161 182.705 322.911 182.805C322.671 182.905 322.491 183.045 322.371 183.225C322.251 183.405 322.191 183.62 322.191 183.87ZM322.011 180.69L321.426 179.805C321.686 179.615 322.041 179.425 322.491 179.235C322.951 179.045 323.501 178.95 324.141 178.95C324.681 178.95 325.151 179.035 325.551 179.205C325.961 179.365 326.276 179.6 326.496 179.91C326.726 180.22 326.841 180.6 326.841 181.05V186H325.641V181.215C325.641 180.975 325.601 180.78 325.521 180.63C325.441 180.47 325.326 180.345 325.176 180.255C325.036 180.165 324.871 180.1 324.681 180.06C324.491 180.02 324.291 180 324.081 180C323.741 180 323.431 180.04 323.151 180.12C322.881 180.2 322.651 180.295 322.461 180.405C322.271 180.515 322.121 180.61 322.011 180.69Z" fill="black"/>
<circle cx="36" cy="88" r="5" fill="#4C7B00"/>
<circle cx="121" cy="115" r="5" fill="#4C7B00"/>
<circle cx="204" cy="78" r="5" fill="#4C7B00"/>
<circle cx="292" cy="102" r="5" fill="#4C7B00"/>
<path d="M5.49994 94C59.9209 71.9938 66 114.506 121.079 114.506" stroke="#4C7B00"/>
<path d="M204.5 78C167.294 78 143.843 115.771 121.5 114.5" stroke="#4C7B00"/>
<path d="M317.5 101.5C249.5 109 230.628 76.0166 203 78" stroke="#4C7B00"/>
</svg>
